<?xml version="1.0" encoding="utf-8"?>
<!-- Generator: Adobe Illustrator 23.1.0, SVG Export Plug-In . SVG Version: 6.00 Build 0)  -->
<svg version="1.1" id="Слой_1" xmlns="http://www.w3.org/2000/svg" xmlns:xlink="http://www.w3.org/1999/xlink" x="0px" y="0px"
	 width="150px" height="170px" viewBox="0 0 150 170" style="enable-background:new 0 0 150 170;" xml:space="preserve">
<style type="text/css">
	.st0{fill:#E1E2E1;}
	.st1{fill:#868686;}
	.st2{opacity:0.8;enable-background:new    ;}
	.st3{fill:#BACCD9;}
	.st4{opacity:0.7;enable-background:new    ;}
	.st5{fill-rule:evenodd;clip-rule:evenodd;fill:#E1E2E2;}
	.st6{fill:#878787;}
	.st7{fill:#E1E2E2;}
	.st8{fill-rule:evenodd;clip-rule:evenodd;fill:#BACDDA;}
	.st9{opacity:0.8;}
	.st10{fill-rule:evenodd;clip-rule:evenodd;fill:#BACDDA;stroke:#878787;stroke-miterlimit:10;}
	.st11{fill-rule:evenodd;clip-rule:evenodd;fill:#E1E2E1;}
	.st12{fill-rule:evenodd;clip-rule:evenodd;fill:#BACCD9;}
	.st13{fill-rule:evenodd;clip-rule:evenodd;fill:#FFFFFF;}
	.st14{fill:#FFFFFF;}
	.st15{fill:#BACDDA;}
	.st16{fill:none;}
	
		.st17{fill-rule:evenodd;clip-rule:evenodd;fill:#E1E2E1;stroke:#868686;stroke-linecap:round;stroke-linejoin:round;stroke-miterlimit:10;}
	
		.st18{fill-rule:evenodd;clip-rule:evenodd;fill:#E1E2E1;stroke:#868686;stroke-width:1.5;stroke-linecap:round;stroke-linejoin:round;stroke-miterlimit:10;}
</style>
<g>
	<g>
		<g>
			<polygon class="st11" points="93.4,123.2 8.9,157.8 8.9,41.7 93.4,7 			"/>
			<path class="st1" d="M8.9,158.3c-0.1,0-0.2,0-0.3-0.1c-0.1-0.1-0.2-0.3-0.2-0.5V41.7c0-0.2,0.1-0.5,0.3-0.5L93.2,6.6
				c0.2-0.1,0.3,0,0.5,0.1c0.3,0.1,0.3,0.1,0.3,0.3V123c0,0.2-0.1,0.5-0.3,0.5L9,158.1C9,158.2,8.9,158.3,8.9,158.3z M9.4,42V157
				l83.5-34.2V7.8L9.4,42z"/>
		</g>
		<g>
			<polygon class="st11" points="93.4,7 141.4,26.5 149.5,23.2 93.4,0.5 0.8,38.4 8.9,41.7 			"/>
			<path class="st1" d="M8.9,42.3c-0.1,0-0.1,0-0.2,0l-8.1-3.4c-0.2-0.1-0.3-0.3-0.3-0.5c0-0.2,0.1-0.5,0.3-0.5L93.2,0
				c0.1,0,0.3,0,0.5,0l56.1,22.8c0.2,0.1,0.3,0.3,0.3,0.5c0,0.2-0.1,0.5-0.3,0.5l-8.1,3.3c-0.1,0-0.3,0-0.5,0L93.4,7.7L9.1,42.3
				C9.1,42.3,9,42.3,8.9,42.3z M2.3,38.4l6.7,2.7L93.2,6.6c0.1-0.1,0.3-0.1,0.5,0L141.4,26l6.7-2.7L93.4,1L2.3,38.4z"/>
		</g>
		<g>
			<g>
				<g>
					<polygon class="st11" points="141.3,142.3 93.3,123 93.3,7 141.3,26.5 					"/>
					<path class="st1" d="M141.3,142.9c-0.1,0-0.1,0-0.2,0l-48-19.6c-0.2-0.1-0.3-0.3-0.3-0.5V7c0.1-0.2,0.2-0.2,0.3-0.3
						s0.3-0.1,0.5-0.1l48,19.5c0.2,0.1,0.3,0.3,0.3,0.5v115.9c0,0.2-0.1,0.3-0.2,0.5C141.5,142.9,141.4,142.9,141.3,142.9z
						 M93.8,122.5l46.9,19V26.9l-46.9-19V122.5z"/>
				</g>
				<g>
					<g>
						<polygon class="st1" points="93.2,123.4 93.5,122.4 141.4,141.9 141.1,142.9 						"/>
					</g>
					<g>
						<polygon class="st1" points="93,112.9 93.5,111.9 141.4,131.4 141.1,132.3 						"/>
					</g>
					<g>
						<polygon class="st1" points="93.2,102.3 93.5,101.3 141.4,120.8 141.1,121.8 						"/>
					</g>
					<g>
						<polygon class="st1" points="93,91.8 93.5,90.8 141.4,110.3 141.1,111.3 						"/>
					</g>
					<g>
						<polygon class="st1" points="93.2,81.3 93.5,80.4 141.4,99.8 141.1,100.8 						"/>
					</g>
					<g>
						<polygon class="st1" points="93,70.7 93.5,69.8 141.4,89.2 141.1,90.2 						"/>
					</g>
					<g>
						<polygon class="st1" points="93.2,60.2 93.5,59.3 141.4,78.8 141.1,79.7 						"/>
					</g>
					<g>
						<polygon class="st1" points="93.2,49.6 93.5,48.7 141.4,68.2 141.1,69.1 						"/>
					</g>
					<g>
						<polygon class="st1" points="93.2,39.1 93.5,38.2 141.4,57.7 141.1,58.6 						"/>
					</g>
					<g>
						<polygon class="st1" points="93.2,28.6 93.5,27.7 141.4,47.1 141.1,48.1 						"/>
					</g>
					<g>
						<polygon class="st1" points="93.2,18 93.5,17.1 141.4,36.6 141.1,37.5 						"/>
					</g>
					<g>
						<polygon class="st1" points="93.2,7.5 93.5,6.6 141.4,26.1 141.1,27 						"/>
					</g>
				</g>
				<g>
					<g>
						<rect x="92.8" y="7" class="st1" width="1" height="115.9"/>
					</g>
					<g>
						<rect x="102.4" y="11" class="st1" width="1" height="115.9"/>
					</g>
					<g>
						<rect x="112" y="14.8" class="st1" width="1" height="115.9"/>
					</g>
					<g>
						<rect x="121.6" y="18.7" class="st1" width="1" height="115.9"/>
					</g>
					<g>
						<rect x="131.2" y="22.7" class="st1" width="1" height="115.9"/>
					</g>
					<g>
						<rect x="140.8" y="26.5" class="st1" width="1" height="115.9"/>
					</g>
				</g>
			</g>
		</g>
		<g>
			<polygon class="st11" points="141.1,26.6 149.5,23.2 149.5,139.2 141.1,142.5 			"/>
			<path class="st1" d="M141.1,143c-0.1,0-0.2,0-0.3-0.1c-0.1-0.1-0.2-0.3-0.2-0.5V26.6c0-0.2,0.1-0.5,0.3-0.5l8.3-3.3
				c0.2-0.1,0.3,0,0.5,0.1c0.1,0.1,0.2,0.3,0.2,0.5v115.9c0,0.2-0.1,0.5-0.3,0.5l-8.3,3.3C141.2,143,141.1,143,141.1,143z M141.7,27
				v114.8l7.4-2.9V24.1L141.7,27z"/>
		</g>
		<g>
			<polygon class="st11" points="8.9,41.8 0.5,38.5 0.5,154.6 8.9,157.9 			"/>
			<path class="st1" d="M8.9,158.4c-0.1,0-0.1,0-0.2,0l-8.3-3.3C0.1,155,0,154.8,0,154.7V38.5c0-0.2,0.1-0.3,0.2-0.5
				C0.3,38,0.6,38,0.7,38L9,41.3c0.2,0.1,0.3,0.3,0.3,0.5v116.1c0,0.2-0.1,0.3-0.2,0.5C9.1,158.4,9,158.4,8.9,158.4z M1,154.2
				l7.4,2.9V42.3L1,39.3V154.2z"/>
		</g>
		<g>
			<polygon class="st0" points="130.2,52.8 94.6,38.6 94.7,29.4 130.2,43.7 			"/>
		</g>
		<g>
			<g>
				<path class="st1" d="M98.3,33.9L97,33.3c-0.7-0.3-1.1,0.1-1.1,0.8v0.6c0,0.7,0.5,1.5,1.1,1.8l0.9,0.3l0,0
					c0.3,0.1,0.6-0.1,0.6-0.5l-1.4-0.6c-0.5-0.1-0.6-0.5-0.6-0.9v-0.6c0-0.5,0.2-0.6,0.6-0.5l1.4,0.6v2.9c0,0.5-0.2,0.6-0.6,0.5
					L97,37.5c-0.3-0.1-0.6,0.1-0.6,0.5l0.6,0.2l0.9,0.3c0.7,0.3,1.1-0.1,1.1-0.8v-2.9C98.9,34.3,98.6,34,98.3,33.9"/>
			</g>
			<g>
				<path class="st1" d="M126.2,45.2c-0.7-0.3-1.1,0.1-1.1,0.8v1.4c0,0.5,0.3,0.8,0.6,0.9v-1.9c0-0.5,0.2-0.6,0.6-0.5l0.7,0.3
					c0.3,0.1,0.6-0.1,0.6-0.5L126.2,45.2z"/>
			</g>
			<g>
				<path class="st1" d="M103.8,38.6c-0.5-0.1-0.6-0.5-0.6-0.9v-1.4l0.9,0.3c0.3,0.1,0.6-0.1,0.6-0.5l-1.4-0.6v-1.5
					c-0.3-0.1-0.6,0.1-0.6,0.5v2.8c0,0.7,0.5,1.5,1.1,1.8l0.3,0.1c0.3,0.1,0.6-0.1,0.6-0.5L103.8,38.6z"/>
			</g>
			<g>
				<path class="st1" d="M120.5,46.2c-0.7-0.3-1.1-1-1.1-1.8v-1.4l-1.7-0.7v1.4c0,0.5,0.2,0.7,0.6,0.9l0.9,0.3
					c0,0.5-0.3,0.5-0.6,0.5l-0.3-0.1c-0.7-0.3-1.1-1-1.1-1.8v-2.8c0-0.5,0.2-0.5,0.6-0.5v1.5l1.7,0.7v-0.8c0-0.5,0.2-0.5,0.6-0.5
					v1.5l1.4,0.6c0,0.5-0.2,0.5-0.6,0.5l-0.9-0.3v1.4c0,0.5,0.2,0.7,0.6,0.9l0.3,0.1l0.6,0.2c0,0.5-0.2,0.5-0.6,0.5L120.5,46.2z"/>
			</g>
			<g>
				<path class="st1" d="M101.7,35.9v1.9c0,0.5,0.3,0.8,0.6,0.9v-3.3C102,35.4,101.7,35.6,101.7,35.9"/>
			</g>
			<g>
				<path class="st1" d="M100.3,37.3c-0.5-0.1-0.6-0.5-0.6-0.9v-1.9c-0.3-0.1-0.6,0.1-0.6,0.5v1.4c0,0.7,0.5,1.5,1.1,1.8l0.8,0.3
					c0.3,0.1,0.6-0.1,0.6-0.5L100.3,37.3z"/>
			</g>
			<g>
				<path class="st1" d="M112.6,40.3v1.4c0,0.5-0.2,0.5-0.6,0.5l-0.9-0.3v-2.6c-0.3-0.1-0.6,0.1-0.6,0.5v1.9c0,0.5,0.2,0.8,0.6,0.9
					l0.9,0.3c0.6,0.3,1.1,0,1.1-0.8l0,0v-2C112.8,39.8,112.6,40,112.6,40.3 M109.5,41.1c-0.5-0.1-0.6-0.5-0.6-0.9v-1.9
					c-0.3-0.1-0.6,0.1-0.6,0.5v1.4c0,0.7,0.5,1.5,1.1,1.8l0.5,0.2c0.3,0.1,0.6-0.1,0.6-0.5L109.5,41.1z"/>
			</g>
			<g>
				<path class="st1" d="M106,38.3c-0.3-0.1-0.6,0.1-0.6,0.5v-0.6c0-0.5,0.2-0.6,0.6-0.5l1,0.5c0.5,0.1,0.6,0.5,0.6,0.9L106,38.3z
					 M108,39.2c0-0.7-0.5-1.5-1.1-1.8l-1-0.5c-0.7-0.3-1.1,0.1-1.1,0.8v0.6c0,0.7,0.5,1.5,1.1,1.8l1.4,0.5c0.3,0.1,0.6-0.1,0.6-0.5
					l-1.8-0.8c-0.5-0.1-0.6-0.5-0.6-0.9l2.1,0.9C107.8,39.7,108,39.6,108,39.2"/>
			</g>
			<g>
				<path class="st1" d="M114.6,41.8c-0.3-0.1-0.6,0.1-0.6,0.5v-0.7c0-0.5,0.2-0.6,0.6-0.5l1,0.5c0.5,0.1,0.6,0.5,0.6,0.9
					L114.6,41.8z M116.7,42.7c0-0.7-0.5-1.5-1.1-1.8l-1-0.5c-0.7-0.3-1.1,0.1-1.1,0.8v0.7c0,0.7,0.5,1.5,1.1,1.8l1.4,0.5
					c0.3,0.1,0.6-0.1,0.6-0.5l-1.8-0.8c-0.5-0.1-0.6-0.5-0.6-0.9l2.1,0.9C116.5,43.2,116.7,43.1,116.7,42.7"/>
			</g>
			<g>
				<path class="st1" d="M122.7,45.1c-0.3-0.1-0.6,0.1-0.6,0.5V45c0-0.5,0.2-0.6,0.6-0.5l1,0.5c0.5,0.1,0.6,0.5,0.6,0.9L122.7,45.1z
					 M124.8,46c0-0.7-0.5-1.5-1.1-1.8l-1-0.5c-0.7-0.3-1.1,0.1-1.1,0.8v0.8c0,0.7,0.5,1.5,1.1,1.8l1.4,0.5c0.3,0.1,0.6-0.1,0.6-0.5
					l-1.9-0.8c-0.5-0.1-0.6-0.5-0.6-0.9l2.1,0.9C124.5,46.6,124.8,46.4,124.8,46"/>
			</g>
			<g>
				<path class="st1" d="M128.3,45.9v-0.6l0,0c0,0,0,0,0.1,0l0.2,0.1c0,0,0.1,0,0.1,0.1s0,0.1,0,0.2c0,0.1-0.1,0.1-0.1,0.1l0,0
					l0.2,0.3h-0.1l-0.1-0.2c0,0,0,0,0-0.1l0,0h0.1c0,0,0,0,0.1,0l0,0v-0.1l0,0c0,0,0,0-0.1,0l-0.1-0.1l0,0l0,0L128.3,45.9
					L128.3,45.9z M128.2,45.9c0.1,0.1,0.2,0.2,0.3,0.2c0.1,0,0.2,0.1,0.3,0c0.1-0.1,0.1-0.2,0.1-0.3c0-0.1,0-0.2-0.1-0.3
					c-0.1-0.1-0.2-0.2-0.3-0.2c-0.1,0-0.2-0.1-0.3,0c-0.1,0.1-0.1,0.2-0.1,0.3C128.1,45.6,128.1,45.8,128.2,45.9 M128.1,45.1
					c0.1-0.1,0.2,0,0.3,0c0.1,0,0.2,0.1,0.3,0.2c0.1,0.1,0.1,0.3,0.1,0.5c0,0.1,0,0.3-0.1,0.3c-0.1,0.1-0.2,0-0.3,0
					c-0.1,0-0.2-0.1-0.3-0.2c-0.1-0.1-0.1-0.3-0.1-0.5S128.1,45.2,128.1,45.1"/>
			</g>
		</g>
		<g>
			<g>
				<rect x="8.3" y="41.7" class="st1" width="1" height="115.9"/>
			</g>
			<g>
				<rect x="18.9" y="37.4" class="st1" width="1" height="116.1"/>
			</g>
			<g>
				<rect x="29.5" y="33.1" class="st1" width="1" height="116.1"/>
			</g>
			<g>
				<rect x="40" y="28.7" class="st1" width="1" height="116.1"/>
			</g>
			<g>
				<rect x="50.5" y="24.4" class="st1" width="1" height="116.1"/>
			</g>
			<g>
				<rect x="61.1" y="20.1" class="st1" width="1" height="116.2"/>
			</g>
			<g>
				<rect x="71.6" y="15.8" class="st1" width="1" height="116.2"/>
			</g>
			<g>
				<rect x="82.2" y="11.3" class="st1" width="1" height="116.2"/>
			</g>
			<g>
				<rect x="92.7" y="7" class="st1" width="1" height="116.2"/>
			</g>
		</g>
		<g>
			<g>
				<g>
					<polygon class="st1" points="8.6,41.5 93.3,6.6 93.7,7.5 9,42.4 					"/>
				</g>
				<g>
					<polygon class="st1" points="8.6,52 93.3,17.1 93.7,18 9,52.9 					"/>
				</g>
				<g>
					<polygon class="st1" points="8.6,62.7 93.3,27.7 93.7,28.7 9,63.6 					"/>
				</g>
				<g>
					<polygon class="st1" points="8.6,73.1 93.2,38.2 93.6,39.2 9,74 					"/>
				</g>
				<g>
					<polygon class="st1" points="8.6,83.8 93.2,48.8 93.6,49.8 9,84.7 					"/>
				</g>
				<g>
					<polygon class="st1" points="8.6,94.3 93.3,59.4 93.6,60.3 9,95.2 					"/>
				</g>
				<g>
					<polygon class="st1" points="8.7,104.8 93.3,69.9 93.7,70.9 9,105.7 					"/>
				</g>
				<g>
					<polygon class="st1" points="8.7,115.3 93.3,80.5 93.6,81.4 9,116.2 					"/>
				</g>
				<g>
					<polygon class="st1" points="8.7,125.9 93.2,91.1 93.6,92 9,126.8 					"/>
				</g>
				<g>
					<polygon class="st1" points="8.7,136.5 93.2,101.7 93.6,102.6 9,137.4 					"/>
				</g>
				<g>
					<polygon class="st1" points="8.7,147 93.3,112.2 93.6,113.2 9,147.9 					"/>
				</g>
				<g>
					<polygon class="st1" points="8.7,157.5 93.2,122.7 93.6,123.6 9,158.4 					"/>
				</g>
			</g>
		</g>
		<g>
			<polygon class="st13" points="19.5,122.3 93.4,91.7 132.3,106.9 58,138 			"/>
			<path class="st1" d="M58,138.6c-0.1,0-0.1,0-0.2,0l-38.5-15.8c-0.2-0.1-0.3-0.3-0.3-0.5c0-0.1,0.1-0.5,0.3-0.5l73.9-30.6
				c0.1-0.1,0.3-0.1,0.5,0l38.8,15.2c0.2,0.1,0.3,0.3,0.3,0.5c0,0.1-0.1,0.5-0.3,0.5l-74.2,31.2C58.2,138.6,58.1,138.6,58,138.6z
				 M20.9,122.3L58,137.4l72.7-30.5L93.3,92.1L20.9,122.3z"/>
		</g>
		<g>
			<path class="st13" d="M112.7,109.9l-46.2,18.8c-6.1,2.5-16.8,2.2-23.8-0.8l0,0c-6.9-2.9-7.6-7.4-1.5-9.9l46.2-18.8
				c3.8-1.5,10.4-1.4,14.5,0.5l9.7,4.1C116.1,105.7,116.5,108.5,112.7,109.9z"/>
			<path class="st1" d="M56.3,131c-4.8,0-9.8-0.8-13.8-2.5c-3.9-1.6-6-3.9-6-6c0-1.9,1.6-3.6,4.5-4.9l46.4-18.8
				c3.9-1.6,10.6-1.4,15,0.5l9.7,4.1c2.5,1,3.8,2.4,3.8,4c0,1.4-1,2.4-2.9,3.2l0,0l-46.2,18.8C63.9,130.4,60.2,131,56.3,131z
				 M93.8,98.7c-2.3,0-4.5,0.3-6.1,1l-46.2,18.8c-2.5,1-3.9,2.4-3.9,3.9c0,1.8,1.9,3.6,5.4,5c6.9,2.9,17.4,3.2,23.3,0.8l46.2-18.8
				c1.5-0.6,2.3-1.4,2.3-2.3c0-1-1.2-2.2-3.2-2.9l-9.7-4.1C99.6,99.3,96.7,98.7,93.8,98.7z"/>
		</g>
		<g>
			
				<ellipse transform="matrix(0.1266 -0.992 0.992 0.1266 -79.7513 164.7118)" class="st13" cx="53.7" cy="127.6" rx="1.2" ry="2.4"/>
			<path class="st1" d="M54.2,129.4c-0.2,0-0.5,0-0.7,0c-1.7-0.2-2.9-1.1-2.7-2c0-0.3,0.2-0.9,1.2-1.2c0.6-0.2,1.4-0.2,2-0.1
				c1.7,0.2,2.9,1.1,2.7,2c0,0.3-0.2,0.9-1.2,1.2C55.2,129.3,54.6,129.4,54.2,129.4z M53.2,126.9c-0.5,0-0.7,0-1,0.1
				c-0.3,0.1-0.5,0.2-0.5,0.3l0,0c0,0.2,0.6,0.7,1.8,0.9c0.6,0.1,1.1,0,1.5-0.1s0.5-0.2,0.5-0.3c0-0.2-0.6-0.7-1.8-0.9
				C53.6,126.9,53.3,126.9,53.2,126.9z"/>
		</g>
		<g>
			<g class="st2">
				<polygon class="st12" points="131.7,118.5 91.7,134.8 91.7,48.6 131.7,32.3 				"/>
				<path class="st1" d="M91.7,135.3c-0.1,0-0.2,0-0.3-0.1c-0.1-0.1-0.2-0.3-0.2-0.5V48.6c0-0.2,0.1-0.5,0.3-0.5l40.2-16.3
					c0.2-0.1,0.3,0,0.5,0.1c0.1,0.1,0.2,0.3,0.2,0.5v86.1c0,0.2-0.1,0.5-0.3,0.5l-40,16.3C91.8,135.3,91.7,135.3,91.7,135.3z
					 M92.3,49v85l39-15.9v-85L92.3,49z"/>
			</g>
		</g>
		<g>
			<g>
				<polygon class="st13" points="57.7,169.5 132.1,138.4 132.1,106.9 57.7,138 				"/>
				<path class="st1" d="M57.7,170c-0.1,0-0.2,0-0.3-0.1s-0.2-0.3-0.2-0.5V138c0-0.2,0.1-0.5,0.3-0.5l74.2-31.2c0.2-0.1,0.3,0,0.5,0
					c0.1,0.1,0.2,0.3,0.2,0.5v31.4c0,0.2-0.1,0.5-0.3,0.5L58,170C58,170,57.9,170,57.7,170z M58.4,138.5v30.4l73.2-30.7v-30.4
					L58.4,138.5z"/>
			</g>
			<g>
				<polygon class="st13" points="19.3,153.8 57.7,169.5 57.7,138 19.3,122.3 				"/>
				<path class="st1" d="M57.7,170c-0.1,0-0.1,0-0.2,0l-38.5-15.8c-0.2-0.1-0.3-0.3-0.3-0.5v-31.4c0-0.2,0.1-0.3,0.2-0.5
					c0.1-0.1,0.3-0.1,0.5,0l38.5,15.6c0.2,0.1,0.3,0.3,0.3,0.5v31.4c0,0.2-0.1,0.3-0.2,0.5C58,170,57.9,170,57.7,170z M19.8,153.5
					l37.6,15.3v-30.4l-37.6-15.3L19.8,153.5z"/>
			</g>
		</g>
	</g>
</g>
</svg>
