<?xml version="1.0" encoding="utf-8"?>
<!-- Generator: Adobe Illustrator 23.1.0, SVG Export Plug-In . SVG Version: 6.00 Build 0)  -->
<svg version="1.1" id="Слой_1" xmlns="http://www.w3.org/2000/svg" xmlns:xlink="http://www.w3.org/1999/xlink" x="0px" y="0px"
	 width="150px" height="210px" viewBox="0 0 150 210" style="enable-background:new 0 0 150 210;" xml:space="preserve">
<style type="text/css">
	.st0{fill:#E1E2E1;}
	.st1{fill:#868686;}
	.st2{opacity:0.8;enable-background:new    ;}
	.st3{fill:#BACCD9;}
	.st4{opacity:0.7;enable-background:new    ;}
	.st5{fill-rule:evenodd;clip-rule:evenodd;fill:#E1E2E2;}
	.st6{fill:#878787;}
	.st7{fill:#E1E2E2;}
	.st8{fill-rule:evenodd;clip-rule:evenodd;fill:#BACDDA;}
	.st9{opacity:0.8;}
	.st10{fill-rule:evenodd;clip-rule:evenodd;fill:#BACDDA;stroke:#878787;stroke-miterlimit:10;}
	.st11{fill-rule:evenodd;clip-rule:evenodd;fill:#E1E2E1;}
	.st12{fill-rule:evenodd;clip-rule:evenodd;fill:#BACCD9;}
	.st13{fill-rule:evenodd;clip-rule:evenodd;fill:#FFFFFF;}
	.st14{fill:#FFFFFF;}
	.st15{fill:#BACDDA;}
	.st16{fill:none;}
	
		.st17{fill-rule:evenodd;clip-rule:evenodd;fill:#E1E2E1;stroke:#868686;stroke-linecap:round;stroke-linejoin:round;stroke-miterlimit:10;}
	
		.st18{fill-rule:evenodd;clip-rule:evenodd;fill:#E1E2E1;stroke:#868686;stroke-width:1.5;stroke-linecap:round;stroke-linejoin:round;stroke-miterlimit:10;}
</style>
<g>
	<g>
		<g>
			<g>
				<polygon class="st11" points="11.4,187.5 75,161.9 75,9.2 11.4,34.9 				"/>
				<path class="st1" d="M11.4,188.2c-0.1,0-0.2,0-0.3-0.1c-0.2-0.1-0.3-0.3-0.3-0.5V35c0-0.3,0.2-0.5,0.4-0.6L74.8,8.6
					c0.2-0.1,0.4-0.1,0.6,0.1c0.2,0.1,0.3,0.3,0.3,0.5v152.7c0,0.3-0.2,0.5-0.4,0.6l-63.6,25.7C11.6,188.1,11.5,188.2,11.4,188.2z
					 M12,35.3v151.4l62.4-25.2V10.1L12,35.3z"/>
			</g>
			<g>
				<g>
					<polygon class="st1" points="11.2,187 74.8,161.3 75.2,162.4 11.6,188.1 					"/>
				</g>
				<g>
					<polygon class="st1" points="11.2,173.2 74.8,147.5 75.2,148.6 11.6,174.3 					"/>
				</g>
				<g>
					<polygon class="st1" points="11.2,159.3 74.8,133.5 75.2,134.7 11.6,160.4 					"/>
				</g>
				<g>
					<polygon class="st1" points="11.2,145.4 74.8,119.7 75.2,120.8 11.6,146.5 					"/>
				</g>
				<g>
					<polygon class="st1" points="11.1,131.5 74.8,105.8 75.2,106.9 11.6,132.6 					"/>
				</g>
				<g>
					<polygon class="st1" points="11.2,117.7 74.8,91.9 75.2,93.1 11.6,118.8 					"/>
				</g>
				<g>
					<polygon class="st1" points="11.1,103.7 74.8,78 75.2,79.1 11.6,104.8 					"/>
				</g>
				<g>
					<polygon class="st1" points="11.2,89.9 74.8,64.2 75.2,65.3 11.6,91 					"/>
				</g>
				<g>
					<polygon class="st1" points="11.1,76 74.8,50.2 75.2,51.4 11.6,77.1 					"/>
				</g>
				<g>
					<polygon class="st1" points="11.2,62.1 74.8,36.4 75.2,37.5 11.6,63.2 					"/>
				</g>
				<g>
					<polygon class="st1" points="11.1,48.2 74.8,22.5 75.2,23.6 11.6,49.3 					"/>
				</g>
				<g>
					<polygon class="st1" points="11.2,34.4 74.8,8.6 75.2,9.8 11.6,35.5 					"/>
				</g>
			</g>
			<g>
				<g>
					<rect x="74.4" y="9.2" class="st1" width="1.2" height="152.7"/>
				</g>
				<g>
					<rect x="61.7" y="14.3" class="st1" width="1.2" height="152.7"/>
				</g>
				<g>
					<rect x="48.9" y="19.4" class="st1" width="1.2" height="152.7"/>
				</g>
				<g>
					<rect x="36.2" y="24.7" class="st1" width="1.2" height="152.7"/>
				</g>
				<g>
					<rect x="23.5" y="29.8" class="st1" width="1.2" height="152.7"/>
				</g>
				<g>
					<rect x="10.8" y="34.9" class="st1" width="1.2" height="152.7"/>
				</g>
			</g>
		</g>
		<g>
			<g>
				<polygon class="st11" points="138.6,187.5 75,161.9 75,9.2 138.6,34.9 				"/>
				<path class="st1" d="M138.6,188.2c-0.1,0-0.2,0-0.2,0l-63.6-25.7c-0.2-0.1-0.4-0.3-0.4-0.6V9.3c0-0.2,0.1-0.4,0.3-0.5
					c0.2-0.1,0.4-0.1,0.6-0.1l63.6,25.7c0.2,0.1,0.4,0.3,0.4,0.6v152.7c0,0.2-0.1,0.4-0.3,0.5C138.9,188.1,138.8,188.2,138.6,188.2z
					 M75.6,161.5l62.4,25.2V35.3L75.6,10.1V161.5z"/>
			</g>
			<g>
				<g>
					<polygon class="st1" points="74.7,162.5 75.2,161.4 138.8,187 138.4,188.2 					"/>
				</g>
				<g>
					<polygon class="st1" points="74.8,148.6 75.2,147.5 138.9,173.2 138.4,174.3 					"/>
				</g>
				<g>
					<polygon class="st1" points="74.8,134.7 75.2,133.6 138.8,159.3 138.4,160.4 					"/>
				</g>
				<g>
					<polygon class="st1" points="74.8,120.8 75.2,119.7 138.9,145.4 138.4,146.5 					"/>
				</g>
				<g>
					<polygon class="st1" points="74.7,106.9 75.2,105.8 138.8,131.5 138.4,132.6 					"/>
				</g>
				<g>
					<polygon class="st1" points="74.8,93.1 75.2,92 138.9,117.7 138.4,118.8 					"/>
				</g>
				<g>
					<polygon class="st1" points="74.7,79.2 75.2,78.1 138.8,103.8 138.4,104.9 					"/>
				</g>
				<g>
					<polygon class="st1" points="74.8,65.3 75.2,64.2 138.9,89.9 138.4,91 					"/>
				</g>
				<g>
					<polygon class="st1" points="74.7,51.4 75.2,50.3 138.8,76 138.4,77.1 					"/>
				</g>
				<g>
					<polygon class="st1" points="74.8,37.5 75.2,36.4 138.9,62.1 138.4,63.3 					"/>
				</g>
				<g>
					<polygon class="st1" points="74.8,23.7 75.3,22.6 138.9,48.3 138.5,49.4 					"/>
				</g>
				<g>
					<polygon class="st1" points="74.8,9.8 75.2,8.7 138.8,34.4 138.4,35.5 					"/>
				</g>
			</g>
			<g>
				<g>
					<rect x="74.4" y="9.2" class="st1" width="1.2" height="152.7"/>
				</g>
				<g>
					<rect x="87.1" y="14.3" class="st1" width="1.2" height="152.7"/>
				</g>
				<g>
					<rect x="99.8" y="19.4" class="st1" width="1.2" height="152.7"/>
				</g>
				<g>
					<rect x="112.6" y="24.7" class="st1" width="1.2" height="152.7"/>
				</g>
				<g>
					<rect x="125.3" y="29.8" class="st1" width="1.2" height="152.7"/>
				</g>
				<g>
					<rect x="138" y="34.9" class="st1" width="1.2" height="152.7"/>
				</g>
			</g>
		</g>
	</g>
	<g>
		<polygon class="st11" points="0.6,183.3 11.5,187.6 11.5,35 0.6,30.6 		"/>
		<path class="st1" d="M11.5,188.2c-0.1,0-0.2,0-0.2,0l-10.8-4.4c-0.2-0.1-0.4-0.3-0.4-0.6V30.6c0-0.2,0.1-0.4,0.3-0.5S0.8,30,1,30
			l10.8,4.4c0.2,0.1,0.4,0.3,0.4,0.6v152.7c0,0.2-0.1,0.4-0.3,0.5C11.7,188.2,11.6,188.2,11.5,188.2z M1.2,182.8l9.6,3.9V35.4
			l-9.6-3.9L1.2,182.8z"/>
	</g>
	<g>
		<polygon class="st11" points="138.5,35 149.3,30.6 149.3,183.3 138.5,187.6 		"/>
		<path class="st1" d="M138.5,188.2c-0.1,0-0.2,0-0.3-0.1c-0.2-0.1-0.3-0.3-0.3-0.5V35c0-0.3,0.2-0.5,0.4-0.6l10.8-4.4
			c0.2-0.1,0.4-0.1,0.6,0.1c0.2,0.1,0.3,0.3,0.3,0.5v152.7c0,0.3-0.2,0.5-0.4,0.6l-10.8,4.4C138.7,188.2,138.6,188.2,138.5,188.2z
			 M139.1,35.4v151.4l9.6-3.9V31.5L139.1,35.4z"/>
	</g>
	<g>
		<polygon class="st11" points="75,9.2 138.7,34.9 149.4,30.6 75,0.6 0.7,30.6 11.4,34.9 		"/>
		<path class="st1" d="M138.7,35.5c-0.1,0-0.2,0-0.2,0L75,9.9L11.6,35.5c-0.1,0.1-0.3,0.1-0.5,0L0.4,31.2C0.2,31.1,0,30.9,0,30.6
			c0-0.3,0.2-0.5,0.4-0.6L74.8,0c0.1,0,0.3,0,0.4,0l74.4,30c0.2,0.1,0.4,0.3,0.4,0.6c0,0.3-0.2,0.5-0.4,0.6l-10.7,4.3
			C138.8,35.5,138.7,35.5,138.7,35.5z M75,8.6c0.1,0,0.2,0,0.2,0l63.4,25.6l9.1-3.6L75,1.3L2.3,30.6l9,3.6L74.8,8.7
			C74.9,8.6,74.9,8.6,75,8.6z"/>
	</g>
	<g>
		<polygon class="st0" points="124.3,69.8 76.6,50.7 76.7,38.3 124.3,57.5 		"/>
	</g>
	<g>
		<g>
			<path class="st1" d="M81.6,44.6l-1.9-0.8c-0.9-0.4-1.5,0.1-1.5,1.1v0.9c0,1,0.6,2,1.5,2.3l1.1,0.5l0,0c0.4,0.2,0.8-0.1,0.8-0.6
				l-1.9-0.8c-0.5-0.2-0.8-0.7-0.8-1.2v-0.9c0-0.5,0.3-0.7,0.8-0.6l1.9,0.8v3.9c0,0.5-0.3,0.7-0.8,0.6l-1.1-0.5
				c-0.4-0.2-0.8,0.1-0.8,0.6l0.8,0.3l1.1,0.5c0.9,0.4,1.5-0.1,1.5-1.1v-3.9C82.4,45.2,82.1,44.7,81.6,44.6"/>
		</g>
		<g>
			<path class="st1" d="M118.7,59.6c-0.9-0.4-1.5,0.1-1.5,1.1v1.7c0,0.5,0.3,1,0.8,1.2V61c0-0.5,0.3-0.7,0.8-0.6l0.9,0.4
				c0.4,0.2,0.8-0.1,0.8-0.6L118.7,59.6z"/>
		</g>
		<g>
			<path class="st1" d="M88.9,50.9c-0.5-0.2-0.8-0.7-0.8-1.2V48l1.1,0.5c0.4,0.2,0.8-0.1,0.8-0.6l-1.9-0.8v-1.9
				c-0.4-0.2-0.8,0.1-0.8,0.6v3.7c0,1,0.6,2,1.5,2.3l0.4,0.1c0.4,0.2,0.8-0.1,0.8-0.6L88.9,50.9z"/>
		</g>
		<g>
			<path class="st1" d="M111,60.8c-0.9-0.4-1.5-1.4-1.5-2.3v-1.7l-2.3-0.9v1.7c0,0.5,0.3,1,0.8,1.2l1.1,0.5c0,0.5-0.3,0.7-0.8,0.6
				l-0.4-0.1c-0.9-0.4-1.5-1.4-1.5-2.3v-3.7c0-0.5,0.3-0.7,0.8-0.6v1.9l2.3,0.9v-1.1c0-0.5,0.3-0.7,0.8-0.6v1.9l1.9,0.8
				c0,0.5-0.3,0.7-0.8,0.6l-1.1-0.5v1.7c0,0.5,0.3,1,0.8,1.2l0.4,0.1l0.8,0.3c0,0.5-0.3,0.7-0.8,0.6L111,60.8z"/>
		</g>
		<g>
			<path class="st1" d="M86.1,47.2v2.6c0,0.5,0.3,1,0.8,1.2v-4.3C86.4,46.5,86.1,46.7,86.1,47.2"/>
		</g>
		<g>
			<path class="st1" d="M84.3,49.1c-0.5-0.2-0.8-0.7-0.8-1.2v-2.6c-0.4-0.2-0.8,0.1-0.8,0.6v1.7c0,1,0.6,2,1.5,2.3l1,0.4
				c0.4,0.2,0.8-0.1,0.8-0.6L84.3,49.1z"/>
		</g>
		<g>
			<path class="st1" d="M100.5,53.1v1.7c0,0.5-0.3,0.7-0.8,0.6l-1.1-0.5v-3.4c-0.4-0.2-0.8,0.1-0.8,0.6v2.6c0,0.5,0.3,1,0.8,1.2
				l1.1,0.5c0.8,0.3,1.5,0,1.5-1.1l0,0v-2.6C100.8,52.4,100.5,52.6,100.5,53.1 M96.5,54.1c-0.5-0.2-0.8-0.7-0.8-1.2v-2.6
				c-0.3-0.2-0.7,0.1-0.7,0.6v1.7c0,1,0.6,2,1.5,2.3l0.6,0.2c0.4,0.2,0.8-0.1,0.8-0.6L96.5,54.1z"/>
		</g>
		<g>
			<path class="st1" d="M91.8,50.4C91.4,50.2,91,50.5,91,51v-0.9c0-0.5,0.3-0.7,0.8-0.6l1.3,0.5c0.5,0.2,0.8,0.7,0.8,1.2L91.8,50.4z
				 M94.6,51.5c0-1-0.6-2-1.5-2.3l-1.3-0.5c-0.9-0.4-1.5,0.1-1.5,1.1v0.9c0,1,0.6,2,1.5,2.3l1.7,0.7c0.4,0.2,0.8-0.1,0.8-0.6l-2.5-1
				c-0.5-0.2-0.8-0.7-0.8-1.2l2.8,1.2C94.3,52.3,94.6,52,94.6,51.5"/>
		</g>
		<g>
			<path class="st1" d="M103.2,55c-0.4-0.2-0.8,0.1-0.8,0.6v-0.9c0-0.5,0.3-0.7,0.8-0.6l1.3,0.5c0.5,0.2,0.8,0.7,0.8,1.2L103.2,55z
				 M106.1,56.2c0-1-0.6-2-1.5-2.3l-1.3-0.5c-0.9-0.4-1.5,0.1-1.5,1.1v0.9c0,1,0.6,2,1.5,2.3l1.7,0.7c0.4,0.2,0.8-0.1,0.8-0.6
				l-2.5-1c-0.5-0.2-0.8-0.7-0.8-1.2l2.8,1.2C105.7,56.9,106.1,56.7,106.1,56.2"/>
		</g>
		<g>
			<path class="st1" d="M113.9,59.4c-0.4-0.2-0.8,0.1-0.8,0.6v-0.9c0-0.5,0.3-0.7,0.8-0.6l1.3,0.5c0.5,0.2,0.8,0.7,0.8,1.2
				L113.9,59.4z M116.8,60.5c0-1-0.6-2-1.5-2.3l-1.3-0.5c-0.9-0.4-1.5,0.1-1.5,1.1v0.9c0,1,0.6,2,1.5,2.3l1.7,0.7
				c0.4,0.2,0.8-0.1,0.8-0.6l-2.5-1c-0.5-0.2-0.8-0.7-0.8-1.2l2.8,1.2C116.4,61.3,116.8,61,116.8,60.5"/>
		</g>
		<g>
			<path class="st1" d="M121.4,60.3v-0.6c0,0,0,0,0-0.1c0-0.1,0,0,0.1,0l0.2,0.1c0,0,0.1,0,0.1,0.1c0,0.1,0.1,0.2,0.1,0.2
				c0,0.2-0.1,0.2-0.1,0.1h-0.1l0.2,0.3h-0.1l-0.2-0.3c0,0,0,0,0-0.1l0,0h0.1h0.1l0,0v-0.1c0,0,0,0,0-0.1c0,0,0,0-0.1,0l-0.2-0.1
				l0,0l0,0L121.4,60.3L121.4,60.3z M121.3,60.2c0.1,0.2,0.2,0.2,0.4,0.3c0.1,0,0.3,0.1,0.4,0c0.1-0.1,0.1-0.2,0.1-0.3
				c0-0.1,0-0.2-0.1-0.4c-0.1-0.2-0.2-0.2-0.4-0.3c-0.1,0-0.3-0.1-0.4,0c-0.1,0.1-0.1,0.2-0.1,0.3C121.2,59.9,121.2,60.1,121.3,60.2
				 M121.2,59.4c0.1-0.1,0.3,0,0.4,0s0.3,0.1,0.4,0.3s0.1,0.4,0.1,0.5c0,0.2,0,0.4-0.1,0.4c-0.1,0.1-0.3,0-0.4-0.1
				c-0.1,0-0.3-0.1-0.4-0.3s-0.1-0.4-0.1-0.5S121.1,59.5,121.2,59.4"/>
		</g>
	</g>
	<g>
		<g class="st2">
			<polygon class="st12" points="125.8,183.6 62.5,209.4 62.5,69.5 125.8,43.7 			"/>
			<path class="st1" d="M62.5,210c-0.1,0-0.2,0-0.3-0.1c-0.2-0.1-0.3-0.3-0.3-0.5V69.5c0-0.3,0.2-0.5,0.4-0.6l63.3-25.7
				c0.2-0.1,0.4-0.1,0.6,0.1c0.2,0.1,0.3,0.3,0.3,0.5v139.9c0,0.3-0.2,0.5-0.4,0.6L62.8,210C62.7,210,62.6,210,62.5,210z M63.1,69.9
				v138.6l62.1-25.2V44.7L63.1,69.9z"/>
		</g>
	</g>
</g>
<rect y="30" class="st16" width="150" height="150"/>
</svg>
