<svg id="Layer_1" data-name="Layer 1" xmlns="http://www.w3.org/2000/svg" width="131.3" height="178.64" viewBox="0 0 131.3 178.64">
  <defs>
    <style>
      .cls-1 {
        fill: none;
      }

      .cls-1, .cls-2, .cls-3 {
        stroke: #000;
        stroke-miterlimit: 22.93;
        stroke-width: 0.5px;
      }

      .cls-2 {
        fill: #e1e1e1;
      }

      .cls-2, .cls-3 {
        fill-rule: evenodd;
      }

      .cls-3 {
        fill: #baccd9;
        fill-opacity: 0.8;
        stroke-opacity: 0.8;
      }
    </style>
  </defs>
  <title>i-form2</title>
  <g id="Видимый_контур_ГОСТ_" data-name="Видимый контур ГОСТ ">
    <g id="_2666788823504" data-name=" 2666788823504">
      <line class="cls-1" x1="121.55" y1="30.97" x2="65.65" y2="7.87"/>
      <line class="cls-1" x1="9.75" y1="30.97" x2="65.65" y2="7.87"/>
      <line class="cls-1" x1="9.75" y1="152.67" x2="65.65" y2="129.57"/>
      <line class="cls-1" x1="9.75" y1="140.47" x2="65.65" y2="117.37"/>
      <line class="cls-1" x1="9.75" y1="128.27" x2="65.65" y2="105.17"/>
      <line class="cls-1" x1="9.75" y1="116.17" x2="65.65" y2="93.07"/>
      <line class="cls-1" x1="9.75" y1="103.97" x2="65.65" y2="80.87"/>
      <line class="cls-1" x1="9.75" y1="91.77" x2="65.65" y2="68.67"/>
      <line class="cls-1" x1="9.75" y1="79.57" x2="65.65" y2="56.57"/>
      <line class="cls-1" x1="9.75" y1="67.47" x2="65.65" y2="44.37"/>
      <line class="cls-1" x1="9.75" y1="55.27" x2="65.65" y2="32.17"/>
      <line class="cls-1" x1="9.75" y1="43.07" x2="65.65" y2="19.97"/>
      <line class="cls-1" x1="9.75" y1="164.77" x2="9.75" y2="30.97"/>
      <line class="cls-1" x1="121.55" y1="164.77" x2="121.55" y2="30.97"/>
      <line class="cls-1" x1="65.65" y1="141.67" x2="65.65" y2="7.87"/>
      <line class="cls-1" x1="99.15" y1="155.57" x2="99.15" y2="21.67"/>
      <line class="cls-1" x1="76.85" y1="146.37" x2="76.85" y2="12.47"/>
      <line class="cls-1" x1="87.95" y1="150.97" x2="87.95" y2="17.07"/>
      <line class="cls-1" x1="110.35" y1="160.17" x2="110.35" y2="26.27"/>
      <line class="cls-1" x1="121.55" y1="164.77" x2="65.65" y2="141.67"/>
      <line class="cls-1" x1="121.55" y1="152.67" x2="65.65" y2="129.57"/>
      <line class="cls-1" x1="121.55" y1="140.47" x2="65.65" y2="117.37"/>
      <line class="cls-1" x1="121.55" y1="128.27" x2="65.65" y2="105.17"/>
      <line class="cls-1" x1="121.55" y1="116.17" x2="65.65" y2="93.07"/>
      <line class="cls-1" x1="121.55" y1="103.97" x2="65.65" y2="80.87"/>
      <line class="cls-1" x1="121.55" y1="91.77" x2="65.65" y2="68.67"/>
      <line class="cls-1" x1="121.55" y1="79.57" x2="65.65" y2="56.57"/>
      <line class="cls-1" x1="121.55" y1="67.47" x2="65.65" y2="44.37"/>
      <line class="cls-1" x1="121.55" y1="55.27" x2="65.65" y2="32.17"/>
      <line class="cls-1" x1="121.55" y1="43.07" x2="65.65" y2="19.97"/>
      <line class="cls-1" x1="9.75" y1="164.77" x2="65.65" y2="141.67"/>
      <line class="cls-1" x1="9.75" y1="30.97" x2="0.65" y2="27.17"/>
      <line class="cls-1" x1="9.75" y1="164.77" x2="0.65" y2="161.07"/>
      <line class="cls-1" x1="121.55" y1="164.77" x2="130.65" y2="161.07"/>
      <line class="cls-1" x1="121.55" y1="30.97" x2="130.65" y2="27.17"/>
      <line class="cls-1" x1="130.65" y1="161.07" x2="130.65" y2="27.17"/>
      <line class="cls-1" x1="0.65" y1="161.07" x2="0.65" y2="27.17"/>
      <line class="cls-1" x1="0.65" y1="27.17" x2="65.65" y2="0.27"/>
      <line class="cls-1" x1="130.65" y1="27.17" x2="65.65" y2="0.27"/>
      <line class="cls-1" x1="43.35" y1="150.97" x2="43.35" y2="17.07"/>
      <line class="cls-1" x1="20.95" y1="160.17" x2="20.95" y2="26.27"/>
      <line class="cls-1" x1="32.15" y1="155.57" x2="32.15" y2="21.67"/>
      <line class="cls-1" x1="54.45" y1="146.37" x2="54.45" y2="12.47"/>
      <polygon class="cls-2" points="99.15 21.67 110.35 26.27 121.55 30.97 130.65 27.17 65.65 0.27 0.65 27.17 9.75 30.97 20.95 26.27 32.15 21.67 43.35 17.07 54.45 12.47 65.65 7.87 76.85 12.47 87.95 17.07 99.15 21.67"/>
      <polygon class="cls-2" points="110.35 26.27 99.15 21.67 99.15 33.87 110.35 38.47 110.35 26.27"/>
      <polygon class="cls-2" points="110.35 26.27 110.35 38.47 121.55 43.07 121.55 30.97 110.35 26.27"/>
      <polygon class="cls-2" points="121.55 30.97 121.55 43.07 121.55 55.27 121.55 67.47 121.55 79.57 121.55 91.77 121.55 103.97 121.55 116.17 121.55 128.27 121.55 140.47 121.55 152.67 121.55 164.77 130.65 161.07 130.65 27.17 121.55 30.97"/>
      <polygon class="cls-2" points="121.55 43.07 110.35 38.47 110.35 50.67 121.55 55.27 121.55 43.07"/>
      <polygon class="cls-2" points="121.55 55.27 110.35 50.67 110.35 62.87 121.55 67.47 121.55 55.27"/>
      <polygon class="cls-2" points="110.35 62.87 110.35 50.67 99.15 46.07 99.15 58.17 110.35 62.87"/>
      <polygon class="cls-2" points="99.15 46.07 110.35 50.67 110.35 38.47 99.15 33.87 99.15 46.07"/>
      <polygon class="cls-2" points="87.95 29.27 99.15 33.87 99.15 21.67 87.95 17.07 87.95 29.27"/>
      <polygon class="cls-2" points="87.95 29.27 87.95 17.07 76.85 12.47 76.85 24.67 87.95 29.27"/>
      <polygon class="cls-2" points="76.85 24.67 76.85 12.47 65.65 7.87 65.65 19.97 76.85 24.67"/>
      <polygon class="cls-2" points="76.85 24.67 65.65 19.97 65.65 32.17 76.85 36.77 76.85 24.67"/>
      <polygon class="cls-2" points="76.85 24.67 76.85 36.77 87.95 41.47 87.95 29.27 76.85 24.67"/>
      <polygon class="cls-2" points="87.95 29.27 87.95 41.47 99.15 46.07 99.15 33.87 87.95 29.27"/>
      <polygon class="cls-2" points="99.15 46.07 87.95 41.47 87.95 53.57 99.15 58.17 99.15 46.07"/>
      <polygon class="cls-2" points="87.95 53.57 87.95 41.47 76.85 36.77 76.85 48.97 87.95 53.57"/>
      <polygon class="cls-2" points="76.85 48.97 76.85 36.77 65.65 32.17 65.65 44.37 76.85 48.97"/>
      <polygon class="cls-2" points="76.85 48.97 65.65 44.37 65.65 56.57 76.85 61.17 76.85 48.97"/>
      <polygon class="cls-2" points="76.85 48.97 76.85 61.17 87.95 65.77 87.95 53.57 76.85 48.97"/>
      <polygon class="cls-2" points="87.95 53.57 87.95 65.77 99.15 70.37 99.15 58.17 87.95 53.57"/>
      <polygon class="cls-2" points="99.15 58.17 99.15 70.37 110.35 74.97 110.35 62.87 99.15 58.17"/>
      <polygon class="cls-2" points="110.35 62.87 110.35 74.97 121.55 79.57 121.55 67.47 110.35 62.87"/>
      <polygon class="cls-2" points="121.55 79.57 110.35 74.97 110.35 87.17 121.55 91.77 121.55 79.57"/>
      <polygon class="cls-2" points="110.35 87.17 110.35 74.97 99.15 70.37 99.15 82.57 110.35 87.17"/>
      <polygon class="cls-2" points="99.15 82.57 99.15 70.37 87.95 65.77 87.95 77.97 99.15 82.57"/>
      <polygon class="cls-2" points="87.95 77.97 87.95 65.77 76.85 61.17 76.85 73.27 87.95 77.97"/>
      <polygon class="cls-2" points="76.85 73.27 76.85 61.17 65.65 56.57 65.65 68.67 76.85 73.27"/>
      <polygon class="cls-2" points="121.55 152.67 110.35 147.97 110.35 160.17 121.55 164.77 121.55 152.67"/>
      <polygon class="cls-2" points="54.45 73.27 65.65 68.67 65.65 56.57 54.45 61.17 54.45 73.27"/>
      <polygon class="cls-2" points="54.45 61.17 65.65 56.57 65.65 44.37 54.45 48.97 54.45 61.17"/>
      <polygon class="cls-2" points="54.45 48.97 65.65 44.37 65.65 32.17 54.45 36.77 54.45 48.97"/>
      <polygon class="cls-2" points="54.45 36.77 65.65 32.17 65.65 19.97 54.45 24.67 54.45 36.77"/>
      <polygon class="cls-2" points="54.45 24.67 65.65 19.97 65.65 7.87 54.45 12.47 54.45 24.67"/>
      <polygon class="cls-2" points="20.95 38.47 20.95 26.27 9.75 30.97 9.75 43.07 20.95 38.47"/>
      <polygon class="cls-2" points="20.95 26.27 20.95 38.47 32.15 33.87 32.15 21.67 20.95 26.27"/>
      <polygon class="cls-2" points="32.15 21.67 32.15 33.87 43.35 29.27 43.35 17.07 32.15 21.67"/>
      <polygon class="cls-2" points="43.35 17.07 43.35 29.27 54.45 24.67 54.45 12.47 43.35 17.07"/>
      <polygon class="cls-2" points="54.45 24.67 43.35 29.27 43.35 41.47 54.45 36.77 54.45 24.67"/>
      <polygon class="cls-2" points="43.35 41.47 43.35 29.27 32.15 33.87 32.15 46.07 43.35 41.47"/>
      <polygon class="cls-2" points="32.15 46.07 32.15 33.87 20.95 38.47 20.95 50.67 32.15 46.07"/>
      <polygon class="cls-2" points="20.95 50.67 20.95 38.47 9.75 43.07 9.75 55.27 20.95 50.67"/>
      <polygon class="cls-2" points="20.95 50.67 9.75 55.27 9.75 67.47 20.95 62.87 20.95 50.67"/>
      <polygon class="cls-2" points="20.95 50.67 20.95 62.87 32.15 58.17 32.15 46.07 20.95 50.67"/>
      <polygon class="cls-2" points="32.15 46.07 32.15 58.17 43.35 53.57 43.35 41.47 32.15 46.07"/>
      <polygon class="cls-2" points="43.35 41.47 43.35 53.57 54.45 48.97 54.45 36.77 43.35 41.47"/>
      <polygon class="cls-2" points="54.45 48.97 43.35 53.57 43.35 65.77 54.45 61.17 54.45 48.97"/>
      <polygon class="cls-2" points="43.35 65.77 43.35 53.57 32.15 58.17 32.15 70.37 43.35 65.77"/>
      <polygon class="cls-2" points="32.15 70.37 32.15 58.17 20.95 62.87 20.95 74.97 32.15 70.37"/>
      <polygon class="cls-2" points="20.95 74.97 20.95 62.87 9.75 67.47 9.75 79.57 20.95 74.97"/>
      <polygon class="cls-2" points="20.95 74.97 9.75 79.57 9.75 91.77 20.95 87.17 20.95 74.97"/>
      <polygon class="cls-2" points="20.95 74.97 20.95 87.17 32.15 82.57 32.15 70.37 20.95 74.97"/>
      <polygon class="cls-2" points="32.15 70.37 32.15 82.57 43.35 77.97 43.35 65.77 32.15 70.37"/>
      <polygon class="cls-2" points="43.35 65.77 43.35 77.97 54.45 73.27 54.45 61.17 43.35 65.77"/>
      <polygon class="cls-2" points="54.45 73.27 43.35 77.97 43.35 90.07 54.45 85.47 54.45 73.27"/>
      <polygon class="cls-2" points="54.45 73.27 54.45 85.47 65.65 80.87 65.65 68.67 54.45 73.27"/>
      <polygon class="cls-2" points="54.45 85.47 65.65 80.87 65.65 68.67 54.45 73.27 54.45 85.47"/>
      <polygon class="cls-2" points="65.65 68.67 65.65 80.87 76.85 85.47 76.85 73.27 65.65 68.67"/>
      <polygon class="cls-2" points="76.85 73.27 76.85 85.47 87.95 90.07 87.95 77.97 76.85 73.27"/>
      <polygon class="cls-2" points="87.95 77.97 87.95 90.07 99.15 94.77 99.15 82.57 87.95 77.97"/>
      <polygon class="cls-2" points="99.15 82.57 99.15 94.77 110.35 99.37 110.35 87.17 99.15 82.57"/>
      <polygon class="cls-2" points="110.35 87.17 110.35 99.37 121.55 103.97 121.55 91.77 110.35 87.17"/>
      <polygon class="cls-2" points="121.55 103.97 110.35 99.37 110.35 111.47 121.55 116.17 121.55 103.97"/>
      <polygon class="cls-2" points="110.35 111.47 110.35 99.37 99.15 94.77 99.15 106.87 110.35 111.47"/>
      <polygon class="cls-2" points="99.15 106.87 99.15 94.77 87.95 90.07 87.95 102.27 99.15 106.87"/>
      <polygon class="cls-2" points="87.95 102.27 87.95 90.07 76.85 85.47 76.85 97.67 87.95 102.27"/>
      <polygon class="cls-2" points="76.85 97.67 76.85 85.47 65.65 80.87 65.65 93.07 76.85 97.67"/>
      <polygon class="cls-2" points="65.65 93.07 65.65 80.87 54.45 85.47 54.45 97.67 65.65 93.07"/>
      <polygon class="cls-2" points="54.45 97.67 54.45 85.47 43.35 90.07 43.35 102.27 54.45 97.67"/>
      <polygon class="cls-2" points="43.35 90.07 43.35 77.97 32.15 82.57 32.15 94.77 43.35 90.07"/>
      <polygon class="cls-2" points="43.35 90.07 32.15 94.77 32.15 106.87 43.35 102.27 43.35 90.07"/>
      <polygon class="cls-2" points="32.15 94.77 32.15 82.57 20.95 87.17 20.95 99.37 32.15 94.77"/>
      <polygon class="cls-2" points="32.15 94.77 20.95 99.37 20.95 111.47 32.15 106.87 32.15 94.77"/>
      <polygon class="cls-2" points="20.95 99.37 20.95 87.17 9.75 91.77 9.75 103.97 20.95 99.37"/>
      <polygon class="cls-2" points="20.95 99.37 9.75 103.97 9.75 116.17 20.95 111.47 20.95 99.37"/>
      <polygon class="cls-2" points="20.95 111.47 9.75 116.17 9.75 128.27 20.95 123.67 20.95 111.47"/>
      <polygon class="cls-2" points="20.95 123.67 9.75 128.27 9.75 140.47 20.95 135.87 20.95 123.67"/>
      <polygon class="cls-2" points="20.95 135.87 9.75 140.47 9.75 152.67 20.95 147.97 20.95 135.87"/>
      <polygon class="cls-2" points="20.95 147.97 9.75 152.67 9.75 164.77 20.95 160.17 20.95 147.97"/>
      <polygon class="cls-2" points="20.95 147.97 20.95 160.17 32.15 155.57 32.15 143.37 20.95 147.97"/>
      <polygon class="cls-2" points="20.95 147.97 32.15 143.37 32.15 131.27 20.95 135.87 20.95 147.97"/>
      <polygon class="cls-2" points="20.95 135.87 32.15 131.27 32.15 119.07 20.95 123.67 20.95 135.87"/>
      <polygon class="cls-2" points="20.95 123.67 32.15 119.07 32.15 106.87 20.95 111.47 20.95 123.67"/>
      <polygon class="cls-2" points="32.15 106.87 32.15 119.07 43.35 114.47 43.35 102.27 32.15 106.87"/>
      <polygon class="cls-2" points="43.35 114.47 32.15 119.07 32.15 131.27 43.35 126.57 43.35 114.47"/>
      <polygon class="cls-2" points="43.35 126.57 32.15 131.27 32.15 143.37 43.35 138.77 43.35 126.57"/>
      <polygon class="cls-2" points="43.35 138.77 32.15 143.37 32.15 155.57 43.35 150.97 43.35 138.77"/>
      <polygon class="cls-2" points="43.35 138.77 43.35 150.97 54.45 146.37 54.45 134.17 43.35 138.77"/>
      <polygon class="cls-2" points="43.35 138.77 54.45 134.17 54.45 121.97 43.35 126.57 43.35 138.77"/>
      <polygon class="cls-2" points="43.35 126.57 54.45 121.97 54.45 109.77 43.35 114.47 43.35 126.57"/>
      <polygon class="cls-2" points="43.35 114.47 54.45 109.77 54.45 97.67 43.35 102.27 43.35 114.47"/>
      <polygon class="cls-2" points="54.45 97.67 54.45 109.77 65.65 105.17 65.65 93.07 54.45 97.67"/>
      <polygon class="cls-2" points="65.65 105.17 54.45 109.77 54.45 121.97 65.65 117.37 65.65 105.17"/>
      <polygon class="cls-2" points="65.65 117.37 54.45 121.97 54.45 134.17 65.65 129.57 65.65 117.37"/>
      <polygon class="cls-2" points="65.65 129.57 54.45 134.17 54.45 146.37 65.65 141.67 65.65 129.57"/>
      <polygon class="cls-2" points="65.65 129.57 65.65 141.67 76.85 146.37 76.85 134.17 65.65 129.57"/>
      <polygon class="cls-2" points="76.85 134.17 76.85 146.37 87.95 150.97 87.95 138.77 76.85 134.17"/>
      <polygon class="cls-2" points="87.95 138.77 87.95 150.97 99.15 155.57 99.15 143.37 87.95 138.77"/>
      <polygon class="cls-2" points="99.15 143.37 99.15 155.57 110.35 160.17 110.35 147.97 99.15 143.37"/>
      <polygon class="cls-2" points="110.35 135.87 110.35 147.97 121.55 152.67 121.55 140.47 110.35 135.87"/>
      <polygon class="cls-2" points="110.35 147.97 110.35 135.87 99.15 131.27 99.15 143.37 110.35 147.97"/>
      <polygon class="cls-2" points="99.15 143.37 99.15 131.27 87.95 126.57 87.95 138.77 99.15 143.37"/>
      <polygon class="cls-2" points="87.95 138.77 87.95 126.57 76.85 121.97 76.85 134.17 87.95 138.77"/>
      <polygon class="cls-2" points="76.85 134.17 76.85 121.97 65.65 117.37 65.65 129.57 76.85 134.17"/>
      <polygon class="cls-2" points="65.65 117.37 76.85 121.97 76.85 109.77 65.65 105.17 65.65 117.37"/>
      <polygon class="cls-2" points="65.65 105.17 76.85 109.77 76.85 97.67 65.65 93.07 65.65 105.17"/>
      <polygon class="cls-2" points="76.85 97.67 76.85 109.77 87.95 114.47 87.95 102.27 76.85 97.67"/>
      <polygon class="cls-2" points="87.95 114.47 76.85 109.77 76.85 121.97 87.95 126.57 87.95 114.47"/>
      <polygon class="cls-2" points="87.95 102.27 87.95 114.47 99.15 119.07 99.15 106.87 87.95 102.27"/>
      <polygon class="cls-2" points="99.15 119.07 87.95 114.47 87.95 126.57 99.15 131.27 99.15 119.07"/>
      <polygon class="cls-2" points="99.15 119.07 99.15 131.27 110.35 135.87 110.35 123.67 99.15 119.07"/>
      <polygon class="cls-2" points="99.15 119.07 110.35 123.67 110.35 111.47 99.15 106.87 99.15 119.07"/>
      <polygon class="cls-2" points="110.35 111.47 110.35 123.67 121.55 128.27 121.55 116.17 110.35 111.47"/>
      <polygon class="cls-2" points="121.55 128.27 110.35 123.67 110.35 135.87 121.55 140.47 121.55 128.27"/>
      <polygon class="cls-2" points="9.75 152.67 9.75 140.47 9.75 128.27 9.75 116.17 9.75 103.97 9.75 91.77 9.75 79.57 9.75 67.47 9.75 55.27 9.75 43.07 9.75 30.97 0.65 27.17 0.65 161.07 9.75 164.77 9.75 152.67"/>
    </g>
    <polygon class="cls-3" points="110.35 160.17 65.65 178.27 65.65 56.57 110.35 38.47 110.35 160.17"/>
  </g>
</svg>
