<svg id="Layer_1" data-name="Layer 1" xmlns="http://www.w3.org/2000/svg" width="131.31" height="178.64" viewBox="0 0 131.31 178.64">
  <defs>
    <style>
      .cls-1 {
        fill: none;
      }

      .cls-1, .cls-2, .cls-3 {
        stroke: #000;
        stroke-miterlimit: 22.93;
        stroke-width: 0.5px;
      }

      .cls-2 {
        fill: #e1e1e1;
      }

      .cls-2, .cls-3 {
        fill-rule: evenodd;
      }

      .cls-3 {
        fill: #baccd9;
        fill-opacity: 0.8;
        stroke-opacity: 0.8;
      }
    </style>
  </defs>
  <title>i-form1</title>
  <g id="Видимый_контур_ГОСТ_" data-name="Видимый контур ГОСТ ">
    <g id="_2666797200448" data-name=" 2666797200448">
      <line class="cls-1" x1="121.53" y1="30.91" x2="65.65" y2="7.78"/>
      <line class="cls-1" x1="9.77" y1="30.91" x2="65.65" y2="7.78"/>
      <line class="cls-1" x1="9.77" y1="152.62" x2="65.65" y2="129.51"/>
      <line class="cls-1" x1="9.77" y1="140.45" x2="65.65" y2="117.34"/>
      <line class="cls-1" x1="9.77" y1="128.28" x2="65.65" y2="105.17"/>
      <line class="cls-1" x1="9.77" y1="116.1" x2="65.65" y2="93"/>
      <line class="cls-1" x1="9.77" y1="103.93" x2="65.65" y2="80.83"/>
      <line class="cls-1" x1="9.77" y1="91.76" x2="65.65" y2="68.66"/>
      <line class="cls-1" x1="9.77" y1="79.59" x2="65.65" y2="56.49"/>
      <line class="cls-1" x1="9.77" y1="67.42" x2="65.65" y2="44.32"/>
      <line class="cls-1" x1="9.77" y1="55.25" x2="65.65" y2="32.15"/>
      <line class="cls-1" x1="9.77" y1="43.08" x2="65.65" y2="19.95"/>
      <line class="cls-1" x1="9.77" y1="164.79" x2="9.77" y2="30.91"/>
      <line class="cls-1" x1="121.53" y1="164.79" x2="121.53" y2="30.91"/>
      <line class="cls-1" x1="65.65" y1="141.69" x2="65.65" y2="7.78"/>
      <line class="cls-1" x1="99.18" y1="155.55" x2="99.18" y2="21.64"/>
      <line class="cls-1" x1="76.84" y1="146.31" x2="76.84" y2="12.42"/>
      <line class="cls-1" x1="88" y1="150.91" x2="88" y2="17.04"/>
      <line class="cls-1" x1="110.37" y1="160.17" x2="110.37" y2="26.28"/>
      <line class="cls-1" x1="121.53" y1="164.79" x2="65.65" y2="141.69"/>
      <line class="cls-1" x1="121.53" y1="152.62" x2="65.65" y2="129.51"/>
      <line class="cls-1" x1="121.53" y1="140.45" x2="65.65" y2="117.34"/>
      <line class="cls-1" x1="121.53" y1="128.28" x2="65.65" y2="105.17"/>
      <line class="cls-1" x1="121.53" y1="116.1" x2="65.65" y2="93"/>
      <line class="cls-1" x1="121.53" y1="103.93" x2="65.65" y2="80.83"/>
      <line class="cls-1" x1="121.53" y1="91.76" x2="65.65" y2="68.66"/>
      <line class="cls-1" x1="121.53" y1="79.59" x2="65.65" y2="56.49"/>
      <line class="cls-1" x1="121.53" y1="67.42" x2="65.65" y2="44.32"/>
      <line class="cls-1" x1="121.53" y1="55.25" x2="65.65" y2="32.15"/>
      <line class="cls-1" x1="121.53" y1="43.08" x2="65.65" y2="19.95"/>
      <line class="cls-1" x1="9.77" y1="164.79" x2="65.65" y2="141.69"/>
      <line class="cls-1" x1="9.77" y1="30.91" x2="0.65" y2="27.14"/>
      <line class="cls-1" x1="9.77" y1="164.79" x2="0.65" y2="161.01"/>
      <line class="cls-1" x1="121.53" y1="164.79" x2="130.64" y2="161.01"/>
      <line class="cls-1" x1="121.53" y1="30.91" x2="130.64" y2="27.14"/>
      <line class="cls-1" x1="130.64" y1="161.01" x2="130.64" y2="27.14"/>
      <line class="cls-1" x1="0.65" y1="161.01" x2="0.65" y2="27.14"/>
      <line class="cls-1" x1="0.65" y1="27.14" x2="65.65" y2="0.27"/>
      <line class="cls-1" x1="130.64" y1="27.14" x2="65.65" y2="0.27"/>
      <line class="cls-1" x1="43.3" y1="150.91" x2="43.3" y2="17.04"/>
      <line class="cls-1" x1="20.95" y1="160.17" x2="20.95" y2="26.28"/>
      <line class="cls-1" x1="32.12" y1="155.55" x2="32.12" y2="21.64"/>
      <line class="cls-1" x1="54.48" y1="146.31" x2="54.48" y2="12.42"/>
      <polygon class="cls-2" points="99.18 21.64 110.37 26.28 121.53 30.91 130.65 27.14 65.65 0.27 0.65 27.14 9.77 30.91 20.95 26.28 32.12 21.64 43.28 17.04 54.48 12.42 65.65 7.78 76.84 12.42 88 17.04 99.18 21.64"/>
      <polygon class="cls-2" points="110.37 26.28 99.18 21.64 99.18 33.81 110.37 38.45 110.37 26.28"/>
      <polygon class="cls-2" points="110.37 26.28 110.37 38.45 121.53 43.08 121.53 30.91 110.37 26.28"/>
      <polygon class="cls-2" points="121.53 30.91 121.53 43.08 121.53 55.25 121.53 67.42 121.53 79.59 121.53 91.76 121.53 103.93 121.53 116.1 121.53 128.28 121.53 140.45 121.53 152.62 121.53 164.78 130.65 161.01 130.65 27.14 121.53 30.91"/>
      <polygon class="cls-2" points="121.53 43.08 110.37 38.45 110.37 50.62 121.53 55.25 121.53 43.08"/>
      <polygon class="cls-2" points="121.53 55.25 110.37 50.62 110.37 62.8 121.53 67.42 121.53 55.25"/>
      <polygon class="cls-2" points="110.37 62.8 110.37 50.62 99.18 45.99 99.18 58.18 110.37 62.8"/>
      <polygon class="cls-2" points="99.18 45.99 110.37 50.62 110.37 38.45 99.18 33.81 99.18 45.99"/>
      <polygon class="cls-2" points="88 29.21 99.18 33.81 99.18 21.64 88 17.04 88 29.21"/>
      <polygon class="cls-2" points="88 29.21 88 17.04 76.84 12.42 76.84 24.58 88 29.21"/>
      <polygon class="cls-2" points="76.84 24.58 76.84 12.42 65.65 7.78 65.65 19.95 76.84 24.58"/>
      <polygon class="cls-2" points="76.84 24.58 65.65 19.95 65.65 32.15 76.84 36.75 76.84 24.58"/>
      <polygon class="cls-2" points="76.84 24.58 76.84 36.75 88 41.38 88 29.21 76.84 24.58"/>
      <polygon class="cls-2" points="88 29.21 88 41.38 99.18 45.99 99.18 33.81 88 29.21"/>
      <polygon class="cls-2" points="99.18 45.99 88 41.38 88 53.56 99.18 58.18 99.18 45.99"/>
      <polygon class="cls-2" points="88 53.56 88 41.38 76.84 36.75 76.84 48.92 88 53.56"/>
      <polygon class="cls-2" points="76.84 48.92 76.84 36.75 65.65 32.15 65.65 44.32 76.84 48.92"/>
      <polygon class="cls-2" points="76.84 48.92 65.65 44.32 65.65 56.49 76.84 61.09 76.84 48.92"/>
      <polygon class="cls-2" points="76.84 48.92 76.84 61.09 88 65.73 88 53.56 76.84 48.92"/>
      <polygon class="cls-2" points="88 53.56 88 65.73 99.18 70.35 99.18 58.18 88 53.56"/>
      <polygon class="cls-2" points="99.18 58.18 99.18 70.35 110.37 74.95 110.37 62.8 99.18 58.18"/>
      <polygon class="cls-2" points="110.37 62.8 110.37 74.95 121.53 79.59 121.53 67.42 110.37 62.8"/>
      <polygon class="cls-2" points="121.53 79.59 110.37 74.95 110.37 87.13 121.53 91.76 121.53 79.59"/>
      <polygon class="cls-2" points="110.37 87.13 110.37 74.95 99.18 70.35 99.18 82.52 110.37 87.13"/>
      <polygon class="cls-2" points="99.18 82.52 99.18 70.35 88 65.73 88 77.9 99.18 82.52"/>
      <polygon class="cls-2" points="88 77.9 88 65.73 76.84 61.09 76.84 73.26 88 77.9"/>
      <polygon class="cls-2" points="76.84 73.26 76.84 61.09 65.65 56.49 65.65 68.66 76.84 73.26"/>
      <polygon class="cls-2" points="121.53 152.62 110.37 148 110.37 160.18 121.53 164.78 121.53 152.62"/>
      <polygon class="cls-2" points="54.48 73.26 65.65 68.66 65.65 56.49 54.48 61.09 54.48 73.26"/>
      <polygon class="cls-2" points="54.48 61.09 65.65 56.49 65.65 44.32 54.48 48.92 54.48 61.09"/>
      <polygon class="cls-2" points="54.48 48.92 65.65 44.32 65.65 32.15 54.48 36.75 54.48 48.92"/>
      <polygon class="cls-2" points="54.48 36.75 65.65 32.15 65.65 19.95 54.48 24.58 54.48 36.75"/>
      <polygon class="cls-2" points="54.48 24.58 65.65 19.95 65.65 7.78 54.48 12.42 54.48 24.58"/>
      <polygon class="cls-2" points="20.95 38.45 20.95 26.28 9.77 30.91 9.77 43.08 20.95 38.45"/>
      <polygon class="cls-2" points="20.95 26.28 20.95 38.45 32.12 33.81 32.12 21.64 20.95 26.28"/>
      <polygon class="cls-2" points="32.12 21.64 32.12 33.81 43.28 29.21 43.28 17.04 32.12 21.64"/>
      <polygon class="cls-2" points="43.28 17.04 43.28 29.21 54.48 24.58 54.48 12.42 43.28 17.04"/>
      <polygon class="cls-2" points="54.48 24.58 43.28 29.21 43.28 41.38 54.48 36.75 54.48 24.58"/>
      <polygon class="cls-2" points="43.28 41.38 43.28 29.21 32.12 33.81 32.12 45.99 43.28 41.38"/>
      <polygon class="cls-2" points="32.12 45.99 32.12 33.81 20.95 38.45 20.95 50.62 32.12 45.99"/>
      <polygon class="cls-2" points="20.95 50.62 20.95 38.45 9.77 43.08 9.77 55.25 20.95 50.62"/>
      <polygon class="cls-2" points="20.95 50.62 9.77 55.25 9.77 67.42 20.95 62.8 20.95 50.62"/>
      <polygon class="cls-2" points="20.95 50.62 20.95 62.8 32.12 58.18 32.12 45.99 20.95 50.62"/>
      <polygon class="cls-2" points="32.12 45.99 32.12 58.18 43.28 53.56 43.28 41.38 32.12 45.99"/>
      <polygon class="cls-2" points="43.28 41.38 43.28 53.56 54.48 48.92 54.48 36.75 43.28 41.38"/>
      <polygon class="cls-2" points="54.48 48.92 43.28 53.56 43.28 65.73 54.48 61.09 54.48 48.92"/>
      <polygon class="cls-2" points="43.28 65.73 43.28 53.56 32.12 58.18 32.12 70.35 43.28 65.73"/>
      <polygon class="cls-2" points="32.12 70.35 32.12 58.18 20.95 62.8 20.95 74.95 32.12 70.35"/>
      <polygon class="cls-2" points="20.95 74.95 20.95 62.8 9.77 67.42 9.77 79.59 20.95 74.95"/>
      <polygon class="cls-2" points="20.95 74.95 9.77 79.59 9.77 91.76 20.95 87.13 20.95 74.95"/>
      <polygon class="cls-2" points="20.95 74.95 20.95 87.13 32.12 82.52 32.12 70.35 20.95 74.95"/>
      <polygon class="cls-2" points="32.12 70.35 32.12 82.52 43.28 77.9 43.28 65.73 32.12 70.35"/>
      <polygon class="cls-2" points="43.28 65.73 43.28 77.9 54.48 73.26 54.48 61.09 43.28 65.73"/>
      <polygon class="cls-2" points="54.48 73.26 43.28 77.9 43.28 90.07 54.48 85.43 54.48 73.26"/>
      <polygon class="cls-2" points="54.48 73.26 54.48 85.43 65.65 80.83 65.65 68.66 54.48 73.26"/>
      <polygon class="cls-2" points="54.48 85.43 65.65 80.83 65.65 68.66 54.48 73.26 54.48 85.43"/>
      <polygon class="cls-2" points="65.65 68.66 65.65 80.83 76.84 85.43 76.84 73.26 65.65 68.66"/>
      <polygon class="cls-2" points="76.84 73.26 76.84 85.43 88 90.07 88 77.9 76.84 73.26"/>
      <polygon class="cls-2" points="88 77.9 88 90.07 99.18 94.69 99.18 82.52 88 77.9"/>
      <polygon class="cls-2" points="99.18 82.52 99.18 94.69 110.37 99.3 110.37 87.13 99.18 82.52"/>
      <polygon class="cls-2" points="110.37 87.13 110.37 99.3 121.53 103.93 121.53 91.76 110.37 87.13"/>
      <polygon class="cls-2" points="121.53 103.93 110.37 99.3 110.37 111.47 121.53 116.1 121.53 103.93"/>
      <polygon class="cls-2" points="110.37 111.47 110.37 99.3 99.18 94.69 99.18 106.86 110.37 111.47"/>
      <polygon class="cls-2" points="99.18 106.86 99.18 94.69 88 90.07 88 102.24 99.18 106.86"/>
      <polygon class="cls-2" points="88 102.24 88 90.07 76.84 85.43 76.84 97.6 88 102.24"/>
      <polygon class="cls-2" points="76.84 97.6 76.84 85.43 65.65 80.83 65.65 93 76.84 97.6"/>
      <polygon class="cls-2" points="65.65 93 65.65 80.83 54.48 85.43 54.48 97.6 65.65 93"/>
      <polygon class="cls-2" points="54.48 97.6 54.48 85.43 43.28 90.07 43.28 102.24 54.48 97.6"/>
      <polygon class="cls-2" points="43.28 90.07 43.28 77.9 32.12 82.52 32.12 94.69 43.28 90.07"/>
      <polygon class="cls-2" points="43.28 90.07 32.12 94.69 32.12 106.86 43.28 102.24 43.28 90.07"/>
      <polygon class="cls-2" points="32.12 94.69 32.12 82.52 20.95 87.13 20.95 99.3 32.12 94.69"/>
      <polygon class="cls-2" points="32.12 94.69 20.95 99.3 20.95 111.47 32.12 106.86 32.12 94.69"/>
      <polygon class="cls-2" points="20.95 99.3 20.95 87.13 9.77 91.76 9.77 103.93 20.95 99.3"/>
      <polygon class="cls-2" points="20.95 99.3 9.77 103.93 9.77 116.1 20.95 111.47 20.95 99.3"/>
      <polygon class="cls-2" points="20.95 111.47 9.77 116.1 9.77 128.28 20.95 123.64 20.95 111.47"/>
      <polygon class="cls-2" points="20.95 123.64 9.77 128.28 9.77 140.45 20.95 135.83 20.95 123.64"/>
      <polygon class="cls-2" points="20.95 135.83 9.77 140.45 9.77 152.62 20.95 148 20.95 135.83"/>
      <polygon class="cls-2" points="20.95 148 9.77 152.62 9.77 164.78 20.95 160.18 20.95 148"/>
      <polygon class="cls-2" points="20.95 148 20.95 160.18 32.12 155.55 32.12 143.38 20.95 148"/>
      <polygon class="cls-2" points="20.95 148 32.12 143.38 32.12 131.21 20.95 135.83 20.95 148"/>
      <polygon class="cls-2" points="20.95 135.83 32.12 131.21 32.12 119.04 20.95 123.64 20.95 135.83"/>
      <polygon class="cls-2" points="20.95 123.64 32.12 119.04 32.12 106.86 20.95 111.47 20.95 123.64"/>
      <polygon class="cls-2" points="32.12 106.86 32.12 119.04 43.28 114.4 43.28 102.24 32.12 106.86"/>
      <polygon class="cls-2" points="43.28 114.4 32.12 119.04 32.12 131.21 43.28 126.57 43.28 114.4"/>
      <polygon class="cls-2" points="43.28 126.57 32.12 131.21 32.12 143.38 43.28 138.74 43.28 126.57"/>
      <polygon class="cls-2" points="43.28 138.74 32.12 143.38 32.12 155.55 43.28 150.91 43.28 138.74"/>
      <polygon class="cls-2" points="43.28 138.74 43.28 150.91 54.48 146.31 54.48 134.14 43.28 138.74"/>
      <polygon class="cls-2" points="43.28 138.74 54.48 134.14 54.48 121.97 43.28 126.57 43.28 138.74"/>
      <polygon class="cls-2" points="43.28 126.57 54.48 121.97 54.48 109.8 43.28 114.4 43.28 126.57"/>
      <polygon class="cls-2" points="43.28 114.4 54.48 109.8 54.48 97.6 43.28 102.24 43.28 114.4"/>
      <polygon class="cls-2" points="54.48 97.6 54.48 109.8 65.65 105.17 65.65 93 54.48 97.6"/>
      <polygon class="cls-2" points="65.65 105.17 54.48 109.8 54.48 121.97 65.65 117.34 65.65 105.17"/>
      <polygon class="cls-2" points="65.65 117.34 54.48 121.97 54.48 134.14 65.65 129.51 65.65 117.34"/>
      <polygon class="cls-2" points="65.65 129.51 54.48 134.14 54.48 146.31 65.65 141.69 65.65 129.51"/>
      <polygon class="cls-2" points="65.65 129.51 65.65 141.69 76.84 146.31 76.84 134.14 65.65 129.51"/>
      <polygon class="cls-2" points="76.84 134.14 76.84 146.31 88 150.91 88 138.74 76.84 134.14"/>
      <polygon class="cls-2" points="88 138.74 88 150.91 99.18 155.55 99.18 143.38 88 138.74"/>
      <polygon class="cls-2" points="99.18 143.38 99.18 155.55 110.37 160.18 110.37 148 99.18 143.38"/>
      <polygon class="cls-2" points="110.37 135.83 110.37 148 121.53 152.62 121.53 140.45 110.37 135.83"/>
      <polygon class="cls-2" points="110.37 148 110.37 135.83 99.18 131.21 99.18 143.38 110.37 148"/>
      <polygon class="cls-2" points="99.18 143.38 99.18 131.21 88 126.57 88 138.74 99.18 143.38"/>
      <polygon class="cls-2" points="88 138.74 88 126.57 76.84 121.97 76.84 134.14 88 138.74"/>
      <polygon class="cls-2" points="76.84 134.14 76.84 121.97 65.65 117.34 65.65 129.51 76.84 134.14"/>
      <polygon class="cls-2" points="65.65 117.34 76.84 121.97 76.84 109.8 65.65 105.17 65.65 117.34"/>
      <polygon class="cls-2" points="65.65 105.17 76.84 109.8 76.84 97.6 65.65 93 65.65 105.17"/>
      <polygon class="cls-2" points="76.84 97.6 76.84 109.8 88 114.4 88 102.24 76.84 97.6"/>
      <polygon class="cls-2" points="88 114.4 76.84 109.8 76.84 121.97 88 126.57 88 114.4"/>
      <polygon class="cls-2" points="88 102.24 88 114.4 99.18 119.04 99.18 106.86 88 102.24"/>
      <polygon class="cls-2" points="99.18 119.04 88 114.4 88 126.57 99.18 131.21 99.18 119.04"/>
      <polygon class="cls-2" points="99.18 119.04 99.18 131.21 110.37 135.83 110.37 123.64 99.18 119.04"/>
      <polygon class="cls-2" points="99.18 119.04 110.37 123.64 110.37 111.47 99.18 106.86 99.18 119.04"/>
      <polygon class="cls-2" points="110.37 111.47 110.37 123.64 121.53 128.28 121.53 116.1 110.37 111.47"/>
      <polygon class="cls-2" points="121.53 128.28 110.37 123.64 110.37 135.83 121.53 140.45 121.53 128.28"/>
      <polygon class="cls-2" points="9.77 152.62 9.77 140.45 9.77 128.28 9.77 116.1 9.77 103.93 9.77 91.76 9.77 79.59 9.77 67.42 9.77 55.25 9.77 43.08 9.77 30.91 0.65 27.14 0.65 161.01 9.77 164.78 9.77 152.62"/>
    </g>
    <polygon class="cls-3" points="20.95 160.18 65.65 178.27 65.65 56.55 20.95 38.42 20.95 160.18"/>
    <polygon class="cls-3" points="110.37 160.18 65.65 178.27 65.65 56.55 110.37 38.42 110.37 160.18"/>
  </g>
</svg>
