<svg id="Layer_1" data-name="Layer 1" xmlns="http://www.w3.org/2000/svg" width="131.3" height="172.27" viewBox="0 0 131.3 172.27">
  <defs>
    <style>
      .cls-1 {
        fill: none;
      }

      .cls-1, .cls-2, .cls-4 {
        stroke: #000;
        stroke-miterlimit: 22.93;
        stroke-width: 0.5px;
      }

      .cls-2 {
        fill: #e1e1e1;
      }

      .cls-2, .cls-3, .cls-4 {
        fill-rule: evenodd;
      }

      .cls-3 {
        fill: #c8d7e1;
        fill-opacity: 0.9;
      }

      .cls-4 {
        fill: #baccd9;
        fill-opacity: 0.8;
        stroke-opacity: 0.8;
      }
    </style>
  </defs>
  <title>i-form4</title>
  <g id="_2666789293072" data-name=" 2666789293072">
    <line class="cls-1" x1="121.55" y1="30.97" x2="65.65" y2="7.87"/>
    <line class="cls-1" x1="9.75" y1="30.97" x2="65.65" y2="7.87"/>
    <line class="cls-1" x1="9.75" y1="152.57" x2="65.65" y2="129.47"/>
    <line class="cls-1" x1="9.75" y1="140.47" x2="65.65" y2="117.37"/>
    <line class="cls-1" x1="9.75" y1="128.27" x2="65.65" y2="105.17"/>
    <line class="cls-1" x1="9.75" y1="116.07" x2="65.65" y2="92.97"/>
    <line class="cls-1" x1="9.75" y1="103.97" x2="65.65" y2="80.87"/>
    <line class="cls-1" x1="9.75" y1="91.77" x2="65.65" y2="68.67"/>
    <line class="cls-1" x1="9.75" y1="79.57" x2="65.65" y2="56.47"/>
    <line class="cls-1" x1="9.75" y1="67.47" x2="65.65" y2="44.37"/>
    <line class="cls-1" x1="9.75" y1="55.27" x2="65.65" y2="32.17"/>
    <line class="cls-1" x1="9.75" y1="43.07" x2="65.65" y2="19.97"/>
    <line class="cls-1" x1="9.75" y1="164.77" x2="9.75" y2="30.97"/>
    <line class="cls-1" x1="121.55" y1="164.77" x2="121.55" y2="30.97"/>
    <line class="cls-1" x1="65.65" y1="141.67" x2="65.65" y2="7.87"/>
    <line class="cls-1" x1="99.15" y1="155.57" x2="99.15" y2="21.67"/>
    <line class="cls-1" x1="76.85" y1="146.27" x2="76.85" y2="12.47"/>
    <line class="cls-1" x1="88.05" y1="150.87" x2="88.05" y2="17.07"/>
    <line class="cls-1" x1="110.35" y1="160.17" x2="110.35" y2="26.27"/>
    <line class="cls-1" x1="121.55" y1="164.77" x2="65.65" y2="141.67"/>
    <line class="cls-1" x1="121.55" y1="152.57" x2="65.65" y2="129.47"/>
    <line class="cls-1" x1="121.55" y1="140.47" x2="65.65" y2="117.37"/>
    <line class="cls-1" x1="121.55" y1="128.27" x2="65.65" y2="105.17"/>
    <line class="cls-1" x1="121.55" y1="116.07" x2="65.65" y2="92.97"/>
    <line class="cls-1" x1="121.55" y1="103.97" x2="65.65" y2="80.87"/>
    <line class="cls-1" x1="121.55" y1="91.77" x2="65.65" y2="68.67"/>
    <line class="cls-1" x1="121.55" y1="79.57" x2="65.65" y2="56.47"/>
    <line class="cls-1" x1="121.55" y1="67.47" x2="65.65" y2="44.37"/>
    <line class="cls-1" x1="121.55" y1="55.27" x2="65.65" y2="32.17"/>
    <line class="cls-1" x1="121.55" y1="43.07" x2="65.65" y2="19.97"/>
    <line class="cls-1" x1="9.75" y1="164.77" x2="65.65" y2="141.67"/>
    <line class="cls-1" x1="9.75" y1="30.97" x2="0.65" y2="27.17"/>
    <line class="cls-1" x1="9.75" y1="164.77" x2="0.65" y2="160.97"/>
    <line class="cls-1" x1="121.55" y1="164.77" x2="130.65" y2="160.97"/>
    <line class="cls-1" x1="121.55" y1="30.97" x2="130.65" y2="27.17"/>
    <line class="cls-1" x1="130.65" y1="160.97" x2="130.65" y2="27.17"/>
    <line class="cls-1" x1="0.65" y1="160.97" x2="0.65" y2="27.17"/>
    <line class="cls-1" x1="0.65" y1="27.17" x2="65.65" y2="0.27"/>
    <line class="cls-1" x1="130.65" y1="27.17" x2="65.65" y2="0.27"/>
    <line class="cls-1" x1="43.35" y1="150.87" x2="43.35" y2="17.07"/>
    <line class="cls-1" x1="20.95" y1="160.17" x2="20.95" y2="26.27"/>
    <line class="cls-1" x1="32.15" y1="155.57" x2="32.15" y2="21.67"/>
    <line class="cls-1" x1="54.45" y1="146.27" x2="54.45" y2="12.47"/>
    <polygon class="cls-2" points="99.15 21.67 110.35 26.27 121.55 30.97 130.65 27.17 65.65 0.27 0.65 27.17 9.75 30.97 20.95 26.27 32.15 21.67 43.35 17.07 54.45 12.47 65.65 7.87 76.85 12.47 88.05 17.07 99.15 21.67"/>
    <polygon class="cls-2" points="110.35 26.27 99.15 21.67 99.15 33.87 110.35 38.47 110.35 26.27"/>
    <polygon class="cls-2" points="110.35 26.27 110.35 38.47 121.55 43.07 121.55 30.97 110.35 26.27"/>
    <polygon class="cls-2" points="121.55 30.97 121.55 43.07 121.55 55.27 121.55 67.47 121.55 79.57 121.55 91.77 121.55 103.97 121.55 116.07 121.55 128.27 121.55 140.47 121.55 152.57 121.55 164.77 130.65 160.97 130.65 27.17 121.55 30.97"/>
    <polygon class="cls-2" points="121.55 43.07 110.35 38.47 110.35 50.67 121.55 55.27 121.55 43.07"/>
    <polygon class="cls-2" points="121.55 55.27 110.35 50.67 110.35 62.77 121.55 67.47 121.55 55.27"/>
    <polygon class="cls-2" points="110.35 62.77 110.35 50.67 99.15 46.07 99.15 58.17 110.35 62.77"/>
    <polygon class="cls-2" points="99.15 46.07 110.35 50.67 110.35 38.47 99.15 33.87 99.15 46.07"/>
    <polygon class="cls-2" points="88.05 29.27 99.15 33.87 99.15 21.67 88.05 17.07 88.05 29.27"/>
    <polygon class="cls-2" points="88.05 29.27 88.05 17.07 76.85 12.47 76.85 24.67 88.05 29.27"/>
    <polygon class="cls-2" points="76.85 24.67 76.85 12.47 65.65 7.87 65.65 19.97 76.85 24.67"/>
    <polygon class="cls-2" points="76.85 24.67 65.65 19.97 65.65 32.17 76.85 36.77 76.85 24.67"/>
    <polygon class="cls-2" points="76.85 24.67 76.85 36.77 88.05 41.37 88.05 29.27 76.85 24.67"/>
    <polygon class="cls-2" points="88.05 29.27 88.05 41.37 99.15 46.07 99.15 33.87 88.05 29.27"/>
    <polygon class="cls-2" points="99.15 46.07 88.05 41.37 88.05 53.57 99.15 58.17 99.15 46.07"/>
    <polygon class="cls-2" points="88.05 53.57 88.05 41.37 76.85 36.77 76.85 48.97 88.05 53.57"/>
    <polygon class="cls-2" points="76.85 48.97 76.85 36.77 65.65 32.17 65.65 44.37 76.85 48.97"/>
    <polygon class="cls-2" points="76.85 48.97 65.65 44.37 65.65 56.47 76.85 61.17 76.85 48.97"/>
    <polygon class="cls-2" points="76.85 48.97 76.85 61.17 88.05 65.77 88.05 53.57 76.85 48.97"/>
    <polygon class="cls-2" points="88.05 53.57 88.05 65.77 99.15 70.37 99.15 58.17 88.05 53.57"/>
    <polygon class="cls-2" points="99.15 58.17 99.15 70.37 110.35 74.97 110.35 62.77 99.15 58.17"/>
    <polygon class="cls-2" points="110.35 62.77 110.35 74.97 121.55 79.57 121.55 67.47 110.35 62.77"/>
    <polygon class="cls-2" points="121.55 79.57 110.35 74.97 110.35 87.17 121.55 91.77 121.55 79.57"/>
    <polygon class="cls-2" points="110.35 87.17 110.35 74.97 99.15 70.37 99.15 82.57 110.35 87.17"/>
    <polygon class="cls-2" points="99.15 82.57 99.15 70.37 88.05 65.77 88.05 77.87 99.15 82.57"/>
    <polygon class="cls-2" points="88.05 77.87 88.05 65.77 76.85 61.17 76.85 73.27 88.05 77.87"/>
    <polygon class="cls-2" points="76.85 73.27 76.85 61.17 65.65 56.47 65.65 68.67 76.85 73.27"/>
    <polygon class="cls-2" points="121.55 152.57 110.35 147.97 110.35 160.17 121.55 164.77 121.55 152.57"/>
    <polygon class="cls-2" points="54.45 73.27 65.65 68.67 65.65 56.47 54.45 61.17 54.45 73.27"/>
    <polygon class="cls-2" points="54.45 61.17 65.65 56.47 65.65 44.37 54.45 48.97 54.45 61.17"/>
    <polygon class="cls-2" points="54.45 48.97 65.65 44.37 65.65 32.17 54.45 36.77 54.45 48.97"/>
    <polygon class="cls-2" points="54.45 36.77 65.65 32.17 65.65 19.97 54.45 24.67 54.45 36.77"/>
    <polygon class="cls-2" points="54.45 24.67 65.65 19.97 65.65 7.87 54.45 12.47 54.45 24.67"/>
    <polygon class="cls-2" points="20.95 38.47 20.95 26.27 9.75 30.97 9.75 43.07 20.95 38.47"/>
    <polygon class="cls-2" points="20.95 26.27 20.95 38.47 32.15 33.87 32.15 21.67 20.95 26.27"/>
    <polygon class="cls-2" points="32.15 21.67 32.15 33.87 43.35 29.27 43.35 17.07 32.15 21.67"/>
    <polygon class="cls-2" points="43.35 17.07 43.35 29.27 54.45 24.67 54.45 12.47 43.35 17.07"/>
    <polygon class="cls-2" points="54.45 24.67 43.35 29.27 43.35 41.37 54.45 36.77 54.45 24.67"/>
    <polygon class="cls-2" points="43.35 41.37 43.35 29.27 32.15 33.87 32.15 46.07 43.35 41.37"/>
    <polygon class="cls-2" points="32.15 46.07 32.15 33.87 20.95 38.47 20.95 50.67 32.15 46.07"/>
    <polygon class="cls-2" points="20.95 50.67 20.95 38.47 9.75 43.07 9.75 55.27 20.95 50.67"/>
    <polygon class="cls-2" points="20.95 50.67 9.75 55.27 9.75 67.47 20.95 62.77 20.95 50.67"/>
    <polygon class="cls-2" points="20.95 50.67 20.95 62.77 32.15 58.17 32.15 46.07 20.95 50.67"/>
    <polygon class="cls-2" points="32.15 46.07 32.15 58.17 43.35 53.57 43.35 41.37 32.15 46.07"/>
    <polygon class="cls-2" points="43.35 41.37 43.35 53.57 54.45 48.97 54.45 36.77 43.35 41.37"/>
    <polygon class="cls-2" points="54.45 48.97 43.35 53.57 43.35 65.77 54.45 61.17 54.45 48.97"/>
    <polygon class="cls-2" points="43.35 65.77 43.35 53.57 32.15 58.17 32.15 70.37 43.35 65.77"/>
    <polygon class="cls-2" points="32.15 70.37 32.15 58.17 20.95 62.77 20.95 74.97 32.15 70.37"/>
    <polygon class="cls-2" points="20.95 74.97 20.95 62.77 9.75 67.47 9.75 79.57 20.95 74.97"/>
    <polygon class="cls-2" points="20.95 74.97 9.75 79.57 9.75 91.77 20.95 87.17 20.95 74.97"/>
    <polygon class="cls-2" points="20.95 74.97 20.95 87.17 32.15 82.57 32.15 70.37 20.95 74.97"/>
    <polygon class="cls-2" points="32.15 70.37 32.15 82.57 43.35 77.87 43.35 65.77 32.15 70.37"/>
    <polygon class="cls-2" points="43.35 65.77 43.35 77.87 54.45 73.27 54.45 61.17 43.35 65.77"/>
    <polygon class="cls-2" points="54.45 73.27 43.35 77.87 43.35 90.07 54.45 85.47 54.45 73.27"/>
    <polygon class="cls-2" points="54.45 73.27 54.45 85.47 65.65 80.87 65.65 68.67 54.45 73.27"/>
    <polygon class="cls-2" points="54.45 85.47 65.65 80.87 65.65 68.67 54.45 73.27 54.45 85.47"/>
    <polygon class="cls-2" points="65.65 68.67 65.65 80.87 76.85 85.47 76.85 73.27 65.65 68.67"/>
    <polygon class="cls-2" points="76.85 73.27 76.85 85.47 88.05 90.07 88.05 77.87 76.85 73.27"/>
    <polygon class="cls-2" points="88.05 77.87 88.05 90.07 99.15 94.67 99.15 82.57 88.05 77.87"/>
    <polygon class="cls-2" points="99.15 82.57 99.15 94.67 110.35 99.27 110.35 87.17 99.15 82.57"/>
    <polygon class="cls-2" points="110.35 87.17 110.35 99.27 121.55 103.97 121.55 91.77 110.35 87.17"/>
    <polygon class="cls-2" points="121.55 103.97 110.35 99.27 110.35 111.47 121.55 116.07 121.55 103.97"/>
    <polygon class="cls-2" points="110.35 111.47 110.35 99.27 99.15 94.67 99.15 106.87 110.35 111.47"/>
    <polygon class="cls-2" points="99.15 106.87 99.15 94.67 88.05 90.07 88.05 102.27 99.15 106.87"/>
    <polygon class="cls-2" points="88.05 102.27 88.05 90.07 76.85 85.47 76.85 97.67 88.05 102.27"/>
    <polygon class="cls-2" points="76.85 97.67 76.85 85.47 65.65 80.87 65.65 92.97 76.85 97.67"/>
    <polygon class="cls-2" points="65.65 92.97 65.65 80.87 54.45 85.47 54.45 97.67 65.65 92.97"/>
    <polygon class="cls-2" points="54.45 97.67 54.45 85.47 43.35 90.07 43.35 102.27 54.45 97.67"/>
    <polygon class="cls-2" points="43.35 90.07 43.35 77.87 32.15 82.57 32.15 94.67 43.35 90.07"/>
    <polygon class="cls-2" points="43.35 90.07 32.15 94.67 32.15 106.87 43.35 102.27 43.35 90.07"/>
    <polygon class="cls-2" points="32.15 94.67 32.15 82.57 20.95 87.17 20.95 99.27 32.15 94.67"/>
    <polygon class="cls-2" points="32.15 94.67 20.95 99.27 20.95 111.47 32.15 106.87 32.15 94.67"/>
    <polygon class="cls-2" points="20.95 99.27 20.95 87.17 9.75 91.77 9.75 103.97 20.95 99.27"/>
    <polygon class="cls-2" points="20.95 99.27 9.75 103.97 9.75 116.07 20.95 111.47 20.95 99.27"/>
    <polygon class="cls-2" points="20.95 111.47 9.75 116.07 9.75 128.27 20.95 123.67 20.95 111.47"/>
    <polygon class="cls-2" points="20.95 123.67 9.75 128.27 9.75 140.47 20.95 135.87 20.95 123.67"/>
    <polygon class="cls-2" points="20.95 135.87 9.75 140.47 9.75 152.57 20.95 147.97 20.95 135.87"/>
    <polygon class="cls-2" points="20.95 147.97 9.75 152.57 9.75 164.77 20.95 160.17 20.95 147.97"/>
    <polygon class="cls-2" points="20.95 147.97 20.95 160.17 32.15 155.57 32.15 143.37 20.95 147.97"/>
    <polygon class="cls-2" points="20.95 147.97 32.15 143.37 32.15 131.17 20.95 135.87 20.95 147.97"/>
    <polygon class="cls-2" points="20.95 135.87 32.15 131.17 32.15 119.07 20.95 123.67 20.95 135.87"/>
    <polygon class="cls-2" points="20.95 123.67 32.15 119.07 32.15 106.87 20.95 111.47 20.95 123.67"/>
    <polygon class="cls-2" points="32.15 106.87 32.15 119.07 43.35 114.37 43.35 102.27 32.15 106.87"/>
    <polygon class="cls-2" points="43.35 114.37 32.15 119.07 32.15 131.17 43.35 126.57 43.35 114.37"/>
    <polygon class="cls-2" points="43.35 126.57 32.15 131.17 32.15 143.37 43.35 138.77 43.35 126.57"/>
    <polygon class="cls-2" points="43.35 138.77 32.15 143.37 32.15 155.57 43.35 150.87 43.35 138.77"/>
    <polygon class="cls-2" points="43.35 138.77 43.35 150.87 54.45 146.27 54.45 134.17 43.35 138.77"/>
    <polygon class="cls-2" points="43.35 138.77 54.45 134.17 54.45 121.97 43.35 126.57 43.35 138.77"/>
    <polygon class="cls-2" points="43.35 126.57 54.45 121.97 54.45 109.77 43.35 114.37 43.35 126.57"/>
    <polygon class="cls-2" points="43.35 114.37 54.45 109.77 54.45 97.67 43.35 102.27 43.35 114.37"/>
    <polygon class="cls-2" points="54.45 97.67 54.45 109.77 65.65 105.17 65.65 92.97 54.45 97.67"/>
    <polygon class="cls-2" points="65.65 105.17 54.45 109.77 54.45 121.97 65.65 117.37 65.65 105.17"/>
    <polygon class="cls-2" points="65.65 117.37 54.45 121.97 54.45 134.17 65.65 129.47 65.65 117.37"/>
    <polygon class="cls-2" points="65.65 129.47 54.45 134.17 54.45 146.27 65.65 141.67 65.65 129.47"/>
    <polygon class="cls-2" points="65.65 129.47 65.65 141.67 76.85 146.27 76.85 134.17 65.65 129.47"/>
    <polygon class="cls-2" points="76.85 134.17 76.85 146.27 88.05 150.87 88.05 138.77 76.85 134.17"/>
    <polygon class="cls-2" points="88.05 138.77 88.05 150.87 99.15 155.57 99.15 143.37 88.05 138.77"/>
    <polygon class="cls-2" points="99.15 143.37 99.15 155.57 110.35 160.17 110.35 147.97 99.15 143.37"/>
    <polygon class="cls-2" points="110.35 135.87 110.35 147.97 121.55 152.57 121.55 140.47 110.35 135.87"/>
    <polygon class="cls-2" points="110.35 147.97 110.35 135.87 99.15 131.17 99.15 143.37 110.35 147.97"/>
    <polygon class="cls-2" points="99.15 143.37 99.15 131.17 88.05 126.57 88.05 138.77 99.15 143.37"/>
    <polygon class="cls-2" points="88.05 138.77 88.05 126.57 76.85 121.97 76.85 134.17 88.05 138.77"/>
    <polygon class="cls-2" points="76.85 134.17 76.85 121.97 65.65 117.37 65.65 129.47 76.85 134.17"/>
    <polygon class="cls-2" points="65.65 117.37 76.85 121.97 76.85 109.77 65.65 105.17 65.65 117.37"/>
    <polygon class="cls-2" points="65.65 105.17 76.85 109.77 76.85 97.67 65.65 92.97 65.65 105.17"/>
    <polygon class="cls-2" points="76.85 97.67 76.85 109.77 88.05 114.37 88.05 102.27 76.85 97.67"/>
    <polygon class="cls-2" points="88.05 114.37 76.85 109.77 76.85 121.97 88.05 126.57 88.05 114.37"/>
    <polygon class="cls-2" points="88.05 102.27 88.05 114.37 99.15 119.07 99.15 106.87 88.05 102.27"/>
    <polygon class="cls-2" points="99.15 119.07 88.05 114.37 88.05 126.57 99.15 131.17 99.15 119.07"/>
    <polygon class="cls-2" points="99.15 119.07 99.15 131.17 110.35 135.87 110.35 123.67 99.15 119.07"/>
    <polygon class="cls-2" points="99.15 119.07 110.35 123.67 110.35 111.47 99.15 106.87 99.15 119.07"/>
    <polygon class="cls-2" points="110.35 111.47 110.35 123.67 121.55 128.27 121.55 116.07 110.35 111.47"/>
    <polygon class="cls-2" points="121.55 128.27 110.35 123.67 110.35 135.87 121.55 140.47 121.55 128.27"/>
    <polygon class="cls-2" points="9.75 152.57 9.75 140.47 9.75 128.27 9.75 116.07 9.75 103.97 9.75 91.77 9.75 79.57 9.75 67.47 9.75 55.27 9.75 43.07 9.75 30.97 0.65 27.17 0.65 160.97 9.75 164.77 9.75 152.57"/>
  </g>
  <path class="cls-3" d="M50.9,167.9c15.6,5.2,31.7,5.8,48.3,0V46.2h.1c-16.6,6-32.7,5.3-48.3,0Z" transform="translate(-9.35 -0.03)"/>
  <polygon class="cls-4" points="110.35 159.67 89.75 167.87 89.75 46.17 110.35 37.97 110.35 159.67"/>
  <polygon class="cls-4" points="20.95 159.67 41.55 167.87 41.55 46.17 20.95 37.97 20.95 159.67"/>
  <polygon points="89.75 45.77 90.05 46.37 88.45 46.97 86.85 47.47 85.35 47.97 83.75 48.37 82.15 48.77 80.65 49.07 79.05 49.37 77.55 49.67 75.95 49.97 74.45 50.17 72.95 50.27 71.35 50.47 69.85 50.57 68.35 50.67 66.75 50.67 65.25 50.67 63.75 50.67 62.25 50.57 60.75 50.47 59.25 50.37 57.75 50.17 56.25 49.97 54.75 49.77 53.25 49.47 51.75 49.17 50.25 48.87 48.75 48.57 47.25 48.17 45.75 47.77 44.25 47.37 42.75 46.87 41.35 46.47 41.55 45.77 42.95 46.27 44.45 46.77 45.95 47.17 47.35 47.57 48.85 47.97 50.35 48.27 51.85 48.57 53.35 48.87 54.85 49.17 56.35 49.37 57.75 49.57 59.25 49.67 60.75 49.77 62.25 49.87 63.75 49.97 65.25 49.97 66.75 49.97 68.35 49.97 69.85 49.87 71.35 49.77 72.85 49.67 74.35 49.47 75.95 49.27 77.45 49.07 78.95 48.77 80.55 48.47 82.05 48.07 83.55 47.77 85.15 47.27 86.65 46.87 88.25 46.37 89.75 45.77"/>
  <polygon points="89.85 167.47 90.05 168.07 88.55 168.67 86.95 169.17 85.35 169.57 83.85 170.07 82.25 170.37 80.65 170.77 79.15 171.07 77.55 171.37 76.05 171.57 74.45 171.77 72.95 171.97 71.35 172.07 69.85 172.17 68.35 172.27 66.75 172.27 65.25 172.27 63.75 172.27 62.25 172.27 60.75 172.07 59.15 171.97 57.65 171.87 56.15 171.67 54.65 171.37 53.15 171.17 51.65 170.87 50.15 170.57 48.65 170.27 47.15 169.87 45.65 169.47 44.15 169.07 42.65 168.57 41.25 168.07 41.45 167.47 42.85 167.97 44.35 168.37 45.85 168.87 47.35 169.27 48.75 169.57 50.25 169.97 51.75 170.27 53.25 170.57 54.75 170.77 56.25 170.97 57.75 171.17 59.25 171.37 60.75 171.47 62.25 171.57 63.75 171.67 65.25 171.67 66.75 171.67 68.35 171.67 69.85 171.57 71.35 171.47 72.85 171.37 74.45 171.17 75.95 170.97 77.45 170.67 79.05 170.47 80.55 170.07 82.15 169.77 83.65 169.37 85.25 168.97 86.75 168.47 88.35 167.97 89.85 167.47"/>
</svg>
