<svg id="Layer_1" data-name="Layer 1" xmlns="http://www.w3.org/2000/svg" width="131.32" height="168.64" viewBox="0 0 131.32 168.64">
  <defs>
    <style>
      .cls-1 {
        fill: none;
      }

      .cls-1, .cls-2, .cls-3 {
        stroke: #000;
        stroke-miterlimit: 22.93;
        stroke-width: 0.5px;
      }

      .cls-2 {
        fill: #e1e1e1;
      }

      .cls-2, .cls-3 {
        fill-rule: evenodd;
      }

      .cls-3 {
        fill: #baccd9;
        fill-opacity: 0.8;
        stroke-opacity: 0.8;
      }
    </style>
  </defs>
  <title>i-form3</title>
  <g id="Видимый_контур_ГОСТ_" data-name="Видимый контур ГОСТ ">
    <g id="_2666883369616" data-name=" 2666883369616">
      <line class="cls-1" x1="121.56" y1="30.87" x2="65.66" y2="7.77"/>
      <line class="cls-1" x1="9.76" y1="30.87" x2="65.66" y2="7.77"/>
      <line class="cls-1" x1="9.76" y1="152.47" x2="65.66" y2="129.47"/>
      <line class="cls-1" x1="9.76" y1="140.37" x2="65.66" y2="117.27"/>
      <line class="cls-1" x1="9.76" y1="128.17" x2="65.66" y2="105.07"/>
      <line class="cls-1" x1="9.76" y1="116.07" x2="65.66" y2="92.97"/>
      <line class="cls-1" x1="9.76" y1="103.87" x2="65.66" y2="80.77"/>
      <line class="cls-1" x1="9.76" y1="91.67" x2="65.66" y2="68.67"/>
      <line class="cls-1" x1="9.76" y1="79.57" x2="65.66" y2="56.47"/>
      <line class="cls-1" x1="9.76" y1="67.37" x2="65.66" y2="44.27"/>
      <line class="cls-1" x1="9.76" y1="55.27" x2="65.66" y2="32.17"/>
      <line class="cls-1" x1="9.76" y1="43.07" x2="65.66" y2="19.97"/>
      <line class="cls-1" x1="9.76" y1="164.67" x2="9.76" y2="30.87"/>
      <line class="cls-1" x1="121.56" y1="164.67" x2="121.56" y2="30.87"/>
      <line class="cls-1" x1="65.66" y1="141.57" x2="65.66" y2="7.77"/>
      <line class="cls-1" x1="99.16" y1="155.47" x2="99.16" y2="21.67"/>
      <line class="cls-1" x1="76.86" y1="146.17" x2="76.86" y2="12.47"/>
      <line class="cls-1" x1="88.06" y1="150.87" x2="88.06" y2="17.07"/>
      <line class="cls-1" x1="110.36" y1="160.07" x2="110.36" y2="26.27"/>
      <line class="cls-1" x1="121.56" y1="164.67" x2="65.66" y2="141.57"/>
      <line class="cls-1" x1="121.56" y1="152.47" x2="65.66" y2="129.47"/>
      <line class="cls-1" x1="121.56" y1="140.37" x2="65.66" y2="117.27"/>
      <line class="cls-1" x1="121.56" y1="128.17" x2="65.66" y2="105.07"/>
      <line class="cls-1" x1="121.56" y1="116.07" x2="65.66" y2="92.97"/>
      <line class="cls-1" x1="121.56" y1="103.87" x2="65.66" y2="80.77"/>
      <line class="cls-1" x1="121.56" y1="91.67" x2="65.66" y2="68.67"/>
      <line class="cls-1" x1="121.56" y1="79.57" x2="65.66" y2="56.47"/>
      <line class="cls-1" x1="121.56" y1="67.37" x2="65.66" y2="44.27"/>
      <line class="cls-1" x1="121.56" y1="55.27" x2="65.66" y2="32.17"/>
      <line class="cls-1" x1="121.56" y1="43.07" x2="65.66" y2="19.97"/>
      <line class="cls-1" x1="9.76" y1="164.67" x2="65.66" y2="141.57"/>
      <line class="cls-1" x1="9.76" y1="30.87" x2="0.66" y2="27.17"/>
      <line class="cls-1" x1="9.76" y1="164.67" x2="0.66" y2="160.87"/>
      <line class="cls-1" x1="121.56" y1="164.67" x2="130.66" y2="160.87"/>
      <line class="cls-1" x1="121.56" y1="30.87" x2="130.66" y2="27.17"/>
      <line class="cls-1" x1="130.66" y1="160.87" x2="130.66" y2="27.17"/>
      <line class="cls-1" x1="0.66" y1="160.87" x2="0.66" y2="27.17"/>
      <line class="cls-1" x1="0.66" y1="27.17" x2="65.66" y2="0.27"/>
      <line class="cls-1" x1="130.66" y1="27.17" x2="65.66" y2="0.27"/>
      <line class="cls-1" x1="43.26" y1="150.87" x2="43.26" y2="17.07"/>
      <line class="cls-1" x1="20.96" y1="160.07" x2="20.96" y2="26.27"/>
      <line class="cls-1" x1="32.16" y1="155.47" x2="32.16" y2="21.67"/>
      <line class="cls-1" x1="54.46" y1="146.17" x2="54.46" y2="12.47"/>
      <polygon class="cls-2" points="99.16 21.67 110.36 26.27 121.56 30.87 130.66 27.17 65.66 0.27 0.66 27.17 9.76 30.87 20.96 26.27 32.16 21.67 43.26 17.07 54.46 12.47 65.66 7.77 76.86 12.47 88.06 17.07 99.16 21.67"/>
      <polygon class="cls-2" points="110.36 26.27 99.16 21.67 99.16 33.87 110.36 38.47 110.36 26.27"/>
      <polygon class="cls-2" points="110.36 26.27 110.36 38.47 121.56 43.07 121.56 30.87 110.36 26.27"/>
      <polygon class="cls-2" points="121.56 30.87 121.56 43.07 121.56 55.27 121.56 67.37 121.56 79.57 121.56 91.67 121.56 103.87 121.56 116.07 121.56 128.17 121.56 140.37 121.56 152.47 121.56 164.67 130.66 160.87 130.66 27.17 121.56 30.87"/>
      <polygon class="cls-2" points="121.56 43.07 110.36 38.47 110.36 50.57 121.56 55.27 121.56 43.07"/>
      <polygon class="cls-2" points="121.56 55.27 110.36 50.57 110.36 62.77 121.56 67.37 121.56 55.27"/>
      <polygon class="cls-2" points="110.36 62.77 110.36 50.57 99.16 45.97 99.16 58.17 110.36 62.77"/>
      <polygon class="cls-2" points="99.16 45.97 110.36 50.57 110.36 38.47 99.16 33.87 99.16 45.97"/>
      <polygon class="cls-2" points="88.06 29.27 99.16 33.87 99.16 21.67 88.06 17.07 88.06 29.27"/>
      <polygon class="cls-2" points="88.06 29.27 88.06 17.07 76.86 12.47 76.86 24.57 88.06 29.27"/>
      <polygon class="cls-2" points="76.86 24.57 76.86 12.47 65.66 7.77 65.66 19.97 76.86 24.57"/>
      <polygon class="cls-2" points="76.86 24.57 65.66 19.97 65.66 32.17 76.86 36.77 76.86 24.57"/>
      <polygon class="cls-2" points="76.86 24.57 76.86 36.77 88.06 41.37 88.06 29.27 76.86 24.57"/>
      <polygon class="cls-2" points="88.06 29.27 88.06 41.37 99.16 45.97 99.16 33.87 88.06 29.27"/>
      <polygon class="cls-2" points="99.16 45.97 88.06 41.37 88.06 53.57 99.16 58.17 99.16 45.97"/>
      <polygon class="cls-2" points="88.06 53.57 88.06 41.37 76.86 36.77 76.86 48.87 88.06 53.57"/>
      <polygon class="cls-2" points="76.86 48.87 76.86 36.77 65.66 32.17 65.66 44.27 76.86 48.87"/>
      <polygon class="cls-2" points="76.86 48.87 65.66 44.27 65.66 56.47 76.86 61.07 76.86 48.87"/>
      <polygon class="cls-2" points="76.86 48.87 76.86 61.07 88.06 65.67 88.06 53.57 76.86 48.87"/>
      <polygon class="cls-2" points="88.06 53.57 88.06 65.67 99.16 70.37 99.16 58.17 88.06 53.57"/>
      <polygon class="cls-2" points="99.16 58.17 99.16 70.37 110.36 74.97 110.36 62.77 99.16 58.17"/>
      <polygon class="cls-2" points="110.36 62.77 110.36 74.97 121.56 79.57 121.56 67.37 110.36 62.77"/>
      <polygon class="cls-2" points="121.56 79.57 110.36 74.97 110.36 87.07 121.56 91.67 121.56 79.57"/>
      <polygon class="cls-2" points="110.36 87.07 110.36 74.97 99.16 70.37 99.16 82.47 110.36 87.07"/>
      <polygon class="cls-2" points="99.16 82.47 99.16 70.37 88.06 65.67 88.06 77.87 99.16 82.47"/>
      <polygon class="cls-2" points="88.06 77.87 88.06 65.67 76.86 61.07 76.86 73.27 88.06 77.87"/>
      <polygon class="cls-2" points="76.86 73.27 76.86 61.07 65.66 56.47 65.66 68.67 76.86 73.27"/>
      <polygon class="cls-2" points="121.56 152.47 110.36 147.97 110.36 160.07 121.56 164.67 121.56 152.47"/>
      <polygon class="cls-2" points="54.46 73.27 65.66 68.67 65.66 56.47 54.46 61.07 54.46 73.27"/>
      <polygon class="cls-2" points="54.46 61.07 65.66 56.47 65.66 44.27 54.46 48.87 54.46 61.07"/>
      <polygon class="cls-2" points="54.46 48.87 65.66 44.27 65.66 32.17 54.46 36.77 54.46 48.87"/>
      <polygon class="cls-2" points="54.46 36.77 65.66 32.17 65.66 19.97 54.46 24.57 54.46 36.77"/>
      <polygon class="cls-2" points="54.46 24.57 65.66 19.97 65.66 7.77 54.46 12.47 54.46 24.57"/>
      <polygon class="cls-2" points="20.96 38.47 20.96 26.27 9.76 30.87 9.76 43.07 20.96 38.47"/>
      <polygon class="cls-2" points="20.96 26.27 20.96 38.47 32.16 33.87 32.16 21.67 20.96 26.27"/>
      <polygon class="cls-2" points="32.16 21.67 32.16 33.87 43.26 29.27 43.26 17.07 32.16 21.67"/>
      <polygon class="cls-2" points="43.26 17.07 43.26 29.27 54.46 24.57 54.46 12.47 43.26 17.07"/>
      <polygon class="cls-2" points="54.46 24.57 43.26 29.27 43.26 41.37 54.46 36.77 54.46 24.57"/>
      <polygon class="cls-2" points="43.26 41.37 43.26 29.27 32.16 33.87 32.16 45.97 43.26 41.37"/>
      <polygon class="cls-2" points="32.16 45.97 32.16 33.87 20.96 38.47 20.96 50.57 32.16 45.97"/>
      <polygon class="cls-2" points="20.96 50.57 20.96 38.47 9.76 43.07 9.76 55.27 20.96 50.57"/>
      <polygon class="cls-2" points="20.96 50.57 9.76 55.27 9.76 67.37 20.96 62.77 20.96 50.57"/>
      <polygon class="cls-2" points="20.96 50.57 20.96 62.77 32.16 58.17 32.16 45.97 20.96 50.57"/>
      <polygon class="cls-2" points="32.16 45.97 32.16 58.17 43.26 53.57 43.26 41.37 32.16 45.97"/>
      <polygon class="cls-2" points="43.26 41.37 43.26 53.57 54.46 48.87 54.46 36.77 43.26 41.37"/>
      <polygon class="cls-2" points="54.46 48.87 43.26 53.57 43.26 65.67 54.46 61.07 54.46 48.87"/>
      <polygon class="cls-2" points="43.26 65.67 43.26 53.57 32.16 58.17 32.16 70.37 43.26 65.67"/>
      <polygon class="cls-2" points="32.16 70.37 32.16 58.17 20.96 62.77 20.96 74.97 32.16 70.37"/>
      <polygon class="cls-2" points="20.96 74.97 20.96 62.77 9.76 67.37 9.76 79.57 20.96 74.97"/>
      <polygon class="cls-2" points="20.96 74.97 9.76 79.57 9.76 91.67 20.96 87.07 20.96 74.97"/>
      <polygon class="cls-2" points="20.96 74.97 20.96 87.07 32.16 82.47 32.16 70.37 20.96 74.97"/>
      <polygon class="cls-2" points="32.16 70.37 32.16 82.47 43.26 77.87 43.26 65.67 32.16 70.37"/>
      <polygon class="cls-2" points="43.26 65.67 43.26 77.87 54.46 73.27 54.46 61.07 43.26 65.67"/>
      <polygon class="cls-2" points="54.46 73.27 43.26 77.87 43.26 90.07 54.46 85.37 54.46 73.27"/>
      <polygon class="cls-2" points="54.46 73.27 54.46 85.37 65.66 80.77 65.66 68.67 54.46 73.27"/>
      <polygon class="cls-2" points="54.46 85.37 65.66 80.77 65.66 68.67 54.46 73.27 54.46 85.37"/>
      <polygon class="cls-2" points="65.66 68.67 65.66 80.77 76.86 85.37 76.86 73.27 65.66 68.67"/>
      <polygon class="cls-2" points="76.86 73.27 76.86 85.37 88.06 90.07 88.06 77.87 76.86 73.27"/>
      <polygon class="cls-2" points="88.06 77.87 88.06 90.07 99.16 94.67 99.16 82.47 88.06 77.87"/>
      <polygon class="cls-2" points="99.16 82.47 99.16 94.67 110.36 99.27 110.36 87.07 99.16 82.47"/>
      <polygon class="cls-2" points="110.36 87.07 110.36 99.27 121.56 103.87 121.56 91.67 110.36 87.07"/>
      <polygon class="cls-2" points="121.56 103.87 110.36 99.27 110.36 111.37 121.56 116.07 121.56 103.87"/>
      <polygon class="cls-2" points="110.36 111.37 110.36 99.27 99.16 94.67 99.16 106.77 110.36 111.37"/>
      <polygon class="cls-2" points="99.16 106.77 99.16 94.67 88.06 90.07 88.06 102.17 99.16 106.77"/>
      <polygon class="cls-2" points="88.06 102.17 88.06 90.07 76.86 85.37 76.86 97.57 88.06 102.17"/>
      <polygon class="cls-2" points="76.86 97.57 76.86 85.37 65.66 80.77 65.66 92.97 76.86 97.57"/>
      <polygon class="cls-2" points="65.66 92.97 65.66 80.77 54.46 85.37 54.46 97.57 65.66 92.97"/>
      <polygon class="cls-2" points="54.46 97.57 54.46 85.37 43.26 90.07 43.26 102.17 54.46 97.57"/>
      <polygon class="cls-2" points="43.26 90.07 43.26 77.87 32.16 82.47 32.16 94.67 43.26 90.07"/>
      <polygon class="cls-2" points="43.26 90.07 32.16 94.67 32.16 106.77 43.26 102.17 43.26 90.07"/>
      <polygon class="cls-2" points="32.16 94.67 32.16 82.47 20.96 87.07 20.96 99.27 32.16 94.67"/>
      <polygon class="cls-2" points="32.16 94.67 20.96 99.27 20.96 111.37 32.16 106.77 32.16 94.67"/>
      <polygon class="cls-2" points="20.96 99.27 20.96 87.07 9.76 91.67 9.76 103.87 20.96 99.27"/>
      <polygon class="cls-2" points="20.96 99.27 9.76 103.87 9.76 116.07 20.96 111.37 20.96 99.27"/>
      <polygon class="cls-2" points="20.96 111.37 9.76 116.07 9.76 128.17 20.96 123.57 20.96 111.37"/>
      <polygon class="cls-2" points="20.96 123.57 9.76 128.17 9.76 140.37 20.96 135.77 20.96 123.57"/>
      <polygon class="cls-2" points="20.96 135.77 9.76 140.37 9.76 152.47 20.96 147.97 20.96 135.77"/>
      <polygon class="cls-2" points="20.96 147.97 9.76 152.47 9.76 164.67 20.96 160.07 20.96 147.97"/>
      <polygon class="cls-2" points="20.96 147.97 20.96 160.07 32.16 155.47 32.16 143.27 20.96 147.97"/>
      <polygon class="cls-2" points="20.96 147.97 32.16 143.27 32.16 131.17 20.96 135.77 20.96 147.97"/>
      <polygon class="cls-2" points="20.96 135.77 32.16 131.17 32.16 118.97 20.96 123.57 20.96 135.77"/>
      <polygon class="cls-2" points="20.96 123.57 32.16 118.97 32.16 106.77 20.96 111.37 20.96 123.57"/>
      <polygon class="cls-2" points="32.16 106.77 32.16 118.97 43.26 114.37 43.26 102.17 32.16 106.77"/>
      <polygon class="cls-2" points="43.26 114.37 32.16 118.97 32.16 131.17 43.26 126.47 43.26 114.37"/>
      <polygon class="cls-2" points="43.26 126.47 32.16 131.17 32.16 143.27 43.26 138.67 43.26 126.47"/>
      <polygon class="cls-2" points="43.26 138.67 32.16 143.27 32.16 155.47 43.26 150.87 43.26 138.67"/>
      <polygon class="cls-2" points="43.26 138.67 43.26 150.87 54.46 146.17 54.46 134.07 43.26 138.67"/>
      <polygon class="cls-2" points="43.26 138.67 54.46 134.07 54.46 121.87 43.26 126.47 43.26 138.67"/>
      <polygon class="cls-2" points="43.26 126.47 54.46 121.87 54.46 109.77 43.26 114.37 43.26 126.47"/>
      <polygon class="cls-2" points="43.26 114.37 54.46 109.77 54.46 97.57 43.26 102.17 43.26 114.37"/>
      <polygon class="cls-2" points="54.46 97.57 54.46 109.77 65.66 105.07 65.66 92.97 54.46 97.57"/>
      <polygon class="cls-2" points="65.66 105.07 54.46 109.77 54.46 121.87 65.66 117.27 65.66 105.07"/>
      <polygon class="cls-2" points="65.66 117.27 54.46 121.87 54.46 134.07 65.66 129.47 65.66 117.27"/>
      <polygon class="cls-2" points="65.66 129.47 54.46 134.07 54.46 146.17 65.66 141.57 65.66 129.47"/>
      <polygon class="cls-2" points="65.66 129.47 65.66 141.57 76.86 146.17 76.86 134.07 65.66 129.47"/>
      <polygon class="cls-2" points="76.86 134.07 76.86 146.17 88.06 150.87 88.06 138.67 76.86 134.07"/>
      <polygon class="cls-2" points="88.06 138.67 88.06 150.87 99.16 155.47 99.16 143.27 88.06 138.67"/>
      <polygon class="cls-2" points="99.16 143.27 99.16 155.47 110.36 160.07 110.36 147.97 99.16 143.27"/>
      <polygon class="cls-2" points="110.36 135.77 110.36 147.97 121.56 152.47 121.56 140.37 110.36 135.77"/>
      <polygon class="cls-2" points="110.36 147.97 110.36 135.77 99.16 131.17 99.16 143.27 110.36 147.97"/>
      <polygon class="cls-2" points="99.16 143.27 99.16 131.17 88.06 126.47 88.06 138.67 99.16 143.27"/>
      <polygon class="cls-2" points="88.06 138.67 88.06 126.47 76.86 121.87 76.86 134.07 88.06 138.67"/>
      <polygon class="cls-2" points="76.86 134.07 76.86 121.87 65.66 117.27 65.66 129.47 76.86 134.07"/>
      <polygon class="cls-2" points="65.66 117.27 76.86 121.87 76.86 109.77 65.66 105.07 65.66 117.27"/>
      <polygon class="cls-2" points="65.66 105.07 76.86 109.77 76.86 97.57 65.66 92.97 65.66 105.07"/>
      <polygon class="cls-2" points="76.86 97.57 76.86 109.77 88.06 114.37 88.06 102.17 76.86 97.57"/>
      <polygon class="cls-2" points="88.06 114.37 76.86 109.77 76.86 121.87 88.06 126.47 88.06 114.37"/>
      <polygon class="cls-2" points="88.06 102.17 88.06 114.37 99.16 118.97 99.16 106.77 88.06 102.17"/>
      <polygon class="cls-2" points="99.16 118.97 88.06 114.37 88.06 126.47 99.16 131.17 99.16 118.97"/>
      <polygon class="cls-2" points="99.16 118.97 99.16 131.17 110.36 135.77 110.36 123.57 99.16 118.97"/>
      <polygon class="cls-2" points="99.16 118.97 110.36 123.57 110.36 111.37 99.16 106.77 99.16 118.97"/>
      <polygon class="cls-2" points="110.36 111.37 110.36 123.57 121.56 128.17 121.56 116.07 110.36 111.37"/>
      <polygon class="cls-2" points="121.56 128.17 110.36 123.57 110.36 135.77 121.56 140.37 121.56 128.17"/>
      <polygon class="cls-2" points="9.76 152.47 9.76 140.37 9.76 128.17 9.76 116.07 9.76 103.87 9.76 91.67 9.76 79.57 9.76 67.37 9.76 55.27 9.76 43.07 9.76 30.87 0.66 27.17 0.66 160.87 9.76 164.67 9.76 152.47"/>
    </g>
    <polygon class="cls-3" points="110.36 160.07 89.76 168.27 89.76 46.67 110.36 38.47 110.36 160.07"/>
    <polygon class="cls-3" points="20.96 160.07 41.56 168.27 41.56 46.67 20.96 38.47 20.96 160.07"/>
    <polygon class="cls-3" points="89.76 168.27 41.56 168.27 41.56 46.67 89.76 46.67 89.76 168.27"/>
  </g>
</svg>
