<svg id="Layer_1" data-name="Layer 1" xmlns="http://www.w3.org/2000/svg" width="45" height="21" viewBox="0 0 45 21"><defs><style>.cls-1{fill:#0073cf;}.cls-2{fill:#fff;}</style></defs><title>b-ch</title><polygon class="cls-1" points="5 0 0 10.5 4.09 21 45 21 45 0 5 0"/><path class="cls-2" d="M7.21,13.82v-6l.73-.06a8.65,8.65,0,0,1,1,0,2.07,2.07,0,0,1,1.39.37,1.41,1.41,0,0,1,.42,1.12,1.8,1.8,0,0,1-.2.81,1.28,1.28,0,0,1-.67.6v0a1.27,1.27,0,0,1,.82.49,1.66,1.66,0,0,1,.24,1,1.6,1.6,0,0,1-.55,1.36,2.68,2.68,0,0,1-1.64.42q-.4,0-.78,0Zm.87-3.42H9a.76.76,0,0,0,.33-.08,1.08,1.08,0,0,0,.28-.21.85.85,0,0,0,.19-.3,1,1,0,0,0,.07-.37,1,1,0,0,0-.21-.69,1.13,1.13,0,0,0-.77-.21H8.4l-.32,0Zm0,2.68.34,0h.4a1.31,1.31,0,0,0,.89-.25,1,1,0,0,0,.28-.81,1.08,1.08,0,0,0-.24-.72,1.13,1.13,0,0,0-.87-.28h-.8Z"/><path class="cls-2" d="M11.8,13.83v-6h.87v2.32l.46-.06.4,0a2.21,2.21,0,0,1,.83.14,1.29,1.29,0,0,1,.81.93,2.5,2.5,0,0,1,.09.69,2.17,2.17,0,0,1-.49,1.58,2.18,2.18,0,0,1-1.61.49A12,12,0,0,1,11.8,13.83Zm.87-.78a4.13,4.13,0,0,0,.66.07.92.92,0,0,0,.8-.31,1.44,1.44,0,0,0,.23-.88,1.45,1.45,0,0,0-.22-.84.92.92,0,0,0-.79-.3H13l-.35.07Zm3.31.78v-6h.87v6Z"/><path class="cls-2" d="M17.75,10.19a14.79,14.79,0,0,1,.09-1.76,6.75,6.75,0,0,1,.25-1.24,2.84,2.84,0,0,1,.39-.8A2.07,2.07,0,0,1,19,5.92a1.93,1.93,0,0,1,.63-.25c.23,0,.47-.09.72-.12a5.1,5.1,0,0,0,.81-.14.9.9,0,0,0,.47-.29L21.7,6a.86.86,0,0,1-.22.15,1.58,1.58,0,0,1-.29.12,3,3,0,0,1-.39.08l-.52,0a2.39,2.39,0,0,0-.71.16,1.41,1.41,0,0,0-.53.38,2.22,2.22,0,0,0-.35.74,5.77,5.77,0,0,0-.18,1.19h0a1.94,1.94,0,0,1,.7-.78,1.84,1.84,0,0,1,1-.22,1.56,1.56,0,0,1,1.37.7A3.84,3.84,0,0,1,22,10.7a4.3,4.3,0,0,1-.56,2.47,1.81,1.81,0,0,1-1.57.81,2,2,0,0,1-.94-.21,1.7,1.7,0,0,1-.67-.66,3.55,3.55,0,0,1-.41-1.17A9.6,9.6,0,0,1,17.75,10.19Zm.9.65a5.25,5.25,0,0,0,.08.92,2.74,2.74,0,0,0,.22.75,1.55,1.55,0,0,0,.39.5.89.89,0,0,0,.56.18,1,1,0,0,0,.93-.58,4,4,0,0,0,.31-1.82,4,4,0,0,0-.26-1.57A.89.89,0,0,0,20,8.64a1.12,1.12,0,0,0-1,.57A3.33,3.33,0,0,0,18.65,10.84Z"/><path class="cls-2" d="M23,16.24V7.83h.61l.14.65h.05a1.5,1.5,0,0,1,1.39-.79,1.56,1.56,0,0,1,1.42.71A4.25,4.25,0,0,1,27,10.72a5.72,5.72,0,0,1-.15,1.36,3.6,3.6,0,0,1-.45,1,2.06,2.06,0,0,1-.7.65,1.93,1.93,0,0,1-.93.22,2.47,2.47,0,0,1-.54-.05,1.33,1.33,0,0,1-.45-.17v2.48Zm.87-3.36a1.14,1.14,0,0,0,.38.23,1.48,1.48,0,0,0,.56.08,1.11,1.11,0,0,0,1-.64,3.84,3.84,0,0,0,.38-1.85,6.13,6.13,0,0,0-.07-.91,2.9,2.9,0,0,0-.21-.7,1.23,1.23,0,0,0-.37-.46A.89.89,0,0,0,25,8.47c-.58,0-1,.36-1.13,1.07Z"/><path class="cls-2" d="M27.57,12.22a1.86,1.86,0,0,1,.17-.86,1.48,1.48,0,0,1,.49-.56,2,2,0,0,1,.76-.31,4.88,4.88,0,0,1,1-.09h.49c0-.24,0-.46,0-.65a1.62,1.62,0,0,0-.21-1,.88.88,0,0,0-.74-.28,3.44,3.44,0,0,0-.74.1,2.66,2.66,0,0,0-.65.26l-.29-.69a3,3,0,0,1,.84-.33,4.57,4.57,0,0,1,1.05-.12,2,2,0,0,1,.83.15,1.23,1.23,0,0,1,.49.41,1.42,1.42,0,0,1,.23.58,5.12,5.12,0,0,1,.05.7c0,.47,0,.94,0,1.4s0,.89,0,1.29,0,.59,0,.85a4.24,4.24,0,0,0,.12.74h-.66l-.23-.72h0a1.61,1.61,0,0,1-1.47.78A1.37,1.37,0,0,1,28,13.47,1.76,1.76,0,0,1,27.57,12.22Zm.9-.09a1.13,1.13,0,0,0,.23.74.8.8,0,0,0,.61.26,1.13,1.13,0,0,0,.77-.24,1.22,1.22,0,0,0,.39-.53V11.1l-.24,0H30a3.43,3.43,0,0,0-.56,0,1.5,1.5,0,0,0-.49.17.9.9,0,0,0-.35.32A.86.86,0,0,0,28.47,12.13Z"/><path class="cls-2" d="M31.8,8.62V7.83h3.8v.79H34.13v5.21h-.86V8.62Z"/><path class="cls-2" d="M36.08,13.83v-6H37v2.32l.46-.06.41,0a2.36,2.36,0,0,1,.85.14,1.41,1.41,0,0,1,.56.37,1.45,1.45,0,0,1,.31.56,2.5,2.5,0,0,1,.1.69,2.09,2.09,0,0,1-.53,1.58,2.35,2.35,0,0,1-1.66.49A12.19,12.19,0,0,1,36.08,13.83Zm.87-.78a4.13,4.13,0,0,0,.66.07c.75,0,1.13-.4,1.12-1.19a1.21,1.21,0,0,0-.26-.84,1.05,1.05,0,0,0-.83-.3H37.3l-.35.07Z"/></svg>