<svg id="Layer_1" data-name="Layer 1" xmlns="http://www.w3.org/2000/svg" width="310.76" height="443.58" viewBox="0 0 310.76 443.58"><defs><style>.cls-1{fill:#f3f3f3;}</style></defs><title>cu_bkq</title><path class="cls-1" d="M249.76,4Q288,4,324,22.23t57.78,49.38q22.59,32.92,22.59,71,0,31.18-13,55.45Q381,217.15,361.84,232.75q-11.29,8.67-32.15,20.79-11.29,6.95-15.64,9.54v4.33a38.88,38.88,0,0,1-4.77,19.06,47.7,47.7,0,0,1-12.6,14.73,78.61,78.61,0,0,1,21.72,27.72,81.74,81.74,0,0,1,7.82,35.52q0,34.65-24.33,58.91t-59.08,24.26q-34.76,0-59.08-24.26t-24.32-58.91a81.6,81.6,0,0,1,7.82-35.52A78.38,78.38,0,0,1,189,301.2a47.44,47.44,0,0,1-12.6-14.73,38.78,38.78,0,0,1-4.78-19.06V255.28q0-26.86,12.16-45.92,9.56-15.6,26.94-26.86,10.43-6.06,31.27-14.73,13-6.06,17.38-8.66,6.94-4.34,6.95-10.4t-7.39-10.39A28.27,28.27,0,0,0,244.55,134q-11.3,0-18.68,4.76t-21.29,23a40.32,40.32,0,0,1-27.36,15.16,41,41,0,0,1-30.85-8.23l-36.49-27.72a38.36,38.36,0,0,1-15.63-26,42.75,42.75,0,0,1,6.08-30.33Q128.13,43.89,164.62,24T249.76,4Zm36.49,254.71q0-7.8,8.69-15.59,5.22-4.34,20.85-13,28.68-16.46,40-30.32,20.85-23.39,20.85-57.18,0-30.32-19.12-57.18-17.37-24.26-46.91-39T249.76,31.76q-42.57,0-73.85,18.19-29.53,16.45-52.12,50.25a12.25,12.25,0,0,0-2.61,10,14,14,0,0,0,5.21,9.1L162.88,147a15,15,0,0,0,10.86,2.6,14,14,0,0,0,9.12-5.2q16.51-20.79,26.94-28.59,13.89-9.53,33.45-9.53t34.31,11.27q16.51,13,16.51,32.05a36.13,36.13,0,0,1-13,28.59q-7.82,6.06-29.54,14.73-25.2,11.26-35.62,19.93-16.51,15.58-16.51,42.45v12.13a13.37,13.37,0,0,0,13.9,13.86h59.08a13.37,13.37,0,0,0,13.9-13.86ZM242.81,419.89q22.59,0,39.1-16.46t16.51-39q0-22.53-16.51-39T242.81,309q-22.59,0-39.09,16.46t-16.51,39q0,22.53,16.51,39T242.81,419.89Z" transform="translate(-93.64 -4.03)"/></svg>