<svg id="Layer_1" data-name="Layer 1" xmlns="http://www.w3.org/2000/svg" width="89.06" height="120" viewBox="0 0 89.06 120"><defs><style>.cls-1{fill:#0073cf;}</style></defs><title>cu_i-pin3</title><path class="cls-1" d="M225,244a2.35,2.35,0,1,1-2.34-2.35A2.34,2.34,0,0,1,225,244Z" transform="translate(-210.97 -195.5)"/><path class="cls-1" d="M254.2,315.11a2.36,2.36,0,0,0,2.6,0l21.31-14.21a49.11,49.11,0,0,0,21.92-41V212a2.33,2.33,0,0,0-1.6-2.22l-42.19-14.13a2.34,2.34,0,0,0-1.48,0l-42.19,14.13A2.33,2.33,0,0,0,211,212v48a49.11,49.11,0,0,0,21.92,41Zm-38.54-55.17V213.66l39.84-13.34,39.84,13.34v46.28A44.44,44.44,0,0,1,275.51,297l-20,13.34-20-13.34A44.44,44.44,0,0,1,215.66,259.94Z" transform="translate(-210.97 -195.5)"/><path class="cls-1" d="M254.2,303.84a2.36,2.36,0,0,0,2.6,0l16.11-10.74A39.77,39.77,0,0,0,290.66,260V218.73a2.35,2.35,0,0,0-1.6-2.22l-32.81-11a2.27,2.27,0,0,0-1.5,0l-32.81,11a2.35,2.35,0,0,0-1.6,2.22v15.91a2.35,2.35,0,1,0,4.69,0V220.42L255.5,210.2,286,220.42V260a35.08,35.08,0,0,1-15.66,29.25l-14.81,9.87-14.81-9.87A35.08,35.08,0,0,1,225,260v-6.56a2.35,2.35,0,0,0-4.69,0V260a39.77,39.77,0,0,0,17.75,33.15Z" transform="translate(-210.97 -195.5)"/><path class="cls-1" d="M245.84,272.42a7,7,0,0,0,9.94,0l18.75-18.75a7,7,0,0,0-9.94-9.94l-13.78,13.78-4.4-4.4a7,7,0,0,0-9.94,9.94Zm-6.06-16a2.35,2.35,0,0,1,3.31,0l6.06,6.06a2.34,2.34,0,0,0,3.32,0l15.44-15.43a2.34,2.34,0,1,1,3.31,3.31l-18.75,18.75a2.33,2.33,0,0,1-3.31,0l-9.38-9.38A2.33,2.33,0,0,1,239.78,256.42Z" transform="translate(-210.97 -195.5)"/></svg>