<svg id="Layer_1" data-name="Layer 1" xmlns="http://www.w3.org/2000/svg" width="120" height="120" viewBox="0 0 120 120"><defs><style>.cls-1{fill:#0073cf;}</style></defs><title>cu_i-pin1</title><path class="cls-1" d="M303.2,219h3.7a2.34,2.34,0,1,0,0-4.68H298a2.34,2.34,0,0,0-2.34,2.34v8.9a2.35,2.35,0,0,0,4.69,0v-2.58A55.32,55.32,0,1,1,256,200.68a56.11,56.11,0,0,1,6.75.41,2.34,2.34,0,1,0,.56-4.65A61.43,61.43,0,0,0,256,196,60,60,0,1,0,303.2,219Z" transform="translate(-196 -196)"/><path class="cls-1" d="M221.41,231.37a2.35,2.35,0,0,0-3.24.73,44.75,44.75,0,1,0,14-14,2.34,2.34,0,0,0,2.5,4,40.06,40.06,0,1,1-7,62.23,40.31,40.31,0,0,1-5.55-49.72A2.34,2.34,0,0,0,221.41,231.37Z" transform="translate(-196 -196)"/><path class="cls-1" d="M286.45,258.38h2.89a2.34,2.34,0,1,0,0-4.68h-2.89a2.34,2.34,0,0,0,0,4.68Z" transform="translate(-196 -196)"/><path class="cls-1" d="M220.32,256a2.34,2.34,0,0,0,2.34,2.34h2.89a2.34,2.34,0,0,0,0-4.68h-2.89A2.34,2.34,0,0,0,220.32,256Z" transform="translate(-196 -196)"/><path class="cls-1" d="M258.38,225.55v-2.89a2.34,2.34,0,1,0-4.68,0v2.89a2.34,2.34,0,1,0,4.68,0Z" transform="translate(-196 -196)"/><path class="cls-1" d="M253.62,286.45v2.89a2.34,2.34,0,0,0,4.68,0v-2.89a2.34,2.34,0,0,0-4.68,0Z" transform="translate(-196 -196)"/><path class="cls-1" d="M244.26,241a2.34,2.34,0,0,0-3.31,3.31l7.94,7.94a8,8,0,0,0-1,3.8,8.07,8.07,0,0,0,16.14,0,8,8,0,0,0-1-3.8l16-16a2.34,2.34,0,1,0-3.31-3.31l-16,16a8,8,0,0,0-7.6,0ZM259.38,256a3.38,3.38,0,1,1-3.38-3.38A3.38,3.38,0,0,1,259.38,256Z" transform="translate(-196 -196)"/><path class="cls-1" d="M227.68,227.68a2.35,2.35,0,1,0-1.66.68A2.39,2.39,0,0,0,227.68,227.68Z" transform="translate(-196 -196)"/><path class="cls-1" d="M272.22,203a2.36,2.36,0,1,0-1.65-.69A2.34,2.34,0,0,0,272.22,203Z" transform="translate(-196 -196)"/></svg>