<svg id="Layer_2" data-name="Layer 2" xmlns="http://www.w3.org/2000/svg" width="24" height="24" viewBox="0 0 24 24"><defs><style>.cls-1{fill:#fff;}</style></defs><title>i-catalogue</title><rect class="cls-1" x="5" y="5" width="2" height="2"/><rect class="cls-1" x="9" y="5" width="10" height="2"/><rect class="cls-1" x="5" y="9" width="2" height="2"/><rect class="cls-1" x="9" y="9" width="10" height="2"/><rect class="cls-1" x="5" y="13" width="2" height="2"/><rect class="cls-1" x="9" y="13" width="10" height="2"/><rect class="cls-1" x="5" y="17" width="2" height="2"/><rect class="cls-1" x="9" y="17" width="10" height="2"/><polygon class="cls-1" points="1 23 1 4 0 4 0 23 0 24 12 24 12 23 1 23"/><polygon class="cls-1" points="23 1 23 20 24 20 24 1 24 0 12 0 12 1 23 1"/></svg>