<?xml version="1.0" encoding="utf-8"?>
<!-- Generator: Adobe Illustrator 25.0.1, SVG Export Plug-In . SVG Version: 6.00 Build 0)  -->
<svg version="1.1" id="Layer_1" xmlns="http://www.w3.org/2000/svg" xmlns:xlink="http://www.w3.org/1999/xlink" x="0px" y="0px"
	 width="26px" height="18px" viewBox="0 0 26 18" style="enable-background:new 0 0 26 18;" xml:space="preserve">
<style type="text/css">
	.st0{enable-background:new    ;}
	.st1{fill:#999999;}
</style>
<g class="st0">
	<path class="st1" d="M17.2,14.9c0,0.2-0.1,0.4-0.2,0.5l-0.9,0.9c-0.1,0.1-0.3,0.2-0.5,0.2s-0.4-0.1-0.5-0.2L12,13.2
		c-0.1-0.1-0.2-0.3-0.2-0.5v-0.5c-1.2,0.9-2.5,1.4-4,1.4c-1.2,0-2.3-0.3-3.3-0.9c-1-0.6-1.8-1.4-2.4-2.4S1.2,8.2,1.2,7
		S1.5,4.8,2,3.8c0.6-1,1.4-1.8,2.4-2.4s2.1-0.9,3.3-0.9S10,0.8,11,1.4s1.8,1.4,2.4,2.4c0.6,1,0.9,2.1,0.9,3.3c0,1.5-0.5,2.8-1.4,4
		h0.5c0.2,0,0.4,0.1,0.5,0.2l3.1,3.1C17.1,14.6,17.2,14.7,17.2,14.9z M9.7,10.5c0.6-0.4,1.1-0.8,1.5-1.5c0.4-0.6,0.5-1.3,0.5-2
		s-0.2-1.4-0.5-2c-0.4-0.6-0.8-1.1-1.5-1.5C9.1,3.1,8.4,3,7.7,3s-1.4,0.2-2,0.5C5,3.9,4.6,4.4,4.2,5S3.7,6.3,3.7,7s0.2,1.4,0.5,2
		c0.4,0.6,0.8,1.1,1.5,1.5C6.3,10.9,7,11,7.7,11C8.4,11.1,9.1,10.9,9.7,10.5z"/>
</g>
</svg>
