<?xml version="1.0" encoding="utf-8"?>
<!-- Generator: Adobe Illustrator 25.0.1, SVG Export Plug-In . SVG Version: 6.00 Build 0)  -->
<svg version="1.1" id="Layer_1" xmlns="http://www.w3.org/2000/svg" xmlns:xlink="http://www.w3.org/1999/xlink" x="0px" y="0px"
	 width="26px" height="18px" viewBox="0 0 26 18" style="enable-background:new 0 0 26 18;" xml:space="preserve">
<style type="text/css">
	.st0{enable-background:new    ;}
	.st1{fill:#999999;}
</style>
<g class="st0">
	<path class="st1" d="M19.2,13.9c0,0.2-0.1,0.3-0.2,0.4L18.3,15c-0.1,0.1-0.3,0.2-0.4,0.2s-0.3-0.1-0.4-0.2L15,12.5
		c-0.1-0.1-0.2-0.3-0.2-0.4v-0.4c-0.9,0.7-2,1.1-3.2,1.1c-1,0-1.8-0.2-2.7-0.7C8.1,11.6,7.5,11,7,10.2C6.4,9.3,6.2,8.4,6.2,7.5
		s0.2-1.8,0.7-2.7C7.4,4,8,3.4,8.8,2.9s1.7-0.7,2.7-0.7s1.8,0.2,2.7,0.7C14.9,3.4,15.5,4,16,4.8s0.7,1.7,0.7,2.7
		c0,1.2-0.4,2.3-1.1,3.3H16c0.2,0,0.3,0.1,0.4,0.2l2.5,2.5C19.1,13.6,19.2,13.7,19.2,13.9z M13.1,10.3c0.5-0.3,0.9-0.7,1.2-1.2
		s0.4-1,0.4-1.6s-0.1-1.1-0.4-1.6S13.6,5,13.1,4.7c-0.5-0.3-1-0.4-1.6-0.4s-1.1,0.1-1.6,0.4c-0.6,0.2-1,0.6-1.3,1.1
		c-0.3,0.5-0.4,1-0.4,1.6S8.3,8.5,8.6,9c0.3,0.5,0.7,0.9,1.2,1.2s1,0.4,1.6,0.4C12,10.7,12.6,10.6,13.1,10.3z"/>
</g>
</svg>
