<svg xmlns="http://www.w3.org/2000/svg" width="100" height="100" viewBox="0 0 100 100"><defs><style>.cls-1{fill:#7fb9e7;}.cls-2{fill:#0073cf;}</style></defs><title>i-whybuy6</title><g id="Layer_1" data-name="Layer 1"><polygon class="cls-1" points="2 98 2 14 0 14 0 98 0 100 2 100 50 100 50 98 2 98"/><polygon class="cls-1" points="98 2 98 86 100 86 100 2 100 0 98 0 50 0 50 2 98 2"/></g><g id="Layer_7" data-name="Layer 7"><path class="cls-2" d="M79.83,50.48,73.34,39.85v0l0,0,0-.05,0,0,0-.06h0l0,0h0l-.1-.09h0a.24.24,0,0,0-.09-.06h0l-.11,0h0l-.13,0h0l-19-4.84-.08,0A8.05,8.05,0,0,0,52,32a13.18,13.18,0,0,0-6.61-3.75,21.94,21.94,0,0,0-4.26-.58H38.84V26.36a2.35,2.35,0,0,0-1.48-2.19,2.21,2.21,0,0,0-.87-.17,2.31,2.31,0,0,0-1.71.75l-5.46,5.83a2.38,2.38,0,0,0-.64,1.7,2.35,2.35,0,0,0,.75,1.64L34.89,39a2.31,2.31,0,0,0,1.6.63,2.33,2.33,0,0,0,2.35-2.35v-.56h2a13.24,13.24,0,0,1,2.42.2l-.4.23-13.27,7.3,0,0h0l0,0,0,0h0l0,0,0,0h0v0h0l0,0,0,0,0,0,0,0,0,0,0,0h0l0,.06,0,0-1.91,3.23a1.17,1.17,0,1,0,2,1.2l1.47-2.47,13.41,3.28L51.83,52l-8,13.13L23,59.89l1.68-2.84a1.18,1.18,0,1,0-2-1.21L20.17,60a1.2,1.2,0,0,0-.08,1.06,1.18,1.18,0,0,0,.8.69L29,63.84v5.23a1.18,1.18,0,0,0,.89,1.15L53.39,76h.45L54,76h0l.12,0h0l.12-.07h0L72.93,64.91a1.2,1.2,0,0,0,.59-1V52.27h5.3a1.18,1.18,0,0,0,1-1.79ZM69.24,40.9,53.49,50l-2.68-.66V45c0,.28.06.45.07.49a2.34,2.34,0,0,0,2.34,2.21h.11a2.36,2.36,0,0,0,2.25-2.44c0-.1-.09-2.44-.5-5.14q-.26-1.65-.6-3ZM36.49,34.39v2.92L31,32.2l5.46-5.84V30s3.28-.06,4.37,0c2.53.14,6.66.62,9.46,3.65,2.38,2.57,2.91,11.67,2.91,11.67s-.72-10.94-12.37-10.94ZM44,39.25,46.25,38a8.1,8.1,0,0,1,2.23,1.81v.08l0,8.9L33.39,45.09ZM31.35,64.43l12.76,3.23a1,1,0,0,0,.29,0,1.19,1.19,0,0,0,1-.57l1.21-2,3.28.61.22,0a1.17,1.17,0,0,0,1.15-1,1.18,1.18,0,0,0-.94-1.38L47.93,63l4.56-7.51V73.32L31.35,68.15Zm39.81-1.22L54.85,72.77V51.94l16.31-9.43Zm2.36-13.3V44.66l3.2,5.25Z" transform="translate(0 0)"/><path class="cls-2" d="M66,54.72a1.16,1.16,0,0,0-1.18,0l-7.77,4.54a1.18,1.18,0,0,0-.58,1v7.13a1.19,1.19,0,0,0,.59,1,1.14,1.14,0,0,0,1.18,0L66,63.84a1.18,1.18,0,0,0,.58-1V55.74A1.19,1.19,0,0,0,66,54.72Zm-1.76,7.43-5.42,3.2V61l5.42-3.16Z" transform="translate(0 0)"/><path class="cls-2" d="M50.33,67.56l-2.49-.47a1.18,1.18,0,0,0-.43,2.32l2.49.47.22,0a1.18,1.18,0,0,0,.21-2.34Z" transform="translate(0 0)"/><path class="cls-2" d="M57.65,55.9a1.16,1.16,0,0,0,.59-.16l3.3-1.93a1.18,1.18,0,0,0-1.19-2l-3.3,1.94a1.18,1.18,0,0,0,.6,2.19Z" transform="translate(0 0)"/><path class="cls-2" d="M64.11,49.58l0,0a1.18,1.18,0,0,0,.26,2.33.84.84,0,0,0,.27,0h.06a1.18,1.18,0,0,0-.54-2.3Z" transform="translate(0 0)"/><path class="cls-2" d="M26,53.82a1.24,1.24,0,0,0,.27,0l.05,0a1.18,1.18,0,1,0-.53-2.29h-.06A1.18,1.18,0,0,0,26,53.82Z" transform="translate(0 0)"/></g></svg>