<svg xmlns="http://www.w3.org/2000/svg" width="100" height="100" viewBox="0 0 100 100"><defs><style>.cls-1{fill:#7fb9e7;}.cls-2{fill:#0073cf;}</style></defs><title>i-whybuy1</title><g id="Layer_1" data-name="Layer 1"><polygon class="cls-1" points="2 98 2 14 0 14 0 98 0 100 2 100 50 100 50 98 2 98"/><polygon class="cls-1" points="98 2 98 86 100 86 100 2 100 0 98 0 50 0 50 2 98 2"/></g><g id="Layer_2" data-name="Layer 2"><path class="cls-2" d="M70.77,59.52v-4a1.17,1.17,0,1,0-2.34,0v3.29L48,70V47.76l20.4-11.17V46.65a1.17,1.17,0,1,0,2.34,0v-12a1.17,1.17,0,0,0-.61-1L47.43,21.14a1.19,1.19,0,0,0-1.13,0L23.56,33.59a1.19,1.19,0,0,0-.61,1v8.84a1.18,1.18,0,0,0,2.35,0V36.59L31.51,40v7.19a1.18,1.18,0,0,0,.6,1l5.62,3.12a1.16,1.16,0,0,0,.57.15,1.11,1.11,0,0,0,.59-.16,1.16,1.16,0,0,0,.58-1v-6l6.22,3.4V70L25.3,58.83V52.65a1.18,1.18,0,0,0-2.35,0v6.87a1.17,1.17,0,0,0,.61,1L46.3,73a1.12,1.12,0,0,0,.56.15,1.16,1.16,0,0,0,.57-.15L70.16,60.54A1.15,1.15,0,0,0,70.77,59.52Zm-15-31.14L58.59,30,38.34,41.07l-2.29-1.26-1-.53L55.37,28.16Zm5.31,2.9,6.09,3.34L46.86,45.74,40.77,42.4ZM46.86,23.5l6.08,3.33L32.65,38l-6.09-3.33Zm-13,23V41.28l1,.58,2.22,1.25v5.21Z" transform="translate(0 0)"/><path class="cls-2" d="M69.6,49.81A1.16,1.16,0,0,0,68.43,51a1.13,1.13,0,0,0,.34.82,1.16,1.16,0,0,0,1.66,0,1.13,1.13,0,0,0,.34-.82,1.16,1.16,0,0,0-1.17-1.17Z" transform="translate(0 0)"/><path class="cls-2" d="M25,48.82A1.14,1.14,0,0,0,25.3,48a1.18,1.18,0,0,0-1.18-1.17,1.15,1.15,0,0,0-.82.34A1.18,1.18,0,0,0,23,48a1.14,1.14,0,0,0,.35.82,1.16,1.16,0,0,0,.82.35A1.18,1.18,0,0,0,25,48.82Z" transform="translate(0 0)"/><path class="cls-2" d="M78.25,56.46v-18a1.19,1.19,0,0,0,.58.15,1.16,1.16,0,0,0,.83-.34,1.19,1.19,0,0,0,0-1.66l-1.75-1.74a1.19,1.19,0,0,0-1.66,0l-1.74,1.74a1.17,1.17,0,0,0,1.4,1.85v18a1.17,1.17,0,0,0-1.4,1.84L76.25,60a1.16,1.16,0,0,0,1.66,0l1.75-1.74a1.17,1.17,0,0,0-1.41-1.84Z" transform="translate(0 0)"/><path class="cls-2" d="M73,64l-2.35-.77a1.17,1.17,0,0,0-.92,2.14L52.57,74.75a1.16,1.16,0,0,0-.83-1.11,1.18,1.18,0,0,0-1.46.78l-.72,2.36a1.18,1.18,0,0,0,.79,1.46l2.36.71a1.33,1.33,0,0,0,.34,0,1.18,1.18,0,0,0,1.12-.83,1.16,1.16,0,0,0-.52-1.34l17-9.3a1.18,1.18,0,0,0,.81,1,1.13,1.13,0,0,0,.36.06,1.18,1.18,0,0,0,1.12-.8l.77-2.34a1.14,1.14,0,0,0-.06-.89A1.2,1.2,0,0,0,73,64Z" transform="translate(0 0)"/><path class="cls-2" d="M43.47,74.42A1.18,1.18,0,0,0,42,73.64a1.16,1.16,0,0,0-.83,1.11L24.07,65.39a1.17,1.17,0,0,0-.92-2.14L20.8,64h0a1.15,1.15,0,0,0-.73,1.46h0l.77,2.34a1.18,1.18,0,0,0,1.12.8,1.13,1.13,0,0,0,.36-.06,1.18,1.18,0,0,0,.81-1l17,9.3a1.16,1.16,0,0,0-.52,1.34A1.18,1.18,0,0,0,40.7,79,1.33,1.33,0,0,0,41,79l2.33-.7h0a1.12,1.12,0,0,0,.68-.55,1.17,1.17,0,0,0,.1-.91Z" transform="translate(0 0)"/></g></svg>