<svg id="Capa_1" data-name="Capa 1" xmlns="http://www.w3.org/2000/svg" width="120" height="120" viewBox="0 0 120 120"><defs><style>.cls-1{fill:#0073cf;}</style></defs><title>cu_i-pin2</title><path class="cls-1" d="M256.23,226.72,234.2,214a2.33,2.33,0,0,0-2.34,0l-22,12.72a2.33,2.33,0,0,0-1.17,2v25.44a2.33,2.33,0,0,0,1.17,2l22,12.72a2.33,2.33,0,0,0,1.17.31,2.3,2.3,0,0,0,1.17-.31l22-12.72a2.34,2.34,0,0,0,1.18-2V228.75A2.34,2.34,0,0,0,256.23,226.72Zm-25.54,36.13-15-8.66,4.75-2.75a2.34,2.34,0,1,0-2.34-4.05l-4.76,2.74V232.81l15,8.66-2.86,1.65a2.35,2.35,0,0,0,1.17,4.38,2.27,2.27,0,0,0,1.17-.32l2.87-1.65Zm2.34-31a2.34,2.34,0,0,0-2.34,2.34v3.25l-15-8.66,15-8.66v4.73a2.35,2.35,0,1,0,4.69,0v-4.73l15,8.66-15,8.66v-3.25A2.35,2.35,0,0,0,233,231.82Zm19.69,18.31-3.51-2a2.34,2.34,0,1,0-2.34,4.06l3.51,2-15,8.66V245.53l3.94,2.28a2.34,2.34,0,0,0,2.34-4.06l-3.94-2.28,15-8.66Z" transform="translate(-196 -196)"/><path class="cls-1" d="M314.83,261.69l-27.66-16v-2.62a.82.82,0,0,1,.82-.82h4.92a5.51,5.51,0,0,0,5.51-5.51v-2.55l4.65-3.35a2.34,2.34,0,0,0,1-1.9v-5.56h3.28a2.34,2.34,0,0,0,2.34-2.34v-11h4a2.34,2.34,0,0,0,0-4.68h-4v-7a2.34,2.34,0,0,0-2.34-2.34h-22.5a2.35,2.35,0,0,0-2.35,2.34v7H270.06v-7a2.34,2.34,0,0,0-2.34-2.34H198.34a2.34,2.34,0,0,0-2.34,2.34v86.25a2.35,2.35,0,0,0,2.34,2.35h55.32V297a2.33,2.33,0,0,0,1.17,2l28.83,16.65a2.3,2.3,0,0,0,1.17.31,2.33,2.33,0,0,0,1.17-.31L314.83,299a2.35,2.35,0,0,0,1.17-2V263.72A2.36,2.36,0,0,0,314.83,261.69Zm-15.47-33.91-3.28,2.36-3.28-2.36v-4.36h6.56Zm-12.19-27.09H305v18H287.17ZM254,262.45a2.37,2.37,0,0,0-.31,1.23v18.57h-53V200.69h64.69v4.69H241.47a2.34,2.34,0,0,0,0,4.68h23.91V247a2.34,2.34,0,1,0,4.68,0V210.06h12.42v11a2.35,2.35,0,0,0,2.35,2.34h3.28V229a2.33,2.33,0,0,0,1,1.9l4.65,3.35v2.55a.82.82,0,0,1-.82.82H288a5.52,5.52,0,0,0-5.51,5.51v2.62l-27.06,15.62A2.34,2.34,0,0,0,254,262.45Zm28.51,47.15-24.14-13.94v-28l24.14,13.88Zm28.83-13.94L287.17,309.6V281.55l4.77-2.74a2.34,2.34,0,1,0-2.34-4.06l-4.77,2.74-24.05-13.82,24.05-13.88,24,13.88-3.51,2a2.34,2.34,0,0,0,2.34,4.06l3.61-2.08Z" transform="translate(-196 -196)"/><path class="cls-1" d="M300,270.75a2.33,2.33,0,1,0,.69,1.66A2.34,2.34,0,0,0,300,270.75Z" transform="translate(-196 -196)"/><path class="cls-1" d="M234.66,206.06a2.34,2.34,0,1,0,.69,1.66A2.36,2.36,0,0,0,234.66,206.06Z" transform="translate(-196 -196)"/></svg>