<?xml version="1.0" encoding="UTF-8"?><svg id="Layer_1" xmlns="http://www.w3.org/2000/svg" width="16" height="16" viewBox="0 0 16 16"><defs><style>.cls-1{isolation:isolate;}.cls-2{fill:#999;}</style></defs><g class="cls-1"><path class="cls-2" d="M16,14.4c0,.2-.1.4-.2.5l-.9.9c-.1.1-.3.2-.5.2s-.4-.1-.5-.2l-3.1-3.1c-.1-.1-.2-.3-.2-.5v-.5c-1.2.9-2.5,1.4-4,1.4-1.2,0-2.3-.3-3.3-.9-1-.6-1.8-1.4-2.4-2.4s-.9-2.1-.9-3.3.3-2.2.8-3.2c.6-1,1.4-1.8,2.4-2.4s2.1-.9,3.3-.9,2.3.3,3.3.9c1,.6,1.8,1.4,2.4,2.4.6,1,.9,2.1.9,3.3,0,1.5-.5,2.8-1.4,4h.5c.2,0,.4.1.5.2l3.1,3.1c.1.2.2.3.2.5ZM8.5,10c.6-.4,1.1-.8,1.5-1.5.4-.6.5-1.3.5-2s-.2-1.4-.5-2c-.4-.6-.8-1.1-1.5-1.5-.6-.4-1.3-.5-2-.5s-1.4.2-2,.5c-.7.4-1.1.9-1.5,1.5s-.5,1.3-.5,2,.2,1.4.5,2c.4.6.8,1.1,1.5,1.5.6.4,1.3.5,2,.5.7.1,1.4-.1,2-.5Z"/></g></svg>