<svg width="31" height="31" viewBox="0 0 31 31" fill="none" xmlns="http://www.w3.org/2000/svg">
<path d="M30.3997 23.557L23.1376 16.2471C22.2006 15.3699 21.0293 14.902 19.7994 14.902C18.9209 14.902 17.9839 15.136 17.2225 15.6623L12.2445 10.6915V6.36404L4.74816 0.75L0.999986 4.49269L6.62224 11.9781H10.8975L15.8755 17.0073C14.7042 18.8202 14.8799 21.2763 16.5198 22.9137L23.7818 30.1652C24.1332 30.5161 24.6603 30.75 25.1288 30.75C25.5974 30.75 26.0659 30.5161 26.4173 30.1652L30.3997 26.1886C31.161 25.4868 31.161 24.2588 30.3997 23.557ZM10.3704 10.1067H7.55928L3.45972 4.66813L4.92385 3.26462L10.3704 7.29971V10.1067ZM25.1288 28.8202L17.8082 21.5687C17.2811 21.0424 16.9883 20.3406 16.9883 19.5804C16.9883 18.8202 17.2811 18.1184 17.8082 17.5921C18.3353 17.0658 19.0381 16.7734 19.7994 16.7734C20.5607 16.7734 21.2635 17.0658 21.7906 17.5921L29.1113 24.902L25.1288 28.8202ZM4.74816 26.0132C4.74816 26.5395 5.15811 26.9488 5.6852 26.9488C6.15372 26.9488 6.62224 26.5395 6.62224 26.0132C6.62224 25.5453 6.15372 25.0775 5.6852 25.0775C5.15811 25.0775 4.74816 25.5453 4.74816 26.0132ZM17.164 4.66813C18.511 3.38158 20.2679 2.62135 22.0834 2.62135C22.4934 2.62135 22.9034 2.67982 23.3133 2.7383L19.2723 6.83187L20.0337 11.6857L24.8946 12.4459L28.9941 8.41082C29.3455 10.633 28.6427 12.9137 27.0615 14.5512C26.5344 15.0775 25.9487 15.4868 25.3045 15.7792L26.6515 17.1827C27.2957 16.8319 27.8228 16.364 28.3499 15.8377C30.5754 13.6155 31.4539 10.5161 30.6925 7.47515C30.5754 6.89035 30.1069 6.48099 29.5798 6.30556C28.9941 6.1886 28.4085 6.30556 27.9985 6.71491L24.2504 10.4576L21.6735 10.0482L21.2635 7.47515L25.0117 3.73246C25.3631 3.3231 25.5388 2.7383 25.4217 2.15351C25.246 1.62719 24.7774 1.15936 24.2504 1.0424C21.205 0.282164 18.101 1.15936 15.8755 3.38158C15.1142 4.14181 14.5285 5.01901 14.1186 5.95468V9.93129L15.407 11.2178C14.8214 8.82018 15.4656 6.36404 17.164 4.66813ZM7.26646 28.1184C6.27085 29.0541 4.57246 29.0541 3.57685 28.1184C2.58124 27.0658 2.58124 25.4284 3.57685 24.4342L12.1274 15.8962L10.8389 14.6096L2.28842 23.1477C0.531464 24.8436 0.531464 27.7091 2.28842 29.405C3.10833 30.2822 4.22107 30.6915 5.39237 30.6915C6.62224 30.6915 7.73498 30.2822 8.55489 29.405L14.5285 23.4401C14.1186 22.9137 13.8258 22.3289 13.5915 21.7442L7.26646 28.1184Z" fill="#666666"/>
</svg>
