<svg xmlns="http://www.w3.org/2000/svg" width="100" height="100" viewBox="0 0 100 100"><defs><style>.cls-1{fill:#7fb9e7;}.cls-2{fill:#0073cf;}</style></defs><title>i-whybuy2</title><g id="Layer_1" data-name="Layer 1"><polygon class="cls-1" points="2 98 2 14 0 14 0 98 0 100 2 100 50 100 50 98 2 98"/><polygon class="cls-1" points="98 2 98 86 100 86 100 2 100 0 98 0 50 0 50 2 98 2"/></g><g id="Layer_3" data-name="Layer 3"><path class="cls-2" d="M33.13,61.59a.93.93,0,0,0-.94.92.94.94,0,1,1-.94-.92.93.93,0,1,0,0-1.86,2.78,2.78,0,1,0,2.81,2.78A.93.93,0,0,0,33.13,61.59Z" transform="translate(0 0)"/><path class="cls-2" d="M70.63,61.59a.93.93,0,0,0-.94.92.94.94,0,1,1-.94-.92.93.93,0,1,0,0-1.86,2.78,2.78,0,1,0,2.81,2.78A.93.93,0,0,0,70.63,61.59Z" transform="translate(0 0)"/><path class="cls-2" d="M80,49.54a.91.91,0,0,0-.28-.66,4.6,4.6,0,0,0-2.31-2.56l-.09,0-3.1-1.15L72.33,38v0a4.63,4.63,0,0,0-4.49-3.3H61.25V32.85A1.86,1.86,0,0,0,59.38,31H21.88A1.87,1.87,0,0,0,20,32.85V58.8a1.87,1.87,0,0,0,1.88,1.86H25a5.69,5.69,0,0,0-.2.93H20.94a.93.93,0,1,0,0,1.85h3.82a6.57,6.57,0,0,0,13,0h1.95a2.8,2.8,0,0,0,2.81,2.78h5.63a2.8,2.8,0,0,0,2.81-2.78H62.26a6.57,6.57,0,0,0,13,0h3.82a.93.93,0,1,0,0-1.85H75.24a5.69,5.69,0,0,0-.2-.93h3.09A1.87,1.87,0,0,0,80,58.8V50.46c0-.21,0-.43,0-.64A1.26,1.26,0,0,0,80,49.54ZM78.13,55.1h-.94v-.93h.94Zm-.72-6.49H61.25V46.76h12L76.61,48A2.7,2.7,0,0,1,77.41,48.61Zm-9.58-12a2.78,2.78,0,0,1,2.69,2l1.7,6.37h-11V36.56ZM25.63,58.8H21.88V54.17H50.94a.93.93,0,1,0,0-1.85H21.88V32.85h37.5V58.8H36.88a1.6,1.6,0,0,0-.23,0,6.59,6.59,0,0,0-10.8,0Zm5.62,8.35a4.64,4.64,0,1,1,4.69-4.64A4.67,4.67,0,0,1,31.25,67.15Zm6.49-5.56a5.69,5.69,0,0,0-.2-.93h2.31a2.6,2.6,0,0,0-.16.93Zm11.32,1.85a.93.93,0,0,1-.93.93H42.5a.94.94,0,0,1-.94-.93v-.93h0v-.92a.93.93,0,0,1,.94-.93h5.63a.93.93,0,0,1,.93.93Zm1.72-2.78H62.46a5.69,5.69,0,0,0-.2.93H50.94A2.84,2.84,0,0,0,50.78,60.66Zm18,6.49a4.64,4.64,0,1,1,4.69-4.64A4.67,4.67,0,0,1,68.75,67.15Zm5.63-8.35a1.6,1.6,0,0,0-.23,0,6.59,6.59,0,0,0-10.8,0l-.22,0H61.25V50.46H78.13v1.86h-.94a1.87,1.87,0,0,0-1.88,1.85v.93A1.87,1.87,0,0,0,77.19,57h.94V58.8Z" transform="translate(0 0)"/><path class="cls-2" d="M43.44,61.59a.93.93,0,0,0-.67,1.58,1,1,0,0,0,.67.27,1,1,0,0,0,.66-.27.93.93,0,0,0-.66-1.58Z" transform="translate(0 0)"/><path class="cls-2" d="M54.69,54.17h1.87a.93.93,0,1,0,0-1.85H54.69a.93.93,0,1,0,0,1.85Z" transform="translate(0 0)"/></g></svg>