<svg xmlns="http://www.w3.org/2000/svg" width="100" height="100" viewBox="0 0 100 100"><defs><style>.cls-1{fill:#7fb9e7;}.cls-2{fill:#0073cf;}</style></defs><title>i-whybuy3</title><g id="Layer_1" data-name="Layer 1"><polygon class="cls-1" points="2 98 2 14 0 14 0 98 0 100 2 100 50 100 50 98 2 98"/><polygon class="cls-1" points="98 2 98 86 100 86 100 2 100 0 98 0 50 0 50 2 98 2"/></g><g id="Layer_4" data-name="Layer 4"><path class="cls-2" d="M78.06,52.19V28.27a3.45,3.45,0,0,0-3.46-3.43H59.87V23a2.49,2.49,0,0,0-2.49-2.47H42.62A2.49,2.49,0,0,0,40.13,23v1.87H25.4a3.45,3.45,0,0,0-3.46,3.43V52.19A2.87,2.87,0,0,0,20,54.9V69.47a.88.88,0,0,0,1.76,0V54.9a1.14,1.14,0,0,1,1.15-1.13H77.09a1.14,1.14,0,0,1,1.15,1.13V76.62a1.14,1.14,0,0,1-1.15,1.13H22.91a1.14,1.14,0,0,1-1.15-1.13V73A.88.88,0,0,0,20,73v3.66a2.89,2.89,0,0,0,2.91,2.88H77.09A2.89,2.89,0,0,0,80,76.62V54.9A2.87,2.87,0,0,0,78.06,52.19ZM41.89,23a.73.73,0,0,1,.73-.72H57.38a.73.73,0,0,1,.73.72v1.87H41.89ZM25.4,26.58H74.6a1.7,1.7,0,0,1,1.7,1.69V52H61.93V43.83a2.21,2.21,0,0,0,1.16-2.33h.61a1.5,1.5,0,0,0,1.49,1.26H68a1.51,1.51,0,0,0,1.51-1.5V36.15A1.51,1.51,0,0,0,68,34.65H65.19a1.51,1.51,0,0,0-1.49,1.26h-.59a1.47,1.47,0,0,0-1.45-1.2H55.83a8.19,8.19,0,0,0-7.77,8A1.29,1.29,0,0,0,49.35,44c.4-.05,1.14.18,1.68-.46A6,6,0,0,1,54,41.8a.23.23,0,0,1,.3.24,2,2,0,0,0,1.36,1.87V52H41.08V49.57a7.48,7.48,0,0,1,1.92-5A6.79,6.79,0,0,0,41.06,34a1.29,1.29,0,0,0-1.88,1.13c-.06,4.27.15,4.53-.15,4.53H36.74a.16.16,0,0,1-.16-.16V35.1A1.28,1.28,0,0,0,34.71,34a6.79,6.79,0,0,0-1.94,10.57,7.48,7.48,0,0,1,1.92,5V52h-11V28.27A1.7,1.7,0,0,1,25.4,26.58ZM61.33,41.21V42a.23.23,0,0,1-.24.23c-4.79,0-5.05.14-5.05-.23a2,2,0,0,0-2.43-1.94,7.33,7.33,0,0,0-3.76,2.14,6.43,6.43,0,0,1,6-5.79H61.4a1.46,1.46,0,0,0,1.44,1.21h1.08a1.52,1.52,0,0,0,1.5-1.26h2.33V41H65.42a1.5,1.5,0,0,0-1.48-1.27H62.81A1.49,1.49,0,0,0,61.33,41.21ZM57.4,44h2.77v8H57.4ZM36.74,41.37H39a1.91,1.91,0,0,0,1.91-1.9V36a5,5,0,0,1,2,4,5.07,5.07,0,0,1-1.29,3.37,9.2,9.2,0,0,0-2.37,6.19V52H36.45V49.57a9.2,9.2,0,0,0-2.37-6.19A5.07,5.07,0,0,1,32.79,40a5,5,0,0,1,2-4v3.51A1.91,1.91,0,0,0,36.74,41.37Z" transform="translate(0 0)"/><path class="cls-2" d="M57.1,63.3a3.12,3.12,0,1,0,0-6.24H42.9a3.12,3.12,0,1,0,0,6.24ZM41.51,60.18A1.38,1.38,0,0,1,42.9,58.8H57.1a1.38,1.38,0,1,1,0,2.76H42.9A1.38,1.38,0,0,1,41.51,60.18Z" transform="translate(0 0)"/><path class="cls-2" d="M27.77,49.4V30.63H72.23V49.4a.88.88,0,0,0,1.76,0V30.56a1.69,1.69,0,0,0-1.69-1.68H27.7A1.69,1.69,0,0,0,26,30.56V49.4A.88.88,0,0,0,27.77,49.4Z" transform="translate(0 0)"/></g></svg>