<svg xmlns="http://www.w3.org/2000/svg" width="100" height="100" viewBox="0 0 100 100"><defs><style>.cls-1{fill:#7fb9e7;}.cls-2{fill:#0073cf;}</style></defs><title>i-whybuy4</title><g id="Layer_1" data-name="Layer 1"><polygon class="cls-1" points="2 98 2 14 0 14 0 98 0 100 2 100 50 100 50 98 2 98"/><polygon class="cls-1" points="98 2 98 86 100 86 100 2 100 0 98 0 50 0 50 2 98 2"/></g><g id="Layer_5" data-name="Layer 5"><path class="cls-2" d="M30.55,66.4a4.93,4.93,0,0,0-2.36.6A27.65,27.65,0,0,1,50,22.34a28.21,28.21,0,0,1,5.51.55,1.17,1.17,0,1,0,.46-2.3A30.52,30.52,0,0,0,50,20,30,30,0,0,0,26.46,68.59a4.92,4.92,0,1,0,4.09-2.19Zm1.83,6.74a2.57,2.57,0,0,1-3.65,0,2.58,2.58,0,0,1,1.82-4.4,2.58,2.58,0,0,1,1.83,4.4Z" transform="translate(0 0)"/><path class="cls-2" d="M73.54,31.41a4.92,4.92,0,0,0-4.09-7.65A4.92,4.92,0,1,0,71.81,33,27.67,27.67,0,0,1,44.54,77.12a1.16,1.16,0,0,0-1.37.92,1.17,1.17,0,0,0,.91,1.38A30.86,30.86,0,0,0,50,80,30,30,0,0,0,73.54,31.41Zm-5.92-.91a2.58,2.58,0,0,1,1.83-4.4,2.58,2.58,0,1,1-1.83,4.4Z" transform="translate(0 0)"/><path class="cls-2" d="M45.16,70.16a1.18,1.18,0,0,0,1.18,1.17h7.32a1.18,1.18,0,0,0,1.18-1.17V67.88a17.94,17.94,0,0,0,4.39-1.82l1.61,1.61a1.18,1.18,0,0,0,1.66,0l5.17-5.19a1.16,1.16,0,0,0,0-1.65l-1.6-1.61a17.85,17.85,0,0,0,1.82-4.4h2.27a1.17,1.17,0,0,0,1.17-1.17V46.33a1.17,1.17,0,0,0-1.17-1.18H67.89a17.94,17.94,0,0,0-1.82-4.39l1.6-1.6a1.17,1.17,0,0,0,.34-.83,1.22,1.22,0,0,0-.34-.83l-5.19-5.17a1.17,1.17,0,0,0-1.66,0l-1.59,1.59a18.37,18.37,0,0,0-4.39-1.83V29.84a1.18,1.18,0,0,0-1.18-1.17H46.34a1.18,1.18,0,0,0-1.18,1.17V32.1a17.94,17.94,0,0,0-4.39,1.82l-1.6-1.59a1.16,1.16,0,0,0-1.65,0L32.33,37.5a1.18,1.18,0,0,0,0,1.66l1.6,1.6a17.94,17.94,0,0,0-1.82,4.39H29.85a1.18,1.18,0,0,0-1.18,1.18v7.32a1.16,1.16,0,0,0,1.17,1.17h2.27a17.85,17.85,0,0,0,1.82,4.4l-1.6,1.61a1.16,1.16,0,0,0,0,1.65l5.17,5.19a1.22,1.22,0,0,0,.83.34h0a1.17,1.17,0,0,0,.83-.34l1.61-1.61a17.94,17.94,0,0,0,4.39,1.82ZM41.23,63.6a1.18,1.18,0,0,0-1.47.15l-1.43,1.43-3.52-3.53,1.43-1.42a1.18,1.18,0,0,0,.15-1.47,16,16,0,0,1-2.22-5.35A1.17,1.17,0,0,0,33,52.48H31v-5h2a1.17,1.17,0,0,0,1.14-.93,16,16,0,0,1,2.22-5.35,1.18,1.18,0,0,0-.15-1.47l-1.42-1.42,3.53-3.52,1.41,1.42a1.18,1.18,0,0,0,1.47.15,16,16,0,0,1,5.35-2.22A1.17,1.17,0,0,0,47.51,33V31h5v2a1.17,1.17,0,0,0,.93,1.14,16,16,0,0,1,5.35,2.22,1.18,1.18,0,0,0,1.47-.15l1.41-1.42,3.53,3.52-1.42,1.42a1.18,1.18,0,0,0-.15,1.47,16,16,0,0,1,2.22,5.35A1.17,1.17,0,0,0,67,47.5h2v5H67a1.17,1.17,0,0,0-1.14.93,16,16,0,0,1-2.22,5.35,1.18,1.18,0,0,0,.15,1.47l1.43,1.42-3.52,3.53-1.43-1.43a1.18,1.18,0,0,0-1.47-.15,16,16,0,0,1-5.35,2.22A1.17,1.17,0,0,0,52.49,67v2h-5V67a1.17,1.17,0,0,0-.93-1.14A16,16,0,0,1,41.23,63.6Z" transform="translate(0 0)"/><path class="cls-2" d="M59.68,50A9.68,9.68,0,1,0,50,59.68,9.69,9.69,0,0,0,59.68,50Zm-17,0A7.34,7.34,0,1,1,50,57.34,7.34,7.34,0,0,1,42.66,50Z" transform="translate(0 0)"/><path class="cls-2" d="M60.79,24.43a1.16,1.16,0,1,0-.83-.34A1.17,1.17,0,0,0,60.79,24.43Z" transform="translate(0 0)"/><path class="cls-2" d="M39.26,75.59a1.16,1.16,0,1,0,.83.34A1.17,1.17,0,0,0,39.26,75.59Z" transform="translate(0 0)"/></g></svg>