<svg id="Layer_1" data-name="Layer 1" xmlns="http://www.w3.org/2000/svg" width="135" height="37" viewBox="0 0 135 37"><defs><style>.cls-1{fill:#666;}.cls-2{fill:#fff;}</style></defs><title>logo-m</title><path class="cls-1" d="M67.74,29H65.79l-2.68-7H54.38l-2.69,7H49.74L57.9,8h1.69Zm-9-18-3.47,9h7l-3.46-9Z"/><path class="cls-1" d="M85,29H75V8h2V27h8Z"/><path class="cls-1" d="M109.9,29h-2l-2.68-7H96.53l-2.68,7H91.9l8.16-21h1.69Zm-9-18L97.4,20h7l-3.46-9Z"/><path class="cls-1" d="M121,29h-2V10h-5V8h11v2h-4Z"/><path class="cls-1" d="M135,29h-2V8h2Z"/><path class="cls-2" d="M18,37H0V8H2V35H18Z"/><polygon class="cls-2" points="20.01 9 18.89 9 17.76 9 10 29 12.22 29 18.89 11.78 25.56 29 27.78 29 20.01 9"/><path class="cls-2" d="M18,0H36V29H34V2H18Z"/></svg>