<svg id="Layer_1" data-name="Layer 1" xmlns="http://www.w3.org/2000/svg" width="230" height="60" viewBox="0 0 230 60"><defs><style>.cls-1{fill:#999;}</style></defs><title>logo</title><path d="M116.87,48h-3.65l-4.49-11.7H94.14L89.64,48H86l14-36h2.89Zm-15.5-30.6L95.29,33.2h12.29L101.5,17.4Z"/><path d="M145.65,48H129.47V12H133V44.8h12.68Z"/><path d="M188.05,48h-3.64l-4.5-11.7H165.32L160.83,48h-3.65l14-36h2.9ZM172.56,17.4l-6.09,15.8h12.3l-6.09-15.8Z"/><path d="M206,48h-3.49V15.2h-7.2V12h18v3.2H206Z"/><path d="M230,48h-3.5V12H230Z"/><path class="cls-1" d="M30,60H0V12H3V57H30Z"/><polygon class="cls-1" points="32.02 12 30 12 27.98 12 14 48 18 48 30 17 42 48 46 48 32.02 12"/><path class="cls-1" d="M30,0H60V48H57V3H30Z"/></svg>