<svg id="Layer_1" data-name="Layer 1" xmlns="http://www.w3.org/2000/svg" width="144.6" height="39" viewBox="0 0 144.6 39"><defs><style>.cls-1,.cls-2{fill:#666;}.cls-2{fill-rule:evenodd;}</style></defs><title>promoting</title><path class="cls-1" d="M208.76,34.7v-.76h1.13v8.41a6.75,6.75,0,0,1-.21,1.84h0a2.25,2.25,0,0,1-.08.24l-.1.24a3.86,3.86,0,0,1-.78,1.08h0l-.33.29h0l-.35.25a3.57,3.57,0,0,1-2,.58h-.15v-1h.16a2.37,2.37,0,0,0,1-.24l.16-.09h0a3,3,0,0,0,.76-.64h0a2.15,2.15,0,0,0,.18-.24,2.54,2.54,0,0,0,.16-.28,4.35,4.35,0,0,0,.38-1.94V41.2a4.67,4.67,0,0,1-4,2h0a5.23,5.23,0,0,1-2-.39h0l-.3-.14a5.68,5.68,0,0,1-1.4-1h0a5.18,5.18,0,0,1-1.17-1.7,5,5,0,0,1-.39-2,4.89,4.89,0,0,1,.41-2h0l.12-.26h0l.13-.25a5.66,5.66,0,0,1,.86-1.15h0l.2-.2.21-.18a5.32,5.32,0,0,1,1.24-.75,4.66,4.66,0,0,1,1-.31h0a5.07,5.07,0,0,1,1-.1h0a5,5,0,0,1,1.74.3l.27.1a5.12,5.12,0,0,1,1.27.78h0L208,34h0l.08.08h0a3.39,3.39,0,0,1,.42.43h0l.07.09h0l.07.08h0l.06.07Zm-8.15,3.14h0a3.74,3.74,0,0,0,.08.82h0a1.82,1.82,0,0,0,.07.25,2.82,2.82,0,0,0,.19.51,3.51,3.51,0,0,0,.4.71h0a3.36,3.36,0,0,0,.52.61h0l.17.15.17.14a4.68,4.68,0,0,0,1,.6,3.56,3.56,0,0,0,.76.25,3.42,3.42,0,0,0,.79.09h0a3.71,3.71,0,0,0,1.53-.32l.22-.1a4.4,4.4,0,0,0,1.08-.83,4.23,4.23,0,0,0,.86-1.32,4,4,0,0,0,.29-1.54v0h0a4.13,4.13,0,0,0-.08-.78l0-.12a4.57,4.57,0,0,0-.22-.62h0c0-.07-.07-.13-.1-.2l-.11-.2a4.56,4.56,0,0,0-.68-.89,4.09,4.09,0,0,0-.61-.49,3.85,3.85,0,0,0-.69-.39h0l-.37-.14-.37-.1a4.15,4.15,0,0,0-.79-.08h0a4.13,4.13,0,0,0-.78.08h0l-.12,0h0a3.48,3.48,0,0,0-.62.21,3.85,3.85,0,0,0-.69.39,4.09,4.09,0,0,0-.61.49,4,4,0,0,0-.5.6,3.85,3.85,0,0,0-.39.69,3.4,3.4,0,0,0-.25.74,3.3,3.3,0,0,0-.08.77Z" transform="translate(-65.29 -7.9)"/><path class="cls-1" d="M175.3,32.78a5.07,5.07,0,0,1,1,.1,5.34,5.34,0,0,1,1,.3h0l.26.11h0l.24.14h0a4.67,4.67,0,0,1,1.12.85,5.49,5.49,0,0,1,1.1,1.63h0c0,.09.07.18.1.26l.09.27h0a5.34,5.34,0,0,1,.2,1.45,4.68,4.68,0,0,1-.1,1,4.83,4.83,0,0,1-.32,1h0l-.12.25h0l-.14.25a5.66,5.66,0,0,1-.86,1.15h0l-.2.19h0l-.21.19h0a5.65,5.65,0,0,1-1.24.78h0l-.27.11-.27.1h0a4.78,4.78,0,0,1-1.46.22,4.71,4.71,0,0,1-1-.1,5.55,5.55,0,0,1-.95-.31,5.08,5.08,0,0,1-.85-.49,4.48,4.48,0,0,1-.75-.63,4.94,4.94,0,0,1-.62-.75,7.37,7.37,0,0,1-.48-.87,4.68,4.68,0,0,1-.31-1,4.81,4.81,0,0,1-.1-1h0a4.78,4.78,0,0,1,.1-1h0c0-.11.05-.22.08-.33a4.83,4.83,0,0,1,.22-.64,4.47,4.47,0,0,1,.48-.89,5.18,5.18,0,0,1,.62-.78h0l.19-.2h0l.22-.18a5.58,5.58,0,0,1,1.22-.76,4.68,4.68,0,0,1,1-.32h0a5.19,5.19,0,0,1,1.05-.11Zm0,1.13h0a3.93,3.93,0,0,0-1.55.3,4.93,4.93,0,0,0-.46.23,4.75,4.75,0,0,0-.85.66h0A4,4,0,0,0,171.28,38a3.47,3.47,0,0,0,.08.79,3.12,3.12,0,0,0,.24.73,4.09,4.09,0,0,0,.38.68,3.86,3.86,0,0,0,.49.58,4.51,4.51,0,0,0,.6.48,3.78,3.78,0,0,0,.69.37h0l.21.08h0l.21.07a4.14,4.14,0,0,0,1.11.16h0a3.31,3.31,0,0,0,.77-.09l.12,0a4,4,0,0,0,.61-.23h0a5.11,5.11,0,0,0,.68-.41,4.61,4.61,0,0,0,.58-.51h0l.14-.16.14-.17a4.49,4.49,0,0,0,.57-1h0l.08-.2h0c0-.08,0-.15.07-.21a3.93,3.93,0,0,0-1-3.9h0a3.17,3.17,0,0,0-.34-.3,2.88,2.88,0,0,0-.35-.26,3.75,3.75,0,0,0-2.1-.61Z" transform="translate(-65.29 -7.9)"/><path class="cls-1" d="M146.29,32.78a5.07,5.07,0,0,1,1,.1,5.34,5.34,0,0,1,1,.3h0l.26.11h0l.24.14h0a4.87,4.87,0,0,1,1.12.85h0a5.49,5.49,0,0,1,1.1,1.63h0c0,.09.07.18.1.26l.09.27h0a5.34,5.34,0,0,1,.2,1.45,4.68,4.68,0,0,1-.1,1,4.83,4.83,0,0,1-.32,1h0l-.12.25-.14.25a6.05,6.05,0,0,1-.86,1.15h0l-.2.19h0l-.21.19h0a5.89,5.89,0,0,1-1.24.78h0l-.27.11-.28.1h0a4.78,4.78,0,0,1-1.46.22,4.71,4.71,0,0,1-1-.1,5.28,5.28,0,0,1-1-.31,5.08,5.08,0,0,1-.85-.49,4.48,4.48,0,0,1-.75-.63h0a4.94,4.94,0,0,1-.62-.75h0a7.37,7.37,0,0,1-.48-.87,4.68,4.68,0,0,1-.31-1,4.81,4.81,0,0,1-.1-1h0a4.71,4.71,0,0,1,.1-1c0-.11.05-.22.08-.33a5.39,5.39,0,0,1,.22-.64,5,5,0,0,1,.47-.89,6,6,0,0,1,.63-.78h0l.2-.2h0L143,34a5.58,5.58,0,0,1,1.22-.76,4.68,4.68,0,0,1,1-.32h0a5.19,5.19,0,0,1,1-.11Zm0,1.13h0a3.93,3.93,0,0,0-1.55.3,4.93,4.93,0,0,0-.46.23,4.11,4.11,0,0,0-.85.67h0A4,4,0,0,0,142.27,38a3.47,3.47,0,0,0,.08.79,3.12,3.12,0,0,0,.24.73,4.09,4.09,0,0,0,.38.68,3.86,3.86,0,0,0,.49.58h0a4.51,4.51,0,0,0,.6.48,3.78,3.78,0,0,0,.69.37h0l.21.08h0l.21.07a4.14,4.14,0,0,0,1.11.16h0a3.31,3.31,0,0,0,.77-.09l.12,0a4.49,4.49,0,0,0,.61-.23h0a5.11,5.11,0,0,0,.68-.41,4.61,4.61,0,0,0,.58-.51h0l.14-.16.14-.17a4.49,4.49,0,0,0,.57-1h0c0-.07,0-.14.08-.2h0l.07-.21a3.93,3.93,0,0,0-1-3.9h0a3.17,3.17,0,0,0-.34-.3,2.88,2.88,0,0,0-.35-.26,3.77,3.77,0,0,0-2.1-.61Z" transform="translate(-65.29 -7.9)"/><path class="cls-1" d="M133.91,42.94h-1V28h2.72a3.46,3.46,0,0,1,1.65.37,3,3,0,0,1,1.16,1.12,2.47,2.47,0,0,1,.19.36,2.92,2.92,0,0,1,.14.38,2.57,2.57,0,0,1,.08.4h0a2.73,2.73,0,0,1,0,.41h0a5.1,5.1,0,0,1,0,.57l0,.17h0a2.49,2.49,0,0,1-.3.79h0a1,1,0,0,1-.11.17h0c0,.05-.08.1-.12.16h0a2.91,2.91,0,0,1-.84.7h0a2.55,2.55,0,0,1-.43.23,2.52,2.52,0,0,1-.47.13h0l-.1,0h0a2.38,2.38,0,0,1-.39,0h-1.95v8.95Zm1.74-13.86h-1.59v3.78h1.66a2.07,2.07,0,0,0,1-.22h0a1.86,1.86,0,0,0,.7-.67h0a1.8,1.8,0,0,0,.2-.47,2.2,2.2,0,0,0,.06-.53,1.7,1.7,0,0,0-.14-.75,1.82,1.82,0,0,0-.45-.6h0l-.18-.14-.18-.11a2.15,2.15,0,0,0-1.07-.27Z" transform="translate(-65.29 -7.9)"/><path class="cls-1" d="M141.83,32.83v1.06h-.15a3.71,3.71,0,0,0-1.94.5h0l-.31.22a2.18,2.18,0,0,0-.28.25h0a3.12,3.12,0,0,0-.65,1l-.09.23a5.07,5.07,0,0,0-.25,1.63h0v5.21H137V37.67a6,6,0,0,1,.34-2.05,4.56,4.56,0,0,1,1-1.62,4.29,4.29,0,0,1,1.2-.87l.26-.12h0a5.15,5.15,0,0,1,1.84-.34h.16v.15Z" transform="translate(-65.29 -7.9)"/><path class="cls-1" d="M180.07,32.36h1.58V30.85h1.13v1.51h2.27v1h-2.27v6a2.39,2.39,0,0,0,.63,1.8h0l.18.16h0l.19.13a2.05,2.05,0,0,0,1.12.31h.15v1.14h-.15a3.08,3.08,0,0,1-.68-.07,2.94,2.94,0,0,1-.64-.19h0l-.17-.08h0l-.17-.09h0a3.18,3.18,0,0,1-.76-.62h0l-.12-.14-.11-.16a3,3,0,0,1-.41-.84h0a4.56,4.56,0,0,1-.14-.64,4.68,4.68,0,0,1,0-.66h0V33.35h-1.73v-1Z" transform="translate(-65.29 -7.9)"/><polygon class="cls-1" points="122.32 35.03 121.47 35.03 121.33 35.03 121.33 34.88 121.33 26.03 121.33 25.88 121.47 25.88 122.32 25.88 122.47 25.88 122.47 26.03 122.47 34.88 122.47 35.03 122.32 35.03 122.32 35.03"/><path class="cls-1" d="M161.21,37.67v5.24H160.1v-5.2a4.87,4.87,0,0,0-.25-1.64,3.28,3.28,0,0,0-.72-1.21h0a3.15,3.15,0,0,0-.28-.25,2.32,2.32,0,0,0-.3-.22,3.42,3.42,0,0,0-1.86-.5h0a3.85,3.85,0,0,0-1.38.24h0l-.19.09a3.1,3.1,0,0,0-.89.64h0a3.47,3.47,0,0,0-.25.29,3,3,0,0,0-.21.33,4.45,4.45,0,0,0-.5,2.22v5.2h-1.11V37.67a6,6,0,0,1,.33-2.05,4.49,4.49,0,0,1,1-1.62,4,4,0,0,1,1.43-1,5,5,0,0,1,3.59,0,4.23,4.23,0,0,1,1.42,1,5.2,5.2,0,0,1,.51.65c.09.14.17.28.25.43l.06-.13a4.9,4.9,0,0,1,.69-1,4.09,4.09,0,0,1,1.43-1,4.69,4.69,0,0,1,1.8-.33,4.64,4.64,0,0,1,1.79.33,4.23,4.23,0,0,1,1.42,1,4.66,4.66,0,0,1,1,1.62,6,6,0,0,1,.33,2.05v5.24h-1.11v-5.2h0a4.81,4.81,0,0,0-.25-1.63h0a2.09,2.09,0,0,0-.08-.23,3.26,3.26,0,0,0-.64-1h0a2.18,2.18,0,0,0-.28-.25,2.32,2.32,0,0,0-.3-.22,3.4,3.4,0,0,0-1.86-.5h0a3.75,3.75,0,0,0-1.37.24l-.2.09a3.29,3.29,0,0,0-.9.64,3.05,3.05,0,0,0-.71,1.19,5,5,0,0,0-.24,1.62Z" transform="translate(-65.29 -7.9)"/><path class="cls-1" d="M193.94,33.91h0a3.71,3.71,0,0,0-1.94.5h0l-.31.22a3.47,3.47,0,0,0-.29.25h0a3,3,0,0,0-.65,1h0l-.09.22a4.85,4.85,0,0,0-.25,1.63h0v5.21h-1.13V37.69a5.8,5.8,0,0,1,.34-2,4.56,4.56,0,0,1,1-1.62,4.13,4.13,0,0,1,1.46-1,5.27,5.27,0,0,1,3.67,0,4.2,4.2,0,0,1,1.46,1,4.72,4.72,0,0,1,1,1.61,6.06,6.06,0,0,1,.33,2.06v5.24h-1.13V37.73a4.81,4.81,0,0,0-.25-1.63,3.12,3.12,0,0,0-.74-1.21,3.33,3.33,0,0,0-.9-.65h0l-.2-.08a3.88,3.88,0,0,0-1.4-.25Z" transform="translate(-65.29 -7.9)"/><path class="cls-2" d="M209.78,32.09c-2.06-13.35-16.15-8.2-23,0,8.47-6.06,18.89-7.8,23,0Z" transform="translate(-65.29 -7.9)"/><path class="cls-1" d="M204.63,18a5.2,5.2,0,0,0,.14-1.07,7.84,7.84,0,0,0-.18-1.22,2.83,2.83,0,0,1-.08-1.25,1.39,1.39,0,0,1,.63-.84,1.16,1.16,0,0,1,1.71.43,1.44,1.44,0,0,1,.11,1.09,2.74,2.74,0,0,1-.67,1.06,5.63,5.63,0,0,0-.74.91,6.71,6.71,0,0,0-.45,1,6.22,6.22,0,0,0,1.07-.22,6.76,6.76,0,0,0,1-.56,2.12,2.12,0,0,1,1.62-.41,1.22,1.22,0,0,1,.77.57,1.14,1.14,0,0,1,.14.91,1.2,1.2,0,0,1-.67.77,1.63,1.63,0,0,1-1.22.08c-.16,0-.43-.12-.82-.25l-.6-.18-1.32-.3a6.67,6.67,0,0,0,.57,1,7.35,7.35,0,0,0,.81.82,2.82,2.82,0,0,1,.79,1,1.32,1.32,0,0,1-.54,1.57,1.16,1.16,0,0,1-.91.12,1.27,1.27,0,0,1-.79-.66,2.8,2.8,0,0,1-.16-1.63,6.72,6.72,0,0,0,.07-1,6.49,6.49,0,0,0-.23-1.06,7.1,7.1,0,0,0-.77.82,6.51,6.51,0,0,0-.48.91,2.75,2.75,0,0,1-.92,1.32,1.26,1.26,0,0,1-1,.16,1.2,1.2,0,0,1-.73-.55,1.08,1.08,0,0,1-.14-.87,1.49,1.49,0,0,1,.49-.77,3.08,3.08,0,0,1,1.17-.5c.54-.14.92-.25,1.13-.33a6.29,6.29,0,0,0,1-.51L203.19,18l-.63-.15c-.46-.09-.78-.16-.95-.21a1.69,1.69,0,0,1-1-.66,1.23,1.23,0,0,1-.18-1,1.21,1.21,0,0,1,.56-.73,1.25,1.25,0,0,1,1-.11,2,2,0,0,1,1.22,1.08,9.81,9.81,0,0,0,.65,1.09,5.52,5.52,0,0,0,.79.73Z" transform="translate(-65.29 -7.9)"/><path class="cls-2" d="M201.74,22.07A4.55,4.55,0,0,1,196,15a1.81,1.81,0,0,1,2.56.25,1.84,1.84,0,0,1-.25,2.57,2.73,2.73,0,0,0,3.47,4.22Z" transform="translate(-65.29 -7.9)"/><path class="cls-2" d="M199.8,7.9A3.12,3.12,0,1,1,196.7,11a3.11,3.11,0,0,1,3.1-3.12Z" transform="translate(-65.29 -7.9)"/><path class="cls-1" d="M65.29,38.09a6.36,6.36,0,0,1,.37-2.33,4.46,4.46,0,0,1,1-1.57A3.77,3.77,0,0,1,68,33.3,4.36,4.36,0,0,1,69.54,33a8.44,8.44,0,0,1,1.37.09,3.83,3.83,0,0,1,.91.25l-.28,1a4.6,4.6,0,0,0-1.91-.32,3.24,3.24,0,0,0-1.14.21,2.66,2.66,0,0,0-1,.68,3.5,3.5,0,0,0-.71,1.25,6.12,6.12,0,0,0-.26,1.89,5.54,5.54,0,0,0,.25,1.76,3.61,3.61,0,0,0,.69,1.26,2.72,2.72,0,0,0,1,.75,3.27,3.27,0,0,0,1.29.26,4,4,0,0,0,1.1-.13,2.77,2.77,0,0,0,.79-.32l.28.91A2.45,2.45,0,0,1,70.9,43a8.51,8.51,0,0,1-1.38.13,4.46,4.46,0,0,1-1.64-.3,3.49,3.49,0,0,1-1.35-.93,4.36,4.36,0,0,1-.91-1.57A6.93,6.93,0,0,1,65.29,38.09Z" transform="translate(-65.29 -7.9)"/><path class="cls-1" d="M72.14,42H73a3.76,3.76,0,0,0,.29-.56,6.44,6.44,0,0,0,.36-1.12,15.5,15.5,0,0,0,.3-1.78A22.53,22.53,0,0,0,74.1,36h4.22v6h1v2.76h-.78L78.38,43H73.13l-.21,1.77h-.78Zm2,0h3.1V37H75.1c0,.39,0,.82-.09,1.28s-.11.92-.19,1.38a12,12,0,0,1-.3,1.31A5.57,5.57,0,0,1,74.1,42Z" transform="translate(-65.29 -7.9)"/><path class="cls-1" d="M80.33,39.49a4,4,0,0,1,.8-2.73,2.85,2.85,0,0,1,2.28-.95,4.4,4.4,0,0,1,1,.11,2,2,0,0,1,.85.4,2.16,2.16,0,0,1,.62.83,3.61,3.61,0,0,1,.24,1.43,7.72,7.72,0,0,1-.08,1h-4.5a4,4,0,0,0,.13,1.09,2,2,0,0,0,.39.81,1.71,1.71,0,0,0,.69.5,2.49,2.49,0,0,0,1,.17,2.83,2.83,0,0,0,1-.16,2.17,2.17,0,0,0,.72-.4l.42.82a3.23,3.23,0,0,1-1,.53,4.66,4.66,0,0,1-1.36.2A3.52,3.52,0,0,1,82,42.9a2.46,2.46,0,0,1-1-.75A3.25,3.25,0,0,1,80.51,41,5.84,5.84,0,0,1,80.33,39.49Zm1.17-.78H85a2.16,2.16,0,0,0-.4-1.49,1.52,1.52,0,0,0-1.15-.42,1.93,1.93,0,0,0-1.32.43A2.1,2.1,0,0,0,81.5,38.71Z" transform="translate(-65.29 -7.9)"/><path class="cls-1" d="M86.38,42.92l.16-1a1.1,1.1,0,0,0,.37.06.66.66,0,0,0,.5-.24,2.12,2.12,0,0,0,.39-.9,12.52,12.52,0,0,0,.28-1.84q.12-1.19.15-3.06h4.18v7H91.29V37h-2q0,.59-.09,1.26c0,.46-.07.91-.12,1.36s-.13.89-.22,1.31A6.33,6.33,0,0,1,88.47,42a2.35,2.35,0,0,1-.54.76,1.06,1.06,0,0,1-.74.29,3.28,3.28,0,0,1-.47,0A1.53,1.53,0,0,1,86.38,42.92Z" transform="translate(-65.29 -7.9)"/><path class="cls-1" d="M94,41.11a2,2,0,0,1,.25-1,2,2,0,0,1,.71-.66,3.33,3.33,0,0,1,1.09-.34A8.77,8.77,0,0,1,97.49,39h.38l.39,0c0-.27,0-.52,0-.75A1.46,1.46,0,0,0,98,37.17a1.55,1.55,0,0,0-1.11-.31,3.2,3.2,0,0,0-.52,0L95.8,37a3.47,3.47,0,0,0-.55.16,2.34,2.34,0,0,0-.45.2l-.35-.84A3.82,3.82,0,0,1,95.69,36a6,6,0,0,1,1.48-.15,3,3,0,0,1,1.17.19,1.61,1.61,0,0,1,.67.51,1.79,1.79,0,0,1,.31.69,3.91,3.91,0,0,1,.07.76c0,.56,0,1.11,0,1.64s0,1,0,1.51,0,.67,0,1a4.28,4.28,0,0,0,.16.85h-.78l-.33-1h-.08a1.85,1.85,0,0,1-.32.38,2.22,2.22,0,0,1-.45.34,2.51,2.51,0,0,1-.62.25,3.18,3.18,0,0,1-.8.1A2.45,2.45,0,0,1,95.3,43a2,2,0,0,1-.67-.4,1.94,1.94,0,0,1-.6-1.45ZM95.19,41a1.05,1.05,0,0,0,.35.81,1.28,1.28,0,0,0,.9.31,2.19,2.19,0,0,0,.7-.1,1.88,1.88,0,0,0,.53-.27,1.78,1.78,0,0,0,.37-.35,1.68,1.68,0,0,0,.22-.38V39.85l-.4,0h-.4a7.73,7.73,0,0,0-.84,0,2.68,2.68,0,0,0-.74.18,1.34,1.34,0,0,0-.5.36A.94.94,0,0,0,95.19,41Z" transform="translate(-65.29 -7.9)"/><path class="cls-1" d="M101.5,43V36h1.12V38.9h3.16V36h1.12v7h-1.12v-3.1h-3.16V43Z" transform="translate(-65.29 -7.9)"/><path class="cls-1" d="M108.66,39.49a4.09,4.09,0,0,1,.79-2.72,2.85,2.85,0,0,1,2.28-1,3.42,3.42,0,0,1,1.37.26,2.6,2.6,0,0,1,1,.75,3.21,3.21,0,0,1,.56,1.16,5.09,5.09,0,0,1,.18,1.51,4.18,4.18,0,0,1-.78,2.72,2.85,2.85,0,0,1-2.28.95,3.42,3.42,0,0,1-1.37-.26,2.5,2.5,0,0,1-1-.75,3.23,3.23,0,0,1-.57-1.16A5.82,5.82,0,0,1,108.66,39.49Zm1.16,0a4.9,4.9,0,0,0,.11,1,2.6,2.6,0,0,0,.33.85,1.85,1.85,0,0,0,.59.59,1.62,1.62,0,0,0,.88.22c1.27,0,1.9-.88,1.9-2.68a4.9,4.9,0,0,0-.1-1,2.6,2.6,0,0,0-.33-.85,1.72,1.72,0,0,0-.59-.58,1.62,1.62,0,0,0-.88-.22C110.46,36.79,109.82,37.69,109.82,39.49Z" transform="translate(-65.29 -7.9)"/><path class="cls-1" d="M120.29,43V36l1-.07c.35,0,.8,0,1.33,0a3.47,3.47,0,0,1,2,.43,1.49,1.49,0,0,1,.6,1.3,1.8,1.8,0,0,1-.28,1,1.71,1.71,0,0,1-.95.69v.05a1.9,1.9,0,0,1,1.16.58,2,2,0,0,1-.45,2.7,4.45,4.45,0,0,1-2.35.49c-.39,0-.75,0-1.09,0Zm1.12-4h1.37a1.67,1.67,0,0,0,.49-.08,1.61,1.61,0,0,0,.43-.23,1.27,1.27,0,0,0,.3-.35.79.79,0,0,0,.12-.42.85.85,0,0,0-.33-.77,2.38,2.38,0,0,0-1.18-.22l-.71,0-.49,0Zm0,3.1.52,0,.61,0a2.8,2.8,0,0,0,1.39-.27,1,1,0,0,0,.46-.9,1,1,0,0,0-.39-.82,2.18,2.18,0,0,0-1.36-.32h-1.23Z" transform="translate(-65.29 -7.9)"/></svg>