<svg width="149" height="210" viewBox="0 0 149 210" fill="none" xmlns="http://www.w3.org/2000/svg">
<path fill-rule="evenodd" clip-rule="evenodd" d="M44.3999 0.600098L34.3999 4.9001L145.4 48.7001L148.3 41.6001L44.3999 0.600098Z" fill="#E1E2E1"/>
<path d="M145.4 49.2C145.3 49.2 145.2 49.2 145.2 49.2L34.1999 5.5C33.9999 5.4 33.7999 5.2 33.7999 5C33.7999 4.7 33.8999 4.5 34.1999 4.4L44.1999 0.1C44.2999 0 44.4999 0 44.6999 0L148.6 41C148.8 41.1 148.9 41.2 149 41.4C149.1 41.6 149.1 41.7 149 41.9L146.1 49C145.8 49.2 145.6 49.2 145.4 49.2ZM35.8999 4.9L145 47.9L147.4 41.9L44.3999 1.3L35.8999 4.9Z" fill="#868686"/>
<path fill-rule="evenodd" clip-rule="evenodd" d="M137.3 192.3L34.4 151.9V5.1001L137.3 45.6001V192.3Z" fill="#E1E2E1"/>
<path d="M137.3 192.9C137.2 192.9 137.1 192.9 137.1 192.9L34.3 152.4C34.1 152.3 33.9 152.1 33.9 151.8V5.1C33.9 4.9 34 4.7 34.2 4.6C34.4 4.5 34.6 4.5 34.8 4.5L137.6 45C137.8 45.1 138 45.3 138 45.6V192.4C138 192.6 137.9 192.8 137.7 192.9C137.6 192.9 137.4 192.9 137.3 192.9ZM35.1 151.4L136.7 191.5V45.9L35.1 6.1V151.4Z" fill="#868686"/>
<path fill-rule="evenodd" clip-rule="evenodd" d="M137.3 45.8996L148.3 41.5996V188.3L137.3 192.5V45.8996Z" fill="#E1E2E1"/>
<path d="M137.3 193C137.2 193 137 193 136.9 192.9C136.7 192.8 136.6 192.6 136.6 192.4V45.8998C136.6 45.5998 136.8 45.3998 137 45.2998L148 40.9998C148.2 40.8998 148.4 40.8998 148.6 41.0998C148.8 41.1998 148.9 41.3998 148.9 41.5998V188.3C148.9 188.6 148.7 188.8 148.5 188.9L137.5 193.1C137.5 193 137.4 193 137.3 193ZM138 46.2998V191.6L147.8 187.8V42.3998L138 46.2998Z" fill="#868686"/>
<path d="M137.9 45.8999H136.7V191.2H137.9V45.8999Z" fill="#868686"/>
<path d="M125.1 40.6997H123.9V186.3H125.1V40.6997Z" fill="#868686"/>
<path d="M112.2 35.5996H111V181.4H112.2V35.5996Z" fill="#868686"/>
<path d="M99.4 30.3999H98.2V176.5H99.4V30.3999Z" fill="#868686"/>
<path d="M86.4999 25.2998H85.2999V171.7H86.4999V25.2998Z" fill="#868686"/>
<path d="M73.5999 20.0996H72.3999V166.6H73.5999V20.0996Z" fill="#868686"/>
<path d="M60.6999 15.0996H59.4999V161.6H60.6999V15.0996Z" fill="#868686"/>
<path d="M47.8 9.8999H46.6V156.8H47.8V9.8999Z" fill="#868686"/>
<path d="M34.9999 4.7998H33.7999V151.8H34.9999V4.7998Z" fill="#868686"/>
<path d="M34.2999 5.7001L34.7999 4.6001L137.6 45.0001L137.2 46.1001L34.2999 5.7001Z" fill="#868686"/>
<path d="M34.2999 18.9999L34.6999 17.8999L137.6 58.3999L137.1 59.4999L34.2999 18.9999Z" fill="#868686"/>
<path d="M34.2999 32.3002L34.7999 31.2002L137.6 71.7002L137.1 72.8002L34.2999 32.3002Z" fill="#868686"/>
<path d="M34.2999 45.7001L34.7999 44.6001L137.6 85.1001L137.1 86.2001L34.2999 45.7001Z" fill="#868686"/>
<path d="M34.2 58.9999L34.7 57.8999L137.5 98.3999L137 99.4999L34.2 58.9999Z" fill="#868686"/>
<path d="M34.2999 72.3002L34.6999 71.2002L137.6 111.9L137.1 113L34.2999 72.3002Z" fill="#868686"/>
<path d="M34.2999 85.8002L34.6999 84.7002L137.4 125.2L137 126.3L34.2999 85.8002Z" fill="#868686"/>
<path d="M34.2999 99.1L34.6999 98L137.5 138.5L137 139.6L34.2999 99.1Z" fill="#868686"/>
<path d="M34.2999 112.4L34.6999 111.3L137.4 151.9L136.9 153L34.2999 112.4Z" fill="#868686"/>
<path d="M34.2999 125.8L34.7999 124.7L137.5 165.2L137 166.3L34.2999 125.8Z" fill="#868686"/>
<path d="M34.2 139.1L34.7 138L137.4 178.5L136.9 179.6L34.2 139.1Z" fill="#868686"/>
<path d="M34.2999 152.4L34.7999 151.3L137.4 191.9L137 193L34.2999 152.4Z" fill="#868686"/>
<path d="M122 79L73.7999 59.9V48L122.3 67.1L122 79Z" fill="#E1E2E1"/>
<path d="M81.1 55.0002L79.1 54.3002C78.2 53.9002 77.6 54.4002 77.6 55.4002V56.2002C77.6 57.1002 78.3 58.1002 79.1 58.5002L80.2 59.0002C80.6 59.1002 81 58.9002 81 58.4002L79.1 57.7002C78.6 57.4002 78.3 57.1002 78.3 56.6002V55.8002C78.3 55.3002 78.6 55.1002 79.1 55.2002L81 55.9002V59.6002C81 60.1002 80.7 60.3002 80.2 60.1002L79.2 59.9002C78.8 59.8002 78.4 60.0002 78.4 60.5002L79.2 60.9002L80.3 61.4002C81.2 61.8002 81.8 61.3002 81.8 60.3002V56.6002C81.8 55.8002 81.5 55.2002 81.1 55.0002Z" fill="#868686"/>
<path d="M117.6 69.5004C116.7 69.1004 116.1 69.6004 116.1 70.6004V72.3004C116.1 72.8004 116.5 73.2004 116.9 73.4004V70.9004C116.9 70.4004 117.2 70.2004 117.7 70.3004L118.6 70.7004C119 70.8004 119.4 70.6004 119.4 70.1004L117.6 69.5004Z" fill="#868686"/>
<path d="M88.2 61.3003C87.7 61.0003 87.4 60.7003 87.4 60.2003V58.5003L88.5 59.0003C88.9 59.1003 89.3 58.9003 89.3 58.4003L87.4 57.6003V55.7003C87 55.6003 86.6 55.8003 86.6 56.2003V59.7003C86.6 60.6003 87.3 61.6003 88.1 62.0003L88.5 62.1003C88.9 62.2003 89.3 62.0003 89.3 61.6003L88.2 61.3003Z" fill="#868686"/>
<path d="M110.2 70.7002C109.3 70.3002 108.7 69.4002 108.7 68.4002V66.7002L106.4 65.9002V67.6002C106.4 68.1002 106.7 68.5002 107.2 68.7002L108.3 69.2002C108.3 69.7002 107.9 69.9002 107.5 69.8002L107.1 69.5002C106.2 69.1002 105.6 68.2002 105.6 67.2002V63.7002C105.6 63.2002 106 63.0002 106.4 63.1002V65.0002L108.7 65.9002V64.8002C108.7 64.3002 109.1 64.1002 109.5 64.2002V66.1002L111.4 66.8002C111.4 67.3002 111 67.5002 110.6 67.4002L109.5 66.9002V68.6002C109.5 69.1002 109.8 69.5002 110.3 69.7002L110.7 69.8002L111.5 70.2002C111.5 70.7002 111.1 70.9002 110.7 70.8002L110.2 70.7002Z" fill="#868686"/>
<path d="M85.5 57.6V60.1C85.5 60.6 85.9 61 86.3 61.2V57C85.9 57 85.5 57.1 85.5 57.6Z" fill="#868686"/>
<path d="M83.7 59.4004C83.2 59.1004 82.9 58.8004 82.9 58.3004V55.8004C82.4 55.7004 82.1 55.9004 82.1 56.4004V58.1004C82.1 59.0004 82.8 60.0004 83.6 60.4004L84.5 60.8004C84.9 60.9004 85.3 60.7004 85.3 60.3004L83.7 59.4004Z" fill="#868686"/>
<path d="M99.8 63.3001V65.0001C99.8 65.5001 99.4 65.7001 99 65.5001L97.9 65.0001V61.6001C97.5 61.5001 97.1 61.7001 97.1 62.2001V64.7001C97.1 65.2001 97.5 65.6001 97.9 65.8001L99 66.3001C99.8 66.7001 100.5 66.3001 100.5 65.2001V62.7001C100.1 62.6001 99.8 62.8001 99.8 63.3001ZM95.8 64.2001C95.3 63.9001 95 63.5001 95 63.0001V60.5001C94.6 60.4001 94.2 60.6001 94.2 61.1001V62.8001C94.2 63.7001 94.9 64.7001 95.7 65.1001L96.4 65.4001C96.8 65.5001 97.2 65.3001 97.2 64.8001L95.8 64.2001Z" fill="#868686"/>
<path d="M91.1 60.6004C90.7 60.5004 90.3 60.7004 90.3 61.2004V60.4004C90.3 59.9004 90.6 59.7004 91.1 59.9004L92.4 60.4004C92.9 60.7004 93.2 61.0004 93.2 61.5004L91.1 60.6004ZM93.9 61.7004C93.9 60.8004 93.2 59.8004 92.4 59.4004L91.1 59.0004C90.2 58.6004 89.6 59.1004 89.6 60.1004V60.9004C89.6 61.8004 90.3 62.8004 91.1 63.2004L92.8 63.8004C93.2 63.9004 93.6 63.7004 93.6 63.2004L91.2 62.3004C90.7 62.0004 90.4 61.7004 90.4 61.2004L93.2 62.3004C93.6 62.5004 93.9 62.2004 93.9 61.7004Z" fill="#868686"/>
<path d="M102.4 65.2003C102 65.1003 101.6 65.3003 101.6 65.8003V65.0003C101.6 64.5003 101.9 64.3003 102.4 64.4003L103.7 64.9003C104.2 65.2003 104.5 65.5003 104.5 66.0003L102.4 65.2003ZM105.2 66.2003C105.2 65.3003 104.5 64.3003 103.7 63.9003L102.4 63.4003C101.5 63.0003 100.9 63.5003 100.9 64.5003V65.3003C100.9 66.2003 101.6 67.2003 102.4 67.6003L104.1 68.2003C104.5 68.3003 104.9 68.1003 104.9 67.6003L102.5 66.7003C102 66.4003 101.7 66.1003 101.7 65.6003L104.5 66.7003C104.8 67.0003 105.2 66.8003 105.2 66.2003Z" fill="#868686"/>
<path d="M113 69.3001C112.6 69.2001 112.2 69.4001 112.2 69.9001V69.1001C112.2 68.6001 112.5 68.4001 113 68.6001L114.3 69.1001C114.8 69.4001 115.1 69.7001 115.1 70.2001L113 69.3001ZM115.8 70.5001C115.8 69.6001 115.1 68.6001 114.3 68.2001L113 67.7001C112.1 67.3001 111.5 67.8001 111.5 68.8001V69.5001C111.5 70.4001 112.2 71.4001 113 71.8001L114.7 72.5001C115.1 72.6001 115.5 72.4001 115.5 71.9001L113 71.0001C112.5 70.7001 112.2 70.4001 112.2 69.9001L115 71.0001C115.4 71.0001 115.8 70.9001 115.8 70.5001Z" fill="#868686"/>
<path d="M120.3 70.2003V69.6003C120.3 69.6003 120.3 69.6003 120.4 69.6003L120.7 69.7003C120.7 69.7003 120.8 69.7003 120.8 69.8003C120.8 69.8003 120.9 69.9003 120.9 70.1003C120.9 70.4003 120.8 70.2003 120.8 70.2003H120.7L121 70.6003H120.8L120.5 70.2003C120.5 70.2003 120.5 70.2003 120.5 70.1003H120.6H120.7V70.0003C120.7 70.0003 120.7 70.0003 120.6 70.0003L120.3 69.9003V70.2003ZM120.1 70.1003C120.2 70.4003 120.4 70.4003 120.5 70.4003C120.6 70.4003 120.8 70.5003 120.9 70.4003C121 70.3003 121 70.1003 121 70.0003C121 69.9003 121 69.7003 120.9 69.6003C120.8 69.6003 120.6 69.5003 120.5 69.5003C120.4 69.5003 120.2 69.4003 120.1 69.5003C120 69.6003 120 69.8003 120 69.9003C120.1 69.8003 120.1 70.0003 120.1 70.1003ZM120.1 69.3003C120.2 69.2003 120.4 69.3003 120.5 69.3003C120.6 69.3003 120.8 69.4003 120.9 69.6003C121 69.7003 121 70.0003 121 70.1003C121 70.2003 121 70.5003 120.9 70.5003C120.8 70.6003 120.6 70.5003 120.5 70.5003C120.4 70.5003 120.2 70.4003 120.1 70.2003C120 70.1003 120 69.8003 120 69.7003C120 69.6003 120 69.4003 120.1 69.3003Z" fill="#868686"/>
<g opacity="0.8">
<path d="M124.5 187.679V81.2645L101.2 91.4581L101.2 91.4581L101.192 91.4614L101.192 91.4615L101.19 91.4624L101.179 91.467C101.169 91.4713 101.154 91.4781 101.132 91.4874C101.09 91.5061 101.026 91.5348 100.941 91.5742C100.772 91.6529 100.52 91.7739 100.199 91.9408C99.5564 92.2746 98.6337 92.7915 97.5242 93.5196C95.3049 94.976 92.3407 97.2758 89.3751 100.643C83.4509 107.369 77.4999 118.378 77.4999 135.5V135.702V135.905V136.107V136.31V136.512V136.715V136.918V137.121V137.324V137.527V137.731V137.934V138.138V138.341V138.545V138.749V138.953V139.157V139.361V139.565V139.77V139.974V140.179V140.383V140.588V140.792V140.997V141.202V141.407V141.612V141.817V142.022V142.227V142.432V142.638V142.843V143.048V143.254V143.459V143.665V143.871V144.076V144.282V144.488V144.693V144.899V145.105V145.311V145.517V145.722V145.928V146.134V146.34V146.546V146.752V146.958V147.164V147.37V147.576V147.782V147.988V148.194V148.4V148.606V148.812V149.019V149.225V149.431V149.637V149.843V150.049V150.254V150.46V150.666V150.872V151.078V151.284V151.49V151.695V151.901V152.107V152.312V152.518V152.724V152.929V153.135V153.34V153.545V153.751V153.956V154.161V154.366V154.572V154.777V154.982V155.186V155.391V155.596V155.801V156.005V156.21V156.414V156.619V156.823V157.027V157.231V157.435V157.639V157.843V158.047V158.25V158.454V158.657V158.861V159.064V159.267V159.47V159.673V159.876V160.078V160.281V160.483V160.686V160.888V161.09V161.292V161.494V161.695V161.897V162.098V162.299V162.501V162.702V162.902V163.103V163.304V163.504V163.704V163.904V164.104V164.304V164.504V164.703V164.902V165.101V165.3V165.499V165.698V165.896V166.094V166.292V166.49V166.688V166.885V167.083V167.28V167.477V167.674V167.87V168.067V168.263V168.459V168.654V168.85V169.045V169.24V169.435V169.63V169.824V170.019V170.213V170.407V170.6V170.794V170.987V171.18V171.372V171.565V171.757V171.949V172.141V172.332V172.523V172.714V172.905V173.096V173.286V173.476V173.666V173.855V174.044V174.233V174.422V174.611V174.799V174.987V175.174V175.362V175.549V175.735V175.922V176.108V176.294V176.48V176.665V176.85V177.035V177.219V177.404V177.587V177.771V177.954V178.137V178.32V178.502V178.684V178.866V179.048V179.229V179.409V179.59V179.77V179.95V180.129V180.308V180.487V180.666V180.844V181.022V181.199V181.376V181.553V181.73V181.906V182.081V182.257V182.432V182.606V182.781V182.955V183.128V183.302V183.474V183.647V183.819V183.991V184.162V184.333V184.504V184.674V184.844V185.013V185.183V185.351V185.52V185.688V185.855V186.022V186.189V186.355V186.521V186.687V186.852V187.016V187.181V187.345V187.508V187.671V187.834V187.996V188.158V188.319V188.48V188.641V188.801V188.96V189.12V189.278V189.437V189.594V189.752V189.909V190.065V190.222V190.377V190.532V190.687V190.841V190.995V191.149V191.301V191.454V191.606V191.757V191.908V192.059V192.209V192.359V192.508V192.656V192.804V192.952V193.099V193.246V193.392V193.538V193.683V193.828V193.972V194.116V194.259V194.401V194.544V194.685V194.826V194.967V195.107V195.247V195.386V195.524V195.662V195.8V195.937V196.073V196.209V196.345V196.479V196.614V196.748V196.881V197.013V197.146V197.277V197.408V197.539V197.668V197.798V197.927V198.055V198.183V198.31V198.436V198.562V198.688V198.812V198.937V199.06V199.183V199.306V199.428V199.549V199.67V199.79V199.91V200.028V200.147V200.265V200.382V200.498V200.614V200.73V200.844V200.959V201.072V201.185V201.297V201.409V201.52V201.631V201.74V201.849V201.958V202.066V202.173V202.28V202.386V202.491V202.596V202.7V202.804V202.906V203.009V203.11V203.211V203.311V203.411V203.51V203.608V203.705V203.802V203.898V203.994V204.089V204.183V204.277V204.369V204.462V204.553V204.644V204.734V204.824V204.912V205V205.088V205.174V205.26V205.346V205.43V205.514V205.597V205.68V205.761V205.842V205.923V206.002V206.081V206.159V206.237V206.313V206.389V206.465V206.539V206.613V206.686V206.758V206.83V206.901V206.971V207.04V207.109V207.177V207.244V207.31V207.376V207.441V207.505V207.568V207.631V207.692V207.753V207.814V207.873V207.932V207.99V208.047V208.103V208.159V208.214V208.268V208.321V208.374V208.425V208.476V208.526V208.576V208.624V208.672V208.719V208.765V208.81V208.854V208.898V208.941V208.983V209.024V209.064V209.104V209.143V209.181V209.218V209.221L124.5 187.679Z" fill="#BACCD9" stroke="#888888"/>
<path d="M47.5 157.179V50.7645L24.2004 60.9581L24.2004 60.9581L24.1926 60.9614L24.1923 60.9615L24.1902 60.9624L24.1794 60.967C24.1693 60.9713 24.1536 60.9781 24.1325 60.9874C24.0901 61.0061 24.0259 61.0348 23.9411 61.0742C23.7717 61.1529 23.5205 61.2739 23.1992 61.4408C22.5565 61.7746 21.6338 62.2915 20.5243 63.0196C18.305 64.476 15.3408 66.7758 12.3752 70.143C6.45103 76.8694 0.5 87.8785 0.5 105V105.202V105.405V105.607V105.81V106.012V106.215V106.418V106.621V106.824V107.027V107.231V107.434V107.638V107.841V108.045V108.249V108.453V108.657V108.861V109.065V109.27V109.474V109.679V109.883V110.088V110.292V110.497V110.702V110.907V111.112V111.317V111.522V111.727V111.932V112.138V112.343V112.548V112.754V112.959V113.165V113.371V113.576V113.782V113.988V114.193V114.399V114.605V114.811V115.017V115.222V115.428V115.634V115.84V116.046V116.252V116.458V116.664V116.87V117.076V117.282V117.488V117.694V117.9V118.106V118.312V118.519V118.725V118.931V119.137V119.343V119.549V119.754V119.96V120.166V120.372V120.578V120.784V120.99V121.195V121.401V121.607V121.812V122.018V122.224V122.429V122.635V122.84V123.045V123.251V123.456V123.661V123.866V124.072V124.277V124.482V124.686V124.891V125.096V125.301V125.505V125.71V125.914V126.119V126.323V126.527V126.731V126.935V127.139V127.343V127.547V127.75V127.954V128.157V128.361V128.564V128.767V128.97V129.173V129.376V129.578V129.781V129.983V130.186V130.388V130.59V130.792V130.994V131.195V131.397V131.598V131.799V132.001V132.202V132.402V132.603V132.804V133.004V133.204V133.404V133.604V133.804V134.004V134.203V134.402V134.601V134.8V134.999V135.198V135.396V135.594V135.792V135.99V136.188V136.385V136.583V136.78V136.977V137.174V137.37V137.567V137.763V137.959V138.154V138.35V138.545V138.74V138.935V139.13V139.324V139.519V139.713V139.907V140.1V140.294V140.487V140.68V140.872V141.065V141.257V141.449V141.641V141.832V142.023V142.214V142.405V142.596V142.786V142.976V143.166V143.355V143.544V143.733V143.922V144.111V144.299V144.487V144.674V144.862V145.049V145.235V145.422V145.608V145.794V145.98V146.165V146.35V146.535V146.719V146.904V147.087V147.271V147.454V147.637V147.82V148.002V148.184V148.366V148.548V148.729V148.909V149.09V149.27V149.45V149.629V149.808V149.987V150.166V150.344V150.522V150.699V150.876V151.053V151.23V151.406V151.581V151.757V151.932V152.106V152.281V152.455V152.628V152.802V152.974V153.147V153.319V153.491V153.662V153.833V154.004V154.174V154.344V154.513V154.683V154.851V155.02V155.188V155.355V155.522V155.689V155.855V156.021V156.187V156.352V156.516V156.681V156.845V157.008V157.171V157.334V157.496V157.658V157.819V157.98V158.141V158.301V158.46V158.62V158.778V158.937V159.094V159.252V159.409V159.565V159.722V159.877V160.032V160.187V160.341V160.495V160.649V160.801V160.954V161.106V161.257V161.408V161.559V161.709V161.859V162.008V162.156V162.304V162.452V162.599V162.746V162.892V163.038V163.183V163.328V163.472V163.616V163.759V163.901V164.044V164.185V164.326V164.467V164.607V164.747V164.886V165.024V165.162V165.3V165.437V165.573V165.709V165.845V165.979V166.114V166.248V166.381V166.513V166.646V166.777V166.908V167.039V167.168V167.298V167.427V167.555V167.683V167.81V167.936V168.062V168.188V168.312V168.437V168.56V168.683V168.806V168.928V169.049V169.17V169.29V169.41V169.528V169.647V169.765V169.882V169.998V170.114V170.23V170.344V170.459V170.572V170.685V170.797V170.909V171.02V171.131V171.24V171.349V171.458V171.566V171.673V171.78V171.886V171.991V172.096V172.2V172.304V172.406V172.509V172.61V172.711V172.811V172.911V173.01V173.108V173.205V173.302V173.398V173.494V173.589V173.683V173.777V173.869V173.962V174.053V174.144V174.234V174.324V174.412V174.5V174.588V174.674V174.76V174.846V174.93V175.014V175.097V175.18V175.261V175.342V175.423V175.502V175.581V175.659V175.737V175.813V175.889V175.965V176.039V176.113V176.186V176.258V176.33V176.401V176.471V176.54V176.609V176.677V176.744V176.81V176.876V176.941V177.005V177.068V177.131V177.192V177.253V177.314V177.373V177.432V177.49V177.547V177.603V177.659V177.714V177.768V177.821V177.874V177.925V177.976V178.026V178.076V178.124V178.172V178.219V178.265V178.31V178.354V178.398V178.441V178.483V178.524V178.564V178.604V178.643V178.681V178.718V178.721L47.5 157.179Z" fill="#BACCD9" stroke="#888888"/>
</g>
</svg>
